<svg width="145" height="41" viewBox="0 0 145 41" fill="none" xmlns="http://www.w3.org/2000/svg">
<path fill-rule="evenodd" clip-rule="evenodd" d="M0.000743626 27.3485C0.000743626 23.1046 0.000743626 18.8607 0.000743626 14.5986C0.000743626 14.1614 -0.0356978 14.2161 0.401626 14.2161C4.3011 14.2161 8.20057 14.2161 12.1 14.2161C12.5191 14.2161 12.4827 14.1796 12.4827 14.5803C12.4827 18.9153 12.4827 23.2503 12.4827 27.6035C12.4827 28.0224 12.4463 27.986 12.8654 27.986C17.2022 27.986 21.5389 27.986 25.8757 27.986C26.2948 27.986 26.2584 27.9313 26.2584 28.3685C26.2584 32.2845 26.2584 36.2188 26.2584 40.1348C26.2584 40.5355 26.2948 40.4991 25.894 40.4991C17.3844 40.4991 8.87477 40.4991 0.36518 40.4991C0.310515 40.4991 0.237627 40.4991 0.182962 40.4991C0.073631 40.4991 0.0189721 40.4627 0.0189721 40.3352C0.0189721 40.2441 0.0189721 40.153 0.0189721 40.062C0.000750298 35.8181 0.000743626 31.5742 0.000743626 27.3485Z" fill="#545454"/>
<path fill-rule="evenodd" clip-rule="evenodd" d="M13.7765 13.5968C13.7765 9.40753 13.7765 5.20006 13.7765 1.0108C13.7765 0.956154 13.7765 0.883297 13.7765 0.828655C13.7765 0.500799 13.7765 0.5008 14.1045 0.5008C17.7124 0.5008 21.3021 0.5008 24.9101 0.5008C29.8117 0.5008 34.6952 0.5008 39.5969 0.5008C40.016 0.5008 39.9795 0.464371 39.9795 0.883297C39.9795 4.79935 39.9795 8.73361 39.9795 12.6497C39.9795 13.0322 40.0342 13.0322 39.5969 13.0322C35.2783 13.0322 30.9597 13.0322 26.6411 13.0322C26.1309 13.0322 26.2038 12.9775 26.2038 13.4875C26.2038 17.7678 26.2038 22.0664 26.2038 26.3467C26.2038 26.7656 26.2585 26.7292 25.8394 26.7292C21.9399 26.7292 18.0404 26.7292 14.141 26.7292C14.0681 26.7292 13.9952 26.7292 13.9223 26.7292C13.7947 26.7292 13.7583 26.6746 13.7583 26.5653C13.7583 26.4742 13.7583 26.3831 13.7583 26.2921C13.7765 22.0664 13.7765 17.8225 13.7765 13.5968Z" fill="#545454"/>
<path fill-rule="evenodd" clip-rule="evenodd" d="M27.4608 27.3302C27.4608 23.0863 27.4608 18.8606 27.4608 14.6167C27.4608 14.1431 27.4426 14.2159 27.8799 14.2159C31.7976 14.2159 35.7153 14.2159 39.633 14.2159C40.0521 14.2159 39.9974 14.1977 39.9974 14.5984C39.9974 23.0863 39.9974 31.5923 39.9974 40.0801C39.9974 40.5354 40.0521 40.4808 39.5783 40.4808C35.6606 40.4808 31.743 40.4808 27.8253 40.4808C27.4244 40.4808 27.4608 40.5354 27.4608 40.0983C27.4608 35.8544 27.4608 31.5923 27.4608 27.3302Z" fill="#545454"/>
<path d="M57.04 29.5C56.9013 29.5 56.78 29.448 56.676 29.344C56.572 29.24 56.52 29.1187 56.52 28.98C56.52 28.8933 56.5287 28.798 56.546 28.694L62.994 11.872C63.0633 11.6987 63.1587 11.56 63.28 11.456C63.4013 11.352 63.5833 11.3 63.826 11.3H65.594C65.8193 11.3 65.9927 11.352 66.114 11.456C66.2527 11.56 66.3567 11.6987 66.426 11.872L72.848 28.694C72.8827 28.798 72.9 28.8933 72.9 28.98C72.9 29.1187 72.848 29.24 72.744 29.344C72.64 29.448 72.5187 29.5 72.38 29.5H71.054C70.846 29.5 70.69 29.448 70.586 29.344C70.4993 29.24 70.4387 29.1447 70.404 29.058L68.974 25.366H60.446L59.016 29.058C58.9987 29.1447 58.938 29.24 58.834 29.344C58.73 29.448 58.574 29.5 58.366 29.5H57.04ZM61.2 23.13H68.22L64.71 13.9L61.2 23.13ZM81.2761 29.76C79.7681 29.76 78.5027 29.5347 77.4801 29.084C76.4574 28.616 75.6687 28.018 75.1141 27.29C74.5767 26.5447 74.2907 25.756 74.2561 24.924C74.2561 24.7853 74.3081 24.664 74.4121 24.56C74.5334 24.4387 74.6721 24.378 74.8281 24.378H76.1541C76.3621 24.378 76.5181 24.43 76.6221 24.534C76.7261 24.638 76.7954 24.7593 76.8301 24.898C76.9167 25.314 77.1247 25.73 77.4541 26.146C77.8007 26.5447 78.2774 26.8827 78.8841 27.16C79.5081 27.42 80.3054 27.55 81.2761 27.55C82.7667 27.55 83.8587 27.29 84.5521 26.77C85.2627 26.2327 85.6181 25.522 85.6181 24.638C85.6181 24.0313 85.4274 23.546 85.0461 23.182C84.6821 22.8007 84.1187 22.4627 83.3561 22.168C82.5934 21.8733 81.6054 21.5527 80.3921 21.206C79.1267 20.842 78.0781 20.4433 77.2461 20.01C76.4141 19.5767 75.7901 19.0393 75.3741 18.398C74.9754 17.7567 74.7761 16.942 74.7761 15.954C74.7761 15.018 75.0274 14.186 75.5301 13.458C76.0327 12.7127 76.7521 12.1233 77.6881 11.69C78.6414 11.2567 79.7941 11.04 81.1461 11.04C82.2207 11.04 83.1567 11.1873 83.9541 11.482C84.7687 11.7593 85.4447 12.1407 85.9821 12.626C86.5194 13.094 86.9267 13.6053 87.2041 14.16C87.4814 14.6973 87.6287 15.226 87.6461 15.746C87.6461 15.8673 87.6027 15.9887 87.5161 16.11C87.4294 16.214 87.2907 16.266 87.1001 16.266H85.7221C85.6007 16.266 85.4707 16.2313 85.3321 16.162C85.2107 16.0927 85.1154 15.9627 85.0461 15.772C84.9421 15.0613 84.5434 14.4633 83.8501 13.978C83.1567 13.4927 82.2554 13.25 81.1461 13.25C80.0194 13.25 79.1007 13.4667 78.3901 13.9C77.6967 14.3333 77.3501 15.0093 77.3501 15.928C77.3501 16.5173 77.5147 17.0113 77.8441 17.41C78.1734 17.7913 78.6934 18.1293 79.4041 18.424C80.1147 18.7187 81.0421 19.0307 82.1861 19.36C83.5727 19.7413 84.7081 20.1487 85.5921 20.582C86.4761 20.998 87.1261 21.5267 87.5421 22.168C87.9754 22.792 88.1921 23.598 88.1921 24.586C88.1921 25.678 87.9061 26.614 87.3341 27.394C86.7621 28.1567 85.9561 28.746 84.9161 29.162C83.8934 29.5607 82.6801 29.76 81.2761 29.76ZM90.124 29.5C89.9853 29.5 89.864 29.448 89.76 29.344C89.656 29.24 89.604 29.1187 89.604 28.98C89.604 28.8933 89.6127 28.798 89.63 28.694L96.078 11.872C96.1473 11.6987 96.2427 11.56 96.364 11.456C96.4853 11.352 96.6673 11.3 96.91 11.3H98.678C98.9033 11.3 99.0767 11.352 99.198 11.456C99.3367 11.56 99.4407 11.6987 99.51 11.872L105.932 28.694C105.967 28.798 105.984 28.8933 105.984 28.98C105.984 29.1187 105.932 29.24 105.828 29.344C105.724 29.448 105.603 29.5 105.464 29.5H104.138C103.93 29.5 103.774 29.448 103.67 29.344C103.583 29.24 103.523 29.1447 103.488 29.058L102.058 25.366H93.53L92.1 29.058C92.0827 29.1447 92.022 29.24 91.918 29.344C91.814 29.448 91.658 29.5 91.45 29.5H90.124ZM94.284 23.13H101.304L97.794 13.9L94.284 23.13ZM121.003 29.76C119.409 29.76 118.083 29.4653 117.025 28.876C115.985 28.2867 115.197 27.4633 114.659 26.406C114.122 25.3487 113.827 24.118 113.775 22.714C113.758 22.0033 113.749 21.2407 113.749 20.426C113.749 19.6113 113.758 18.8313 113.775 18.086C113.827 16.682 114.122 15.4513 114.659 14.394C115.197 13.3367 115.985 12.5133 117.025 11.924C118.083 11.3347 119.409 11.04 121.003 11.04C122.199 11.04 123.248 11.2047 124.149 11.534C125.051 11.8633 125.796 12.3053 126.385 12.86C126.992 13.4147 127.451 14.0387 127.763 14.732C128.075 15.408 128.249 16.11 128.283 16.838C128.301 16.994 128.249 17.124 128.127 17.228C128.023 17.332 127.893 17.384 127.737 17.384H126.307C126.151 17.384 126.013 17.3407 125.891 17.254C125.787 17.1673 125.709 17.0113 125.657 16.786C125.363 15.434 124.808 14.5067 123.993 14.004C123.196 13.5013 122.191 13.25 120.977 13.25C119.591 13.25 118.49 13.6487 117.675 14.446C116.861 15.226 116.419 16.4827 116.349 18.216C116.297 19.6373 116.297 21.0933 116.349 22.584C116.419 24.3173 116.861 25.5827 117.675 26.38C118.49 27.16 119.591 27.55 120.977 27.55C122.191 27.55 123.196 27.2987 123.993 26.796C124.808 26.2933 125.363 25.366 125.657 24.014C125.709 23.7887 125.787 23.6327 125.891 23.546C126.013 23.4593 126.151 23.416 126.307 23.416H127.737C127.893 23.416 128.023 23.468 128.127 23.572C128.249 23.676 128.301 23.806 128.283 23.962C128.249 24.69 128.075 25.4007 127.763 26.094C127.451 26.77 126.992 27.3853 126.385 27.94C125.796 28.4947 125.051 28.9367 124.149 29.266C123.248 29.5953 122.199 29.76 121.003 29.76ZM136.968 29.76C135.651 29.76 134.55 29.5087 133.666 29.006C132.782 28.5033 132.106 27.81 131.638 26.926C131.17 26.0247 130.91 25.002 130.858 23.858C130.841 23.5633 130.832 23.1907 130.832 22.74C130.832 22.272 130.841 21.8993 130.858 21.622C130.91 20.4607 131.17 19.438 131.638 18.554C132.123 17.67 132.808 16.9767 133.692 16.474C134.576 15.9713 135.668 15.72 136.968 15.72C138.268 15.72 139.36 15.9713 140.244 16.474C141.128 16.9767 141.804 17.67 142.272 18.554C142.757 19.438 143.026 20.4607 143.078 21.622C143.095 21.8993 143.104 22.272 143.104 22.74C143.104 23.1907 143.095 23.5633 143.078 23.858C143.026 25.002 142.766 26.0247 142.298 26.926C141.83 27.81 141.154 28.5033 140.27 29.006C139.386 29.5087 138.285 29.76 136.968 29.76ZM136.968 27.758C138.043 27.758 138.901 27.42 139.542 26.744C140.183 26.0507 140.53 25.0453 140.582 23.728C140.599 23.468 140.608 23.1387 140.608 22.74C140.608 22.3413 140.599 22.012 140.582 21.752C140.53 20.4347 140.183 19.438 139.542 18.762C138.901 18.0687 138.043 17.722 136.968 17.722C135.893 17.722 135.027 18.0687 134.368 18.762C133.727 19.438 133.389 20.4347 133.354 21.752C133.337 22.012 133.328 22.3413 133.328 22.74C133.328 23.1387 133.337 23.468 133.354 23.728C133.389 25.0453 133.727 26.0507 134.368 26.744C135.027 27.42 135.893 27.758 136.968 27.758Z" fill="#545454"/>
</svg>
