<svg width="88" height="19" viewBox="0 0 88 19" fill="none" xmlns="http://www.w3.org/2000/svg">
<path d="M1.04 18.5C0.901333 18.5 0.78 18.448 0.676 18.344C0.572 18.24 0.52 18.1187 0.52 17.98C0.52 17.8933 0.528667 17.798 0.546 17.694L6.994 0.871999C7.06333 0.698666 7.15867 0.56 7.28 0.456C7.40133 0.351999 7.58333 0.299999 7.826 0.299999H9.594C9.81933 0.299999 9.99267 0.351999 10.114 0.456C10.2527 0.56 10.3567 0.698666 10.426 0.871999L16.848 17.694C16.8827 17.798 16.9 17.8933 16.9 17.98C16.9 18.1187 16.848 18.24 16.744 18.344C16.64 18.448 16.5187 18.5 16.38 18.5H15.054C14.846 18.5 14.69 18.448 14.586 18.344C14.4993 18.24 14.4387 18.1447 14.404 18.058L12.974 14.366H4.446L3.016 18.058C2.99867 18.1447 2.938 18.24 2.834 18.344C2.73 18.448 2.574 18.5 2.366 18.5H1.04ZM5.2 12.13H12.22L8.71 2.9L5.2 12.13ZM25.2761 18.76C23.7681 18.76 22.5027 18.5347 21.4801 18.084C20.4574 17.616 19.6687 17.018 19.1141 16.29C18.5767 15.5447 18.2907 14.756 18.2561 13.924C18.2561 13.7853 18.3081 13.664 18.4121 13.56C18.5334 13.4387 18.6721 13.378 18.8281 13.378H20.1541C20.3621 13.378 20.5181 13.43 20.6221 13.534C20.7261 13.638 20.7954 13.7593 20.8301 13.898C20.9167 14.314 21.1247 14.73 21.4541 15.146C21.8007 15.5447 22.2774 15.8827 22.8841 16.16C23.5081 16.42 24.3054 16.55 25.2761 16.55C26.7667 16.55 27.8587 16.29 28.5521 15.77C29.2627 15.2327 29.6181 14.522 29.6181 13.638C29.6181 13.0313 29.4274 12.546 29.0461 12.182C28.6821 11.8007 28.1187 11.4627 27.3561 11.168C26.5934 10.8733 25.6054 10.5527 24.3921 10.206C23.1267 9.842 22.0781 9.44333 21.2461 9.01C20.4141 8.57667 19.7901 8.03933 19.3741 7.398C18.9754 6.75667 18.7761 5.942 18.7761 4.954C18.7761 4.018 19.0274 3.186 19.5301 2.458C20.0327 1.71267 20.7521 1.12333 21.6881 0.689998C22.6414 0.256665 23.7941 0.039999 25.1461 0.039999C26.2207 0.039999 27.1567 0.187333 27.9541 0.482C28.7687 0.759332 29.4447 1.14067 29.9821 1.626C30.5194 2.094 30.9267 2.60533 31.2041 3.16C31.4814 3.69733 31.6287 4.226 31.6461 4.746C31.6461 4.86733 31.6027 4.98867 31.5161 5.11C31.4294 5.214 31.2907 5.266 31.1001 5.266H29.7221C29.6007 5.266 29.4707 5.23133 29.3321 5.162C29.2107 5.09267 29.1154 4.96267 29.0461 4.772C28.9421 4.06133 28.5434 3.46333 27.8501 2.978C27.1567 2.49267 26.2554 2.25 25.1461 2.25C24.0194 2.25 23.1007 2.46667 22.3901 2.9C21.6967 3.33333 21.3501 4.00933 21.3501 4.928C21.3501 5.51733 21.5147 6.01133 21.8441 6.41C22.1734 6.79133 22.6934 7.12933 23.4041 7.424C24.1147 7.71867 25.0421 8.03067 26.1861 8.36C27.5727 8.74133 28.7081 9.14867 29.5921 9.582C30.4761 9.998 31.1261 10.5267 31.5421 11.168C31.9754 11.792 32.1921 12.598 32.1921 13.586C32.1921 14.678 31.9061 15.614 31.3341 16.394C30.7621 17.1567 29.9561 17.746 28.9161 18.162C27.8934 18.5607 26.6801 18.76 25.2761 18.76ZM34.124 18.5C33.9853 18.5 33.864 18.448 33.76 18.344C33.656 18.24 33.604 18.1187 33.604 17.98C33.604 17.8933 33.6127 17.798 33.63 17.694L40.078 0.871999C40.1473 0.698666 40.2427 0.56 40.364 0.456C40.4853 0.351999 40.6673 0.299999 40.91 0.299999H42.678C42.9033 0.299999 43.0767 0.351999 43.198 0.456C43.3367 0.56 43.4407 0.698666 43.51 0.871999L49.932 17.694C49.9667 17.798 49.984 17.8933 49.984 17.98C49.984 18.1187 49.932 18.24 49.828 18.344C49.724 18.448 49.6027 18.5 49.464 18.5H48.138C47.93 18.5 47.774 18.448 47.67 18.344C47.5833 18.24 47.5227 18.1447 47.488 18.058L46.058 14.366H37.53L36.1 18.058C36.0827 18.1447 36.022 18.24 35.918 18.344C35.814 18.448 35.658 18.5 35.45 18.5H34.124ZM38.284 12.13H45.304L41.794 2.9L38.284 12.13ZM65.0035 18.76C63.4088 18.76 62.0828 18.4653 61.0255 17.876C59.9855 17.2867 59.1968 16.4633 58.6595 15.406C58.1221 14.3487 57.8275 13.118 57.7755 11.714C57.7581 11.0033 57.7495 10.2407 57.7495 9.426C57.7495 8.61133 57.7581 7.83133 57.7755 7.086C57.8275 5.682 58.1221 4.45133 58.6595 3.394C59.1968 2.33667 59.9855 1.51333 61.0255 0.923998C62.0828 0.334665 63.4088 0.039999 65.0035 0.039999C66.1995 0.039999 67.2481 0.204666 68.1495 0.533999C69.0508 0.863332 69.7961 1.30533 70.3855 1.86C70.9921 2.41467 71.4515 3.03867 71.7635 3.732C72.0755 4.408 72.2488 5.11 72.2835 5.838C72.3008 5.994 72.2488 6.124 72.1275 6.228C72.0235 6.332 71.8935 6.384 71.7375 6.384H70.3075C70.1515 6.384 70.0128 6.34067 69.8915 6.254C69.7875 6.16733 69.7095 6.01133 69.6575 5.786C69.3628 4.434 68.8081 3.50667 67.9935 3.004C67.1961 2.50133 66.1908 2.25 64.9775 2.25C63.5908 2.25 62.4901 2.64867 61.6755 3.446C60.8608 4.226 60.4188 5.48267 60.3495 7.216C60.2975 8.63733 60.2975 10.0933 60.3495 11.584C60.4188 13.3173 60.8608 14.5827 61.6755 15.38C62.4901 16.16 63.5908 16.55 64.9775 16.55C66.1908 16.55 67.1961 16.2987 67.9935 15.796C68.8081 15.2933 69.3628 14.366 69.6575 13.014C69.7095 12.7887 69.7875 12.6327 69.8915 12.546C70.0128 12.4593 70.1515 12.416 70.3075 12.416H71.7375C71.8935 12.416 72.0235 12.468 72.1275 12.572C72.2488 12.676 72.3008 12.806 72.2835 12.962C72.2488 13.69 72.0755 14.4007 71.7635 15.094C71.4515 15.77 70.9921 16.3853 70.3855 16.94C69.7961 17.4947 69.0508 17.9367 68.1495 18.266C67.2481 18.5953 66.1995 18.76 65.0035 18.76ZM80.9679 18.76C79.6505 18.76 78.5499 18.5087 77.6659 18.006C76.7819 17.5033 76.1059 16.81 75.6379 15.926C75.1699 15.0247 74.9099 14.002 74.8579 12.858C74.8405 12.5633 74.8319 12.1907 74.8319 11.74C74.8319 11.272 74.8405 10.8993 74.8579 10.622C74.9099 9.46067 75.1699 8.438 75.6379 7.554C76.1232 6.67 76.8079 5.97667 77.6919 5.474C78.5759 4.97133 79.6679 4.72 80.9679 4.72C82.2679 4.72 83.3599 4.97133 84.2439 5.474C85.1279 5.97667 85.8039 6.67 86.2719 7.554C86.7572 8.438 87.0259 9.46067 87.0779 10.622C87.0952 10.8993 87.1039 11.272 87.1039 11.74C87.1039 12.1907 87.0952 12.5633 87.0779 12.858C87.0259 14.002 86.7659 15.0247 86.2979 15.926C85.8299 16.81 85.1539 17.5033 84.2699 18.006C83.3859 18.5087 82.2852 18.76 80.9679 18.76ZM80.9679 16.758C82.0425 16.758 82.9005 16.42 83.5419 15.744C84.1832 15.0507 84.5299 14.0453 84.5819 12.728C84.5992 12.468 84.6079 12.1387 84.6079 11.74C84.6079 11.3413 84.5992 11.012 84.5819 10.752C84.5299 9.43467 84.1832 8.438 83.5419 7.762C82.9005 7.06867 82.0425 6.722 80.9679 6.722C79.8932 6.722 79.0265 7.06867 78.3679 7.762C77.7265 8.438 77.3885 9.43467 77.3539 10.752C77.3365 11.012 77.3279 11.3413 77.3279 11.74C77.3279 12.1387 77.3365 12.468 77.3539 12.728C77.3885 14.0453 77.7265 15.0507 78.3679 15.744C79.0265 16.42 79.8932 16.758 80.9679 16.758Z" fill="#545454"/>
</svg>
