<svg width="145" height="40" viewBox="0 0 145 40" fill="none" xmlns="http://www.w3.org/2000/svg">
<path fill-rule="evenodd" clip-rule="evenodd" d="M0.000743626 26.8485C0.000743626 22.6046 0.000743626 18.3607 0.000743626 14.0986C0.000743626 13.6614 -0.0356978 13.7161 0.401626 13.7161C4.3011 13.7161 8.20057 13.7161 12.1 13.7161C12.5191 13.7161 12.4827 13.6796 12.4827 14.0803C12.4827 18.4153 12.4827 22.7503 12.4827 27.1035C12.4827 27.5224 12.4463 27.486 12.8654 27.486C17.2022 27.486 21.5389 27.486 25.8757 27.486C26.2948 27.486 26.2584 27.4313 26.2584 27.8685C26.2584 31.7845 26.2584 35.7188 26.2584 39.6348C26.2584 40.0355 26.2948 39.9991 25.894 39.9991C17.3844 39.9991 8.87477 39.9991 0.36518 39.9991C0.310515 39.9991 0.237627 39.9991 0.182962 39.9991C0.073631 39.9991 0.0189721 39.9627 0.0189721 39.8352C0.0189721 39.7441 0.0189721 39.653 0.0189721 39.562C0.000750298 35.3181 0.000743626 31.0742 0.000743626 26.8485Z" fill="#353332"/>
<path fill-rule="evenodd" clip-rule="evenodd" d="M13.776 13.0968C13.776 8.90753 13.776 4.70006 13.776 0.510796C13.776 0.456154 13.776 0.383297 13.776 0.328655C13.776 0.000799472 13.776 0.000799526 14.104 0.000799526C17.712 0.000799526 21.3017 0.000799526 24.9096 0.000799526C29.8112 0.000799526 34.6947 0.000799526 39.5964 0.000799526C40.0155 0.000799526 39.979 -0.0356289 39.979 0.383297C39.979 4.29935 39.979 8.23361 39.979 12.1497C39.979 12.5322 40.0337 12.5322 39.5964 12.5322C35.2778 12.5322 30.9592 12.5322 26.6406 12.5322C26.1304 12.5322 26.2033 12.4775 26.2033 12.9875C26.2033 17.2678 26.2033 21.5664 26.2033 25.8467C26.2033 26.2656 26.258 26.2292 25.8389 26.2292C21.9394 26.2292 18.0399 26.2292 14.1405 26.2292C14.0676 26.2292 13.9947 26.2292 13.9218 26.2292C13.7943 26.2292 13.7578 26.1746 13.7578 26.0653C13.7578 25.9742 13.7578 25.8831 13.7578 25.7921C13.776 21.5664 13.776 17.3225 13.776 13.0968Z" fill="#353332"/>
<path fill-rule="evenodd" clip-rule="evenodd" d="M27.4608 26.8302C27.4608 22.5863 27.4608 18.3606 27.4608 14.1167C27.4608 13.6431 27.4426 13.7159 27.8799 13.7159C31.7976 13.7159 35.7153 13.7159 39.633 13.7159C40.0521 13.7159 39.9974 13.6977 39.9974 14.0984C39.9974 22.5863 39.9974 31.0923 39.9974 39.5801C39.9974 40.0354 40.0521 39.9808 39.5783 39.9808C35.6606 39.9808 31.743 39.9808 27.8253 39.9808C27.4244 39.9808 27.4608 40.0354 27.4608 39.5983C27.4608 35.3544 27.4608 31.0923 27.4608 26.8302Z" fill="#353332"/>
<path d="M57.04 29C56.9013 29 56.78 28.948 56.676 28.844C56.572 28.74 56.52 28.6187 56.52 28.48C56.52 28.3933 56.5287 28.298 56.546 28.194L62.994 11.372C63.0633 11.1987 63.1587 11.06 63.28 10.956C63.4013 10.852 63.5833 10.8 63.826 10.8H65.594C65.8193 10.8 65.9927 10.852 66.114 10.956C66.2527 11.06 66.3567 11.1987 66.426 11.372L72.848 28.194C72.8827 28.298 72.9 28.3933 72.9 28.48C72.9 28.6187 72.848 28.74 72.744 28.844C72.64 28.948 72.5187 29 72.38 29H71.054C70.846 29 70.69 28.948 70.586 28.844C70.4993 28.74 70.4387 28.6447 70.404 28.558L68.974 24.866H60.446L59.016 28.558C58.9987 28.6447 58.938 28.74 58.834 28.844C58.73 28.948 58.574 29 58.366 29H57.04ZM61.2 22.63H68.22L64.71 13.4L61.2 22.63ZM81.2761 29.26C79.7681 29.26 78.5027 29.0347 77.4801 28.584C76.4574 28.116 75.6687 27.518 75.1141 26.79C74.5767 26.0447 74.2907 25.256 74.2561 24.424C74.2561 24.2853 74.3081 24.164 74.4121 24.06C74.5334 23.9387 74.6721 23.878 74.8281 23.878H76.1541C76.3621 23.878 76.5181 23.93 76.6221 24.034C76.7261 24.138 76.7954 24.2593 76.8301 24.398C76.9167 24.814 77.1247 25.23 77.4541 25.646C77.8007 26.0447 78.2774 26.3827 78.8841 26.66C79.5081 26.92 80.3054 27.05 81.2761 27.05C82.7667 27.05 83.8587 26.79 84.5521 26.27C85.2627 25.7327 85.6181 25.022 85.6181 24.138C85.6181 23.5313 85.4274 23.046 85.0461 22.682C84.6821 22.3007 84.1187 21.9627 83.3561 21.668C82.5934 21.3733 81.6054 21.0527 80.3921 20.706C79.1267 20.342 78.0781 19.9433 77.2461 19.51C76.4141 19.0767 75.7901 18.5393 75.3741 17.898C74.9754 17.2567 74.7761 16.442 74.7761 15.454C74.7761 14.518 75.0274 13.686 75.5301 12.958C76.0327 12.2127 76.7521 11.6233 77.6881 11.19C78.6414 10.7567 79.7941 10.54 81.1461 10.54C82.2207 10.54 83.1567 10.6873 83.9541 10.982C84.7687 11.2593 85.4447 11.6407 85.9821 12.126C86.5194 12.594 86.9267 13.1053 87.2041 13.66C87.4814 14.1973 87.6287 14.726 87.6461 15.246C87.6461 15.3673 87.6027 15.4887 87.5161 15.61C87.4294 15.714 87.2907 15.766 87.1001 15.766H85.7221C85.6007 15.766 85.4707 15.7313 85.3321 15.662C85.2107 15.5927 85.1154 15.4627 85.0461 15.272C84.9421 14.5613 84.5434 13.9633 83.8501 13.478C83.1567 12.9927 82.2554 12.75 81.1461 12.75C80.0194 12.75 79.1007 12.9667 78.3901 13.4C77.6967 13.8333 77.3501 14.5093 77.3501 15.428C77.3501 16.0173 77.5147 16.5113 77.8441 16.91C78.1734 17.2913 78.6934 17.6293 79.4041 17.924C80.1147 18.2187 81.0421 18.5307 82.1861 18.86C83.5727 19.2413 84.7081 19.6487 85.5921 20.082C86.4761 20.498 87.1261 21.0267 87.5421 21.668C87.9754 22.292 88.1921 23.098 88.1921 24.086C88.1921 25.178 87.9061 26.114 87.3341 26.894C86.7621 27.6567 85.9561 28.246 84.9161 28.662C83.8934 29.0607 82.6801 29.26 81.2761 29.26ZM90.124 29C89.9853 29 89.864 28.948 89.76 28.844C89.656 28.74 89.604 28.6187 89.604 28.48C89.604 28.3933 89.6127 28.298 89.63 28.194L96.078 11.372C96.1473 11.1987 96.2427 11.06 96.364 10.956C96.4853 10.852 96.6673 10.8 96.91 10.8H98.678C98.9033 10.8 99.0767 10.852 99.198 10.956C99.3367 11.06 99.4407 11.1987 99.51 11.372L105.932 28.194C105.967 28.298 105.984 28.3933 105.984 28.48C105.984 28.6187 105.932 28.74 105.828 28.844C105.724 28.948 105.603 29 105.464 29H104.138C103.93 29 103.774 28.948 103.67 28.844C103.583 28.74 103.523 28.6447 103.488 28.558L102.058 24.866H93.53L92.1 28.558C92.0827 28.6447 92.022 28.74 91.918 28.844C91.814 28.948 91.658 29 91.45 29H90.124ZM94.284 22.63H101.304L97.794 13.4L94.284 22.63ZM121.003 29.26C119.409 29.26 118.083 28.9653 117.025 28.376C115.985 27.7867 115.197 26.9633 114.659 25.906C114.122 24.8487 113.827 23.618 113.775 22.214C113.758 21.5033 113.749 20.7407 113.749 19.926C113.749 19.1113 113.758 18.3313 113.775 17.586C113.827 16.182 114.122 14.9513 114.659 13.894C115.197 12.8367 115.985 12.0133 117.025 11.424C118.083 10.8347 119.409 10.54 121.003 10.54C122.199 10.54 123.248 10.7047 124.149 11.034C125.051 11.3633 125.796 11.8053 126.385 12.36C126.992 12.9147 127.451 13.5387 127.763 14.232C128.075 14.908 128.249 15.61 128.283 16.338C128.301 16.494 128.249 16.624 128.127 16.728C128.023 16.832 127.893 16.884 127.737 16.884H126.307C126.151 16.884 126.013 16.8407 125.891 16.754C125.787 16.6673 125.709 16.5113 125.657 16.286C125.363 14.934 124.808 14.0067 123.993 13.504C123.196 13.0013 122.191 12.75 120.977 12.75C119.591 12.75 118.49 13.1487 117.675 13.946C116.861 14.726 116.419 15.9827 116.349 17.716C116.297 19.1373 116.297 20.5933 116.349 22.084C116.419 23.8173 116.861 25.0827 117.675 25.88C118.49 26.66 119.591 27.05 120.977 27.05C122.191 27.05 123.196 26.7987 123.993 26.296C124.808 25.7933 125.363 24.866 125.657 23.514C125.709 23.2887 125.787 23.1327 125.891 23.046C126.013 22.9593 126.151 22.916 126.307 22.916H127.737C127.893 22.916 128.023 22.968 128.127 23.072C128.249 23.176 128.301 23.306 128.283 23.462C128.249 24.19 128.075 24.9007 127.763 25.594C127.451 26.27 126.992 26.8853 126.385 27.44C125.796 27.9947 125.051 28.4367 124.149 28.766C123.248 29.0953 122.199 29.26 121.003 29.26ZM136.968 29.26C135.651 29.26 134.55 29.0087 133.666 28.506C132.782 28.0033 132.106 27.31 131.638 26.426C131.17 25.5247 130.91 24.502 130.858 23.358C130.841 23.0633 130.832 22.6907 130.832 22.24C130.832 21.772 130.841 21.3993 130.858 21.122C130.91 19.9607 131.17 18.938 131.638 18.054C132.123 17.17 132.808 16.4767 133.692 15.974C134.576 15.4713 135.668 15.22 136.968 15.22C138.268 15.22 139.36 15.4713 140.244 15.974C141.128 16.4767 141.804 17.17 142.272 18.054C142.757 18.938 143.026 19.9607 143.078 21.122C143.095 21.3993 143.104 21.772 143.104 22.24C143.104 22.6907 143.095 23.0633 143.078 23.358C143.026 24.502 142.766 25.5247 142.298 26.426C141.83 27.31 141.154 28.0033 140.27 28.506C139.386 29.0087 138.285 29.26 136.968 29.26ZM136.968 27.258C138.043 27.258 138.901 26.92 139.542 26.244C140.183 25.5507 140.53 24.5453 140.582 23.228C140.599 22.968 140.608 22.6387 140.608 22.24C140.608 21.8413 140.599 21.512 140.582 21.252C140.53 19.9347 140.183 18.938 139.542 18.262C138.901 17.5687 138.043 17.222 136.968 17.222C135.893 17.222 135.027 17.5687 134.368 18.262C133.727 18.938 133.389 19.9347 133.354 21.252C133.337 21.512 133.328 21.8413 133.328 22.24C133.328 22.6387 133.337 22.968 133.354 23.228C133.389 24.5453 133.727 25.5507 134.368 26.244C135.027 26.92 135.893 27.258 136.968 27.258Z" fill="#353332"/>
</svg>
