<svg width="41" height="40" viewBox="0 0 41 40" fill="none" xmlns="http://www.w3.org/2000/svg">
<g clip-path="url(#clip0_2150_10728)">
<path d="M0.200195 34.8424C0.200195 37.6912 2.50934 40 5.35782 40H35.0426C37.8914 40 40.2002 37.6909 40.2002 34.8424V5.15762C40.2002 2.30883 37.891 0 35.0426 0H5.35782C2.50903 0 0.200195 2.30915 0.200195 5.15762V34.8424Z" fill="#563D7C"/>
<path d="M16.7873 17.6935V12.0288H21.7735C22.2484 12.0288 22.7063 12.0684 23.1473 12.1476C23.5883 12.2267 23.9783 12.368 24.3175 12.5716C24.6567 12.7751 24.9281 13.0577 25.1316 13.4196C25.3351 13.7814 25.4369 14.2449 25.4369 14.8103C25.4369 15.8279 25.1316 16.5628 24.521 17.0151C23.9105 17.4673 23.1303 17.6935 22.1806 17.6935H16.7873ZM11.4619 7.89062V32.1094H23.1982C24.2836 32.1094 25.3408 31.9737 26.3697 31.7023C27.3986 31.431 28.3144 31.0126 29.1172 30.4473C29.92 29.882 30.5588 29.1527 31.0336 28.2595C31.5085 27.3662 31.746 26.3091 31.746 25.088C31.746 23.5729 31.3785 22.2783 30.6436 21.2042C29.9086 20.13 28.7949 19.3781 27.3025 18.9485C28.3879 18.4284 29.2076 17.7613 29.7617 16.9472C30.3157 16.1331 30.5927 15.1156 30.5927 13.8944C30.5927 12.7638 30.4061 11.814 30.033 11.0452C29.6599 10.2763 29.1341 9.66011 28.4557 9.19654C27.7773 8.73296 26.9633 8.39942 26.0135 8.1959C25.0638 7.99238 24.0123 7.89062 22.859 7.89062H11.4619ZM16.7873 27.9712V21.3229H22.5876C23.7409 21.3229 24.668 21.5886 25.369 22.12C26.0701 22.6514 26.4206 23.539 26.4206 24.7827C26.4206 25.4159 26.3131 25.936 26.0983 26.343C25.8835 26.75 25.5952 27.0723 25.2334 27.3097C24.8715 27.5472 24.4532 27.7168 23.9783 27.8185C23.5034 27.9203 23.006 27.9712 22.4859 27.9712H16.7873Z" fill="#EFEFEF"/>
</g>
<defs>
<clipPath id="clip0_2150_10728">
<rect width="40" height="40" fill="white" transform="translate(0.200195)"/>
</clipPath>
</defs>
</svg>
