<svg width="28" height="28" viewBox="0 0 28 28" fill="none" xmlns="http://www.w3.org/2000/svg">
<path d="M13.4015 19.6688C12.4202 19.6688 11.6042 19.4875 10.9535 19.1248C10.3135 18.7621 9.82821 18.2555 9.49754 17.6048C9.16687 16.9541 8.98554 16.1968 8.95354 15.3328C8.94287 14.8955 8.93754 14.4261 8.93754 13.9248C8.93754 13.4235 8.94287 12.9435 8.95354 12.4848C8.98554 11.6208 9.16687 10.8635 9.49754 10.2128C9.82821 9.56212 10.3135 9.05546 10.9535 8.69279C11.6042 8.33012 12.4202 8.14879 13.4015 8.14879C14.1375 8.14879 14.7829 8.25012 15.3375 8.45279C15.8922 8.65545 16.3509 8.92745 16.7135 9.26879C17.0869 9.61012 17.3695 9.99412 17.5615 10.4208C17.7535 10.8368 17.8602 11.2688 17.8815 11.7168C17.8922 11.8128 17.8602 11.8928 17.7855 11.9568C17.7215 12.0208 17.6415 12.0528 17.5455 12.0528H16.6655C16.5695 12.0528 16.4842 12.0261 16.4095 11.9728C16.3455 11.9195 16.2975 11.8235 16.2655 11.6848C16.0842 10.8528 15.7429 10.2821 15.2415 9.97279C14.7509 9.66346 14.1322 9.50879 13.3855 9.50879C12.5322 9.50879 11.8549 9.75412 11.3535 10.2448C10.8522 10.7248 10.5802 11.4981 10.5375 12.5648C10.5055 13.4395 10.5055 14.3355 10.5375 15.2528C10.5802 16.3195 10.8522 17.0981 11.3535 17.5888C11.8549 18.0688 12.5322 18.3088 13.3855 18.3088C14.1322 18.3088 14.7509 18.1541 15.2415 17.8448C15.7429 17.5355 16.0842 16.9648 16.2655 16.1328C16.2975 15.9941 16.3455 15.8981 16.4095 15.8448C16.4842 15.7915 16.5695 15.7648 16.6655 15.7648H17.5455C17.6415 15.7648 17.7215 15.7968 17.7855 15.8608C17.8602 15.9248 17.8922 16.0048 17.8815 16.1008C17.8602 16.5488 17.7535 16.9861 17.5615 17.4128C17.3695 17.8288 17.0869 18.2075 16.7135 18.5488C16.3509 18.8901 15.8922 19.1621 15.3375 19.3648C14.7829 19.5675 14.1375 19.6688 13.4015 19.6688Z" fill="#B2B2B2"/>
<circle cx="14.001" cy="14" r="13.5" stroke="#B2B2B2"/>
</svg>
