<svg width="140" height="140" viewBox="0 0 140 140" fill="none" xmlns="http://www.w3.org/2000/svg">
<circle cx="70" cy="70" r="46" fill="#242625" fill-opacity="0.8" stroke="#EFEFEF" stroke-width="2"/>
<circle cx="70" cy="70" r="59" fill="#252224" fill-opacity="0.5"/>
<circle cx="70" cy="70" r="70" fill="#252224" fill-opacity="0.3"/>
<path d="M67.5918 49.0332L71.3251 52.7665L75.0585 49.0332" stroke="#EF8E35" stroke-width="3.5" stroke-miterlimit="10" stroke-linecap="round" stroke-linejoin="round"/>
<path d="M71.3252 37.8335V52.6647" stroke="#EF8E35" stroke-width="3.5" stroke-miterlimit="10" stroke-linecap="round" stroke-linejoin="round"/>
<path d="M83.1663 49.7627C83.1663 56.2085 78.7913 61.4294 71.4997 61.4294C64.208 61.4294 59.833 56.2085 59.833 49.7627" stroke="#EF8E35" stroke-width="3.5" stroke-miterlimit="10" stroke-linecap="round" stroke-linejoin="round"/>
<path d="M59.848 98.32C57.8853 98.32 56.2533 97.9573 54.952 97.232C53.672 96.5067 52.7013 95.4933 52.04 94.192C51.3787 92.8907 51.016 91.376 50.952 89.648C50.9307 88.7733 50.92 87.8347 50.92 86.832C50.92 85.8293 50.9307 84.8693 50.952 83.952C51.016 82.224 51.3787 80.7093 52.04 79.408C52.7013 78.1067 53.672 77.0933 54.952 76.368C56.2533 75.6427 57.8853 75.28 59.848 75.28C61.32 75.28 62.6107 75.4827 63.72 75.888C64.8293 76.2933 65.7467 76.8373 66.472 77.52C67.2187 78.2027 67.784 78.9707 68.168 79.824C68.552 80.656 68.7653 81.52 68.808 82.416C68.8293 82.608 68.7653 82.768 68.616 82.896C68.488 83.024 68.328 83.088 68.136 83.088H66.376C66.184 83.088 66.0133 83.0347 65.864 82.928C65.736 82.8213 65.64 82.6293 65.576 82.352C65.2133 80.688 64.5307 79.5467 63.528 78.928C62.5467 78.3093 61.3093 78 59.816 78C58.1093 78 56.7547 78.4907 55.752 79.472C54.7493 80.432 54.2053 81.9787 54.12 84.112C54.056 85.8613 54.056 87.6533 54.12 89.488C54.2053 91.6213 54.7493 93.1787 55.752 94.16C56.7547 95.12 58.1093 95.6 59.816 95.6C61.3093 95.6 62.5467 95.2907 63.528 94.672C64.5307 94.0533 65.2133 92.912 65.576 91.248C65.64 90.9707 65.736 90.7787 65.864 90.672C66.0133 90.5653 66.184 90.512 66.376 90.512H68.136C68.328 90.512 68.488 90.576 68.616 90.704C68.7653 90.832 68.8293 90.992 68.808 91.184C68.7653 92.08 68.552 92.9547 68.168 93.808C67.784 94.64 67.2187 95.3973 66.472 96.08C65.7467 96.7627 64.8293 97.3067 63.72 97.712C62.6107 98.1173 61.32 98.32 59.848 98.32ZM79.2213 98C78.9013 98 78.6453 97.9253 78.4533 97.776C78.2826 97.6267 78.1439 97.424 78.0373 97.168L70.9013 76.592C70.8586 76.464 70.8372 76.3467 70.8372 76.24C70.8372 76.0693 70.9013 75.92 71.0293 75.792C71.1573 75.664 71.3066 75.6 71.4773 75.6H73.1413C73.3973 75.6 73.5893 75.6747 73.7173 75.824C73.8666 75.952 73.9519 76.0693 73.9733 76.176L80.2453 94.32L86.5173 76.176C86.5599 76.0693 86.6453 75.952 86.7733 75.824C86.9013 75.6747 87.0933 75.6 87.3493 75.6H89.0133C89.1839 75.6 89.3333 75.664 89.4613 75.792C89.6106 75.92 89.6853 76.0693 89.6853 76.24C89.6853 76.3467 89.6639 76.464 89.6213 76.592L82.4533 97.168C82.3679 97.424 82.2293 97.6267 82.0373 97.776C81.8666 97.9253 81.6213 98 81.3013 98H79.2213Z" fill="#EF8E35"/>
</svg>
