<svg width="85" height="41" viewBox="0 0 85 41" fill="none" xmlns="http://www.w3.org/2000/svg">
<mask id="mask0_3003_1172" style="mask-type:luminance" maskUnits="userSpaceOnUse" x="0" y="0" width="85" height="41">
<path d="M85 0.5H0V40.5H85V0.5Z" fill="white"/>
</mask>
<g mask="url(#mask0_3003_1172)">
<path d="M84.9986 20.5038L65.029 0.500977L45.0581 20.4966L65.029 40.4994L84.9986 20.5038Z" fill="#6F6E67"/>
<path d="M65.0301 40.4958L85.0002 20.4998L65.029 20.4982L65.0301 40.4958ZM45.0581 20.4966L65.0285 20.4986V0.500977L45.0581 20.4966Z" fill="#353332"/>
<path d="M63.0614 38.5283L63.5357 39.0016H65.0283V40.498L66.9963 38.5283H63.0614ZM60.6067 36.0695H65.0283V37.658H67.8637L70.0044 35.5168L60.055 35.5164L60.6067 36.0695ZM57.067 32.5243L57.6095 33.0678H65.0283V34.6611H70.856L72.9934 32.5243H57.067ZM54.0698 29.5215L54.6129 30.065H65.0283V31.6425H73.8716L75.9901 29.5215H54.0698ZM51.0728 26.519L51.6149 27.0626H65.0283V28.6563H76.8493L78.9868 26.5186L51.0728 26.519ZM47.8991 23.3416L48.6164 24.0598H65.0283V25.6558H79.8476L82.1567 23.3412L47.8991 23.3416ZM65.0283 22.5934H82.9054L84.9985 20.5024L65.0283 20.4992V22.5934ZM47.1521 18.4046L45.0591 20.4952L65.0289 20.4984V18.4042L47.1521 18.4046ZM50.2092 15.3418L47.9002 17.6564H82.1572L81.4393 16.9374H65.0283V15.3418H50.2092ZM53.2085 12.3417L51.0709 14.4786H78.984L78.4421 13.9354H65.0283V12.3417H53.2085ZM56.1856 9.35551L54.0671 11.4766H75.9874L75.4444 10.933H65.0289V9.35551H56.1856ZM59.2007 6.33692L57.0632 8.47378H72.9902L72.4477 7.93016H65.0289V6.33692H59.2007ZM62.193 3.34044L60.0523 5.48123L70.0027 5.48163L69.45 4.92816L65.0283 4.92776V3.34044H62.193ZM63.0603 2.46974H66.9963L66.5221 1.99646H65.0289V0.5L63.0603 2.46974Z" fill="#514F4D"/>
<path d="M13.0238 13.9365C11.7951 14.7045 10.793 15.3393 9.60931 16.0852C8.4257 16.831 7.21599 17.588 5.97986 18.3552V20.9546H15.4412C15.818 20.9546 16.078 20.9984 16.2216 21.0861C16.4852 21.2619 16.6166 21.5543 16.6166 21.964V23.225L5.33793 23.2147V23.2139H3.53401C3.1872 23.1266 3.01401 22.8666 3.01401 22.4356V22.1335H0.345703V23.1705C0.345703 23.9088 0.449024 24.4646 0.656954 24.8376C0.864489 25.2105 1.21686 25.4554 1.714 25.5724L1.7029 25.5613C2.12507 25.6491 2.65263 25.6937 3.28588 25.6937H4.0363H5.33832H20.2946H20.4638H24.1044C24.7373 25.6937 25.2651 25.6494 25.6873 25.5613L25.6763 25.5724C26.1734 25.4554 26.5257 25.2105 26.7332 24.8376C26.9408 24.4646 27.0445 23.9088 27.0445 23.1705V19.9456H24.3758V22.436C24.3758 22.867 24.2022 23.127 23.8558 23.2143H20.4638H20.2946H19.1232V20.955C19.1232 20.195 19.0084 19.63 18.7779 19.261C18.548 18.8916 18.162 18.6633 17.6195 18.5752C17.4459 18.5388 17.2388 18.5116 16.9973 18.493C16.7562 18.4748 16.4852 18.4657 16.1838 18.4657H9.2594L13.7138 15.6696C13.5927 15.3551 13.4803 15.0699 13.3742 14.8143C13.2688 14.5583 13.1516 14.266 13.0238 13.9365ZM33.5396 17.3035V19.76H38.2715C38.593 19.8627 38.7533 20.1294 38.7533 20.5607V22.4582C38.7533 22.89 38.5926 23.1492 38.2715 23.2372H33.5396V25.6941H38.5346C38.8341 25.6941 39.1044 25.6846 39.3451 25.6665C39.5862 25.6483 39.798 25.6206 39.9803 25.5839L39.9697 25.5949C40.2174 25.5365 40.4297 25.4487 40.6049 25.3314C40.7804 25.2145 40.9241 25.0596 41.0373 24.8652C41.1502 24.6717 41.2327 24.4378 41.2839 24.1636C41.3348 23.8894 41.3604 23.5663 41.3604 23.193V19.7923C41.3609 19.054 41.2551 18.5026 41.0432 18.1367C40.8309 17.7713 40.4735 17.5374 39.9697 17.4351C39.5972 17.3473 39.1185 17.3035 38.5346 17.3035H33.5396ZM29.9386 19.9457V26.3625C29.9386 26.6039 29.9134 26.7828 29.8625 26.8998C29.8112 27.0167 29.7236 27.0902 29.5993 27.1198L29.6099 27.1088C29.4857 27.1451 29.2158 27.1633 28.7995 27.1633H28.2298V29.6201H29.7082C30.0152 29.6201 30.2874 29.6106 30.5245 29.5925C30.762 29.5743 30.9751 29.5466 31.1656 29.5107L31.1546 29.5214C31.4032 29.4625 31.6146 29.3748 31.7898 29.2579C31.9646 29.1406 32.1095 28.9857 32.2227 28.7921C32.3355 28.5981 32.4176 28.3639 32.4689 28.0897C32.5198 27.8156 32.5454 27.4924 32.5454 27.1194V19.9457H29.9386ZM20.7456 27.0132V29.6466H23.3523V27.0132H20.7456ZM24.448 27.0132V29.6466H27.0442V27.0132H24.448Z" fill="#545454"/>
<path d="M9.67598 30.041L8.2489 30.5538L8.26785 30.7106L9.68783 30.1974L9.67598 30.041ZM41.102 30.041L39.6753 30.5538L39.6935 30.7106L41.1138 30.1974L41.102 30.041ZM41.2148 30.427L39.7132 30.9678L39.7901 31.4252L40.8716 32.552C40.9217 32.6049 40.9462 32.659 40.9462 32.7151C40.9462 32.8174 40.8688 32.8688 40.7134 32.8688H39.6907C39.396 32.8633 39.2483 32.768 39.2483 32.5836V31.9965H38.8416V33.3006C38.8416 33.474 38.7761 33.6182 38.6451 33.7327C38.5201 33.843 38.3705 33.8983 38.1957 33.8983H37.6359L37.7014 34.3033H38.2277C38.5587 34.3033 38.8167 34.1784 39.0022 33.9295C39.1707 33.7051 39.2551 33.4227 39.2551 33.0818C39.3139 33.1699 39.4114 33.2165 39.5262 33.2437V33.2741H40.7134C40.8909 33.2741 41.0392 33.2299 41.1584 33.141C41.2921 33.0431 41.3596 32.9071 41.3596 32.7341C41.3596 32.5931 41.3218 32.4808 41.2468 32.3963L40.2012 31.2412L41.2713 30.8346L41.2148 30.427ZM9.78881 30.4273L8.28718 30.9682L8.36411 31.4257L9.44556 32.5524C9.49569 32.6053 9.52016 32.6594 9.52016 32.7155C9.52016 32.8178 9.4428 32.8692 9.28774 32.8692H8.31403V32.8668C8.17906 32.8668 8.07765 32.8471 8.00938 32.8079C7.96282 32.7807 7.88946 32.7136 7.78887 32.6061L6.56687 31.3107L6.29347 31.5873L7.21006 32.5634C7.24871 32.6053 7.26847 32.6559 7.26847 32.7151C7.26847 32.8174 7.19468 32.8689 7.04753 32.8689H5.75336L5.81016 33.2738H7.07671C7.2093 33.2738 7.31384 33.254 7.38959 33.2149C7.46533 33.1758 7.54069 33.1019 7.61643 32.9929C7.7932 33.1699 7.95378 33.2607 8.0998 33.2698V33.2734H8.12459H8.31403H9.28774C9.46489 33.2734 9.61323 33.2283 9.73239 33.1398C9.86617 33.0418 9.93358 32.9064 9.93358 32.733C9.93358 32.5927 9.89573 32.4809 9.8208 32.3963L8.77525 31.2416L9.84527 30.8351L9.78881 30.4273ZM6.32979 30.5945C6.13251 30.5945 6.03348 30.6766 6.03348 30.841C6.03348 31.0267 6.13646 31.1191 6.34127 31.1191C6.41977 31.1191 6.48647 31.0919 6.54094 31.0378C6.59616 30.9836 6.62339 30.9176 6.62339 30.841C6.62339 30.6766 6.52589 30.5945 6.32979 30.5945ZM4.84982 30.6652V33.2741H5.24715V30.6652H4.84982ZM14.4962 30.7277V32.6519C14.4962 32.8471 14.5428 32.9881 14.6363 33.0742C14.7503 33.1825 14.9358 33.2441 15.1847 33.2643V33.273C15.2187 33.2726 15.2471 33.2701 15.2794 33.2686C15.307 33.2693 15.3311 33.273 15.3607 33.273V33.265C15.5951 33.2516 15.7678 33.222 15.874 33.1758C16.0061 33.278 16.1584 33.3294 16.332 33.3294C16.5593 33.3294 16.7361 33.2473 16.8624 33.0829C16.9783 32.9344 17.0364 32.7424 17.0364 32.509C17.0364 32.2735 16.9819 32.0771 16.8718 31.9191C16.7452 31.7385 16.5688 31.6481 16.3431 31.6481C15.8705 31.6481 15.6274 31.9281 15.6136 32.4883C15.6092 32.6819 15.6009 32.7858 15.5887 32.8009C15.5587 32.8352 15.4728 32.857 15.3311 32.8649C15.1496 32.8578 15.034 32.8436 14.9977 32.8191C14.9338 32.7772 14.9026 32.6618 14.9026 32.4734V30.7277H14.4962ZM33.2145 31.1144C33.0401 31.1144 32.953 31.189 32.953 31.338C32.953 31.4138 32.9821 31.4743 33.0405 31.5217C33.0949 31.5624 33.1613 31.5825 33.2398 31.5825C33.3104 31.5825 33.3708 31.5592 33.4212 31.5126C33.4718 31.466 33.497 31.4079 33.497 31.3384C33.4966 31.189 33.4027 31.1144 33.2145 31.1144ZM32.4361 31.1151C32.2612 31.1151 32.1741 31.1898 32.1741 31.3387C32.1741 31.4146 32.2033 31.4751 32.262 31.522C32.3157 31.5627 32.3824 31.5829 32.4605 31.5829C32.5316 31.5829 32.5915 31.5596 32.6424 31.513C32.6929 31.4663 32.7182 31.4079 32.7182 31.3387C32.7182 31.1898 32.6239 31.1151 32.4361 31.1151ZM11.2077 31.3107L10.9342 31.5869L11.049 31.7176C10.7346 32.0329 10.5775 32.3082 10.5775 32.5429C10.5775 32.7677 10.6501 32.953 10.7965 33.0991C10.9429 33.2453 11.1276 33.3188 11.352 33.3188C11.6942 33.3188 11.9411 33.1552 12.0954 32.83C12.3377 33.0549 12.4793 33.179 12.5199 33.2034C12.572 33.2334 12.6525 33.25 12.7456 33.2607V33.273H13.6148C13.7864 33.273 13.9277 33.2042 14.0393 33.0675C14.1435 32.9395 14.1952 32.7874 14.1952 32.6109V31.9961H13.7888V32.5559C13.7888 32.6729 13.7663 32.7538 13.7225 32.7997C13.6791 32.8459 13.6005 32.8688 13.4877 32.8688H12.9078V32.8664C12.7799 32.8589 12.6871 32.8379 12.6295 32.8032C12.5996 32.785 12.5318 32.7194 12.4244 32.6064L11.2077 31.3107ZM23.2474 31.3107L22.974 31.5864L23.0887 31.7176C22.7743 32.0324 22.6173 32.3074 22.6173 32.5429C22.6173 32.7673 22.6899 32.9525 22.8363 33.0987C22.9826 33.2449 23.1677 33.3183 23.3918 33.3183C23.7339 33.3183 23.9816 33.1552 24.1351 32.8297C24.3774 33.0545 24.519 33.1785 24.5596 33.203C24.6098 33.2314 24.6839 33.2485 24.7696 33.2595V33.273C24.8189 33.2714 24.8588 33.2706 24.9009 33.2694C24.9183 33.2698 24.9297 33.273 24.9475 33.273V33.2678C25.155 33.2619 25.2778 33.2551 25.3089 33.248C25.4774 33.2073 25.6466 33.1169 25.817 32.9763C25.9855 33.1122 26.139 33.1974 26.2775 33.2318C26.3541 33.2524 26.4882 33.2626 26.6527 33.2678V33.273H27.1696C27.361 33.273 27.5373 33.1797 27.6999 32.9929C27.8849 33.2098 28.0692 33.3183 28.253 33.3183C28.4274 33.3183 28.5924 33.2271 28.7474 33.0441C28.9218 33.2275 29.1049 33.3183 29.2958 33.3183C29.4919 33.3183 29.6406 33.2485 29.7432 33.1082C29.8348 32.9846 29.881 32.8218 29.881 32.6195V31.9953H29.4836V32.6756C29.4836 32.8451 29.3886 32.93 29.1988 32.93C29.1025 32.93 29.0201 32.8988 28.9514 32.8356C28.8828 32.7724 28.8488 32.6938 28.8488 32.5982V31.9961H28.4515V32.6752C28.4515 32.8447 28.3588 32.9296 28.1733 32.9296C28.0755 32.9296 27.9922 32.8988 27.9228 32.8367C27.8537 32.7747 27.8194 32.695 27.8194 32.5982V31.9961H27.4221V32.565C27.4221 32.7677 27.3278 32.8688 27.14 32.8688H26.8082V32.8668C26.5249 32.8668 26.3027 32.8356 26.1422 32.7739C26.3165 32.6641 26.4334 32.5749 26.4922 32.5073C26.5841 32.4003 26.6298 32.264 26.6298 32.098C26.6298 32.0589 26.6177 32.0064 26.594 31.9419C26.5182 31.7456 26.3422 31.648 26.0629 31.648H25.1913C25.0966 31.8349 25.0051 32.0064 24.9179 32.1632L25.4825 32.7195C25.3981 32.804 25.2027 32.8498 24.9092 32.8613C24.8034 32.8514 24.7202 32.8336 24.6697 32.8028C24.6393 32.7846 24.5715 32.7191 24.4642 32.606L23.2474 31.3107ZM34.7868 31.3114L34.5106 31.588L34.6278 31.7192C34.3201 32.0281 34.1658 32.2983 34.1658 32.5306C34.1658 32.7534 34.2368 32.9407 34.3788 33.092C34.5213 33.2429 34.7027 33.3191 34.9241 33.3191C35.138 33.3191 35.3222 33.2504 35.4768 33.1137C35.6382 32.9718 35.7192 32.7953 35.7192 32.5844C35.7192 32.3793 35.6556 32.211 35.5294 32.0798L34.7868 31.3114ZM36.7387 31.6433C36.5066 31.6433 36.3413 31.6859 36.2419 31.7705C36.0809 31.908 36.0004 32.1466 36.0004 32.4876C36.0004 32.8016 36.103 33.0185 36.3074 33.1398C36.4613 33.2302 36.7071 33.2757 37.046 33.2757C37.0385 33.4673 36.9718 33.6186 36.8448 33.73C36.7189 33.8418 36.5592 33.8974 36.3662 33.8974H35.8537L35.9058 34.3024H36.4321C36.7047 34.3024 36.943 34.2076 37.1466 34.0172C37.3506 33.8276 37.4528 33.5969 37.4528 33.3259V32.8146C37.4528 32.4543 37.4212 32.1932 37.3577 32.0324C37.2531 31.7733 37.0476 31.6433 36.7387 31.6433ZM1.97353 31.648C1.76284 31.648 1.59004 31.7167 1.45668 31.8527C1.32292 31.989 1.25547 32.1624 1.25547 32.3718V33.0706H1.8201C1.83825 33.0706 1.8718 33.0758 1.92151 33.0864C2.10655 33.1283 2.19962 33.2168 2.19962 33.3507C2.19962 33.5071 2.13215 33.6403 1.99603 33.7485C1.87017 33.8529 1.72658 33.9046 1.56718 33.9046H1.04317C0.860893 33.9046 0.707081 33.8505 0.580036 33.7414C0.447863 33.6269 0.381527 33.4795 0.381527 33.2985V32.412H0V33.2532C0 33.5364 0.0887741 33.7801 0.266322 33.9832C0.450972 34.1961 0.6834 34.3024 0.961951 34.3024H1.59162C1.79796 34.3024 1.98618 34.2464 2.15624 34.1353C2.44347 33.9465 2.58747 33.6522 2.58747 33.2536C2.58747 32.994 2.4841 32.8249 2.27815 32.7471C2.17122 32.708 1.95778 32.6882 1.63662 32.6882C1.64451 32.4425 1.66067 32.288 1.68671 32.2248C1.74273 32.0949 1.84296 32.03 1.98894 32.03H2.47705L2.46163 31.648H1.97353ZM30.9293 31.6484C30.7036 31.6484 30.543 31.6891 30.4484 31.7705C30.2842 31.908 30.2021 32.147 30.2021 32.4879C30.2021 32.8004 30.3051 33.0165 30.5114 33.1378C30.6697 33.2295 30.9162 33.2761 31.2524 33.2761C31.2449 33.4673 31.1767 33.6186 31.0496 33.7304C30.9214 33.8422 30.7608 33.8979 30.5682 33.8979H30.0562L30.1122 34.3024H30.6361C30.936 34.3024 31.1854 34.2056 31.385 34.012C31.5846 33.8181 31.6845 33.5724 31.6845 33.2741H31.8151H31.9527H32.6847C32.8563 33.2741 32.9975 33.2054 33.1088 33.0683C33.213 32.9403 33.265 32.7882 33.265 32.612V31.9969H32.8587V32.5563C32.8587 32.6724 32.8361 32.7538 32.792 32.8C32.7486 32.8459 32.6708 32.8688 32.5575 32.8688H31.9519H31.8143H31.6837C31.677 32.4804 31.6426 32.2083 31.5795 32.0514C31.4694 31.7824 31.2528 31.6484 30.9293 31.6484ZM19.4069 31.9957V32.565C19.4069 32.7673 19.3125 32.8688 19.1247 32.8688H18.7953C18.5002 32.8629 18.3526 32.7672 18.3526 32.5835V31.9961H17.9458V33.3002C17.9458 33.4736 17.8803 33.6178 17.7494 33.7324C17.6247 33.843 17.4747 33.8979 17.2999 33.8979H16.7401L16.8055 34.3029H17.3319C17.6629 34.3029 17.9209 34.178 18.1064 33.9295C18.2748 33.7047 18.3593 33.4223 18.3593 33.0817C18.4197 33.1714 18.5195 33.218 18.6375 33.2449V33.2737H19.1543C19.3457 33.2737 19.5224 33.1805 19.6845 32.9936C19.8696 33.2109 20.0538 33.3192 20.2377 33.3192C20.4125 33.3192 20.5775 33.2279 20.7321 33.0454C20.9069 33.2279 21.0896 33.3192 21.2806 33.3192C21.4766 33.3192 21.6254 33.2492 21.728 33.109C21.8195 32.9857 21.8656 32.8226 21.8656 32.6207V31.9961H21.4683V32.6756C21.4683 32.8451 21.3732 32.93 21.1835 32.93C21.0872 32.93 21.0047 32.8988 20.9361 32.8356C20.8674 32.7724 20.8336 32.6938 20.8336 32.5982V31.9957H20.4362V32.6752C20.4362 32.8447 20.3439 32.9296 20.158 32.9296C20.0605 32.9296 19.9769 32.8988 19.9075 32.8364C19.8385 32.7744 19.8041 32.695 19.8041 32.5982V31.9957H19.4069ZM3.89427 31.9965V33.2986C3.89427 33.4874 3.81215 33.6352 3.64999 33.7443C3.50992 33.8374 3.34225 33.8844 3.14616 33.8844H2.68811L2.75361 34.3024H3.29574C3.59244 34.3024 3.83739 34.1926 4.0319 33.9722C4.21852 33.7596 4.31171 33.5037 4.31171 33.2038V31.9965H3.89427ZM11.3409 32.021L11.6684 32.3465C11.7198 32.3967 11.7454 32.471 11.7454 32.5701C11.745 32.6732 11.706 32.7578 11.6286 32.825C11.5509 32.8917 11.4605 32.9253 11.3568 32.9253C11.2498 32.9253 11.1615 32.8925 11.0904 32.8273C11.0194 32.7613 10.9839 32.676 10.9839 32.5705C10.9839 32.4662 11.0241 32.3635 11.1039 32.2608C11.135 32.2201 11.2143 32.1403 11.3409 32.021ZM23.3799 32.0214L23.7074 32.3465C23.7587 32.3967 23.7844 32.471 23.7844 32.5701C23.7844 32.6732 23.7453 32.7578 23.6684 32.825C23.5906 32.8918 23.4999 32.9257 23.3957 32.9257C23.2888 32.9257 23.2005 32.8925 23.1294 32.8273C23.0584 32.7617 23.0228 32.676 23.0228 32.5705C23.0228 32.467 23.0631 32.3635 23.1428 32.2612C23.1744 32.2201 23.2533 32.1404 23.3799 32.0214ZM34.9209 32.0226L35.2485 32.3683C35.2927 32.4137 35.3147 32.4777 35.3147 32.5603C35.3147 32.6665 35.2815 32.7546 35.2145 32.8237C35.1474 32.8929 35.0606 32.928 34.9537 32.928C34.8464 32.928 34.7541 32.894 34.676 32.8273C34.5974 32.7605 34.5583 32.6752 34.5583 32.5713C34.5583 32.4354 34.6791 32.2529 34.9209 32.0226ZM25.3534 32.0416H26.0021C26.0412 32.0416 26.0806 32.0526 26.1193 32.0751C26.1659 32.1008 26.1891 32.1316 26.1891 32.1679C26.1887 32.2636 26.0589 32.377 25.7986 32.5097L25.3534 32.0416ZM16.3316 32.0463C16.5648 32.0463 16.6817 32.1932 16.6817 32.4872C16.6817 32.7795 16.5648 32.9257 16.3316 32.9257C16.0937 32.9257 15.9746 32.7846 15.9746 32.503C15.9746 32.1984 16.0937 32.0463 16.3316 32.0463ZM36.7268 32.0487C36.9391 32.0487 37.0456 32.1818 37.0456 32.4477V32.8668C36.8381 32.8668 36.6972 32.8534 36.6235 32.8261C36.4869 32.7776 36.4183 32.6673 36.4183 32.4951C36.4183 32.3485 36.4341 32.2434 36.4652 32.1799C36.511 32.0925 36.5978 32.0487 36.7268 32.0487ZM30.9293 32.0526C31.0374 32.0526 31.1226 32.0989 31.1846 32.1905C31.2383 32.2719 31.2658 32.3694 31.2658 32.482V32.8689C31.0551 32.8689 30.9111 32.8554 30.8346 32.8285C30.6913 32.7799 30.62 32.6697 30.62 32.4983C30.62 32.352 30.6353 32.247 30.6669 32.1838C30.7122 32.0965 30.7995 32.0526 30.9293 32.0526ZM13.0632 33.8276C12.8916 33.8276 12.8064 33.9035 12.8064 34.0536C12.8064 34.1279 12.8356 34.1871 12.894 34.2325C12.948 34.2732 13.0131 34.2938 13.0881 34.2938C13.1591 34.2938 13.2194 34.2709 13.27 34.2254C13.3209 34.18 13.3457 34.1231 13.3457 34.0536C13.3457 33.9031 13.2514 33.8276 13.0632 33.8276ZM13.8424 33.8276C13.6708 33.8276 13.5848 33.9035 13.5848 34.0536C13.5848 34.1279 13.614 34.1871 13.6728 34.2325C13.7268 34.2732 13.792 34.2938 13.8669 34.2938C13.9379 34.2938 13.9979 34.2709 14.0484 34.2254C14.0989 34.18 14.1246 34.1231 14.1246 34.0536C14.1249 33.9031 14.0306 33.8276 13.8424 33.8276Z" fill="#545454"/>
</g>
</svg>
