<svg width="41" height="40" viewBox="0 0 41 40" fill="none" xmlns="http://www.w3.org/2000/svg">
<g clip-path="url(#clip0_2150_10680)">
<path d="M32.1811 0.547852H8.61947C4.38277 0.547852 0.948242 3.98238 0.948242 8.21908V31.7807C0.948242 36.0174 4.38277 39.452 8.61947 39.452H32.1811C36.4178 39.452 39.8524 36.0174 39.8524 31.7807V8.21908C39.8524 3.98238 36.4178 0.547852 32.1811 0.547852Z" fill="#EFEFEF" stroke="#031E28" stroke-width="21.9178"/>
<path d="M20.4001 32.1622H34.3727V14.6613L19.3076 13.5688L20.4001 32.1622Z" fill="#03232E"/>
<path d="M6.42773 14.6613V32.1622H20.4003V13.5688L6.42773 14.6613Z" fill="#07485E"/>
<path d="M20.4001 7.69824L19.3076 11.1797L20.4001 14.6611H34.3727V7.69824H20.4001Z" fill="#B4D2D7"/>
<path d="M6.42773 7.69824H20.4003V14.6611H6.42773V7.69824Z" fill="#E1EBF0"/>
<path d="M9.03906 10.3608H10.7797V11.9983H9.03906V10.3608Z" fill="#FF4A4A"/>
<path d="M12.5205 10.3608H14.2613V11.9983H12.5205V10.3608Z" fill="#FFD422"/>
<path d="M16.002 10.3608H17.7428V11.9983H16.002V10.3608Z" fill="#00CC76"/>
<path d="M15.3525 22.5928H18.5455V24.2302H15.3525V22.5928Z" fill="#FF9F22"/>
<path d="M18.5897 25.8174L19.7474 26.9753L17.4897 29.2329L16.332 28.075L18.5897 25.8174Z" fill="#FF9F22"/>
<path d="M22.2116 25.8174L24.4693 28.075L23.3113 29.2329L21.0537 26.9753L22.2116 25.8174Z" fill="#FF4A4A"/>
<path d="M17.4897 17.5898L19.7474 19.8475L18.5897 21.0054L16.332 18.7478L17.4897 17.5898Z" fill="#FF9F22"/>
<path d="M23.3113 17.5898L24.4693 18.7475L22.2116 21.0052L21.0537 19.8475L23.3113 17.5898Z" fill="#FF4A4A"/>
<path d="M22.2559 22.5928H25.4488V24.2302H22.2559V22.5928Z" fill="#FF4A4A"/>
<path d="M20.4001 18.7114L19.3076 23.4115L20.4001 28.1118C22.0251 28.1118 23.3472 26.7896 23.3472 25.1645V21.6586C23.3472 20.0335 22.0251 18.7114 20.4001 18.7114Z" fill="#FF9F22"/>
<path d="M17.4531 21.6588V25.1645C17.4531 26.7898 18.7752 28.1118 20.4003 28.1118V18.7114C18.7752 18.7114 17.4531 20.0335 17.4531 21.6588Z" fill="#FFD422"/>
</g>
<defs>
<clipPath id="clip0_2150_10680">
<rect width="40" height="40" fill="white" transform="translate(0.400391)"/>
</clipPath>
</defs>
</svg>
