<svg width="24" height="24" viewBox="0 0 24 24" fill="none" xmlns="http://www.w3.org/2000/svg">
<path d="M12.8262 12.0005C12.8262 10.067 14.3547 8.50098 16.2387 8.50098C18.1242 8.50098 19.6512 10.0655 19.6512 12.0005C19.6512 13.934 18.1242 15.5 16.2387 15.5C14.3562 15.5 12.8262 13.9355 12.8262 12.0005Z" fill="#1ABCFE"/>
<path d="M6.00098 19C6.00098 17.0665 7.52948 15.499 9.41348 15.499H12.826V19C12.826 20.932 11.2975 22.4995 9.41348 22.4995C7.52948 22.4995 6.00098 20.932 6.00098 19Z" fill="#0ACF83"/>
<path d="M12.8262 1.5V8.5005H16.2387C18.1242 8.5005 19.6512 6.933 19.6512 4.9995C19.6512 3.0675 18.1242 1.5 16.2387 1.5H12.8262Z" fill="#FF7262"/>
<path d="M6.00098 4.9995C6.00098 6.933 7.52948 8.5005 9.41348 8.5005H12.826V1.5H9.41348C7.52948 1.5 6.00098 3.0675 6.00098 4.9995Z" fill="#F24E1E"/>
<path d="M6.00098 12.0005C6.00098 13.934 7.52948 15.5 9.41348 15.5H12.826V8.50098H9.41348C7.52948 8.50098 6.00098 10.0655 6.00098 12.0005Z" fill="#A259FF"/>
</svg>
