<svg width="41" height="40" viewBox="0 0 41 40" fill="none" xmlns="http://www.w3.org/2000/svg">
<g clip-path="url(#clip0_2150_10719)">
<mask id="mask0_2150_10719" style="mask-type:luminance" maskUnits="userSpaceOnUse" x="0" y="0" width="41" height="40">
<path d="M0.799805 0.0493164H40.7507V40.0002H0.799805V0.0493164Z" fill="white"/>
</mask>
<g mask="url(#mask0_2150_10719)">
<path d="M39.9977 18.2457L22.5542 0.803527C22.3152 0.564423 22.0315 0.374746 21.7192 0.245336C21.4069 0.115925 21.0722 0.0493164 20.7342 0.0493164C20.3961 0.0493164 20.0614 0.115925 19.7491 0.245336C19.4368 0.374746 19.1531 0.564423 18.9142 0.803527L15.2933 4.42614L19.8872 9.02005C20.4273 8.83663 21.008 8.80799 21.5635 8.93738C22.119 9.06677 22.6272 9.34903 23.0307 9.75222C23.4364 10.1583 23.7196 10.6704 23.8479 11.23C23.9763 11.7895 23.9445 12.3738 23.7563 12.9161L28.1855 17.344C28.7279 17.1556 29.3125 17.1238 29.8722 17.2524C30.4319 17.381 30.944 17.6646 31.3498 18.0709C31.6341 18.3552 31.8596 18.6926 32.0135 19.064C32.1673 19.4354 32.2465 19.8335 32.2465 20.2355C32.2465 20.6375 32.1673 21.0356 32.0135 21.407C31.8596 21.7784 31.6341 22.1158 31.3498 22.4C30.7751 22.9742 29.9959 23.2967 29.1835 23.2967C28.3711 23.2967 27.592 22.9742 27.0172 22.4C26.5903 21.9724 26.2994 21.428 26.1811 20.8353C26.0629 20.2427 26.1227 19.6284 26.3529 19.0696L22.2224 14.9405V25.8087C22.6584 26.0241 23.0368 26.3402 23.3262 26.7309C23.6157 27.1216 23.8079 27.5757 23.887 28.0555C23.966 28.5353 23.9296 29.027 23.7808 29.4899C23.6319 29.9528 23.375 30.3736 23.0311 30.7174C22.7469 31.0017 22.4094 31.2272 22.038 31.3811C21.6666 31.535 21.2686 31.6142 20.8666 31.6142C20.4646 31.6142 20.0665 31.535 19.6951 31.3811C19.3237 31.2272 18.9862 31.0017 18.702 30.7174C18.4176 30.4332 18.1921 30.0957 18.0382 29.7243C17.8843 29.3528 17.8051 28.9547 17.8051 28.5527C17.8051 28.1506 17.8843 27.7525 18.0382 27.381C18.1921 27.0096 18.4176 26.6721 18.702 26.3879C18.9884 26.1009 19.3289 25.8734 19.7037 25.7187V14.7505C19.3304 14.5967 18.9912 14.3707 18.7055 14.0855C18.4198 13.8002 18.1933 13.4613 18.039 13.0883C17.8846 12.7152 17.8055 12.3153 17.8062 11.9116C17.8069 11.5079 17.8873 11.1082 18.0429 10.7357L13.5133 6.20527L1.55156 18.164C1.06954 18.6469 0.798828 19.3014 0.798828 19.9837C0.798828 20.6661 1.06954 21.3206 1.55156 21.8035L18.9959 39.2479C19.4789 39.7298 20.1332 40.0004 20.8155 40.0004C21.4977 40.0004 22.1521 39.7298 22.635 39.2479L39.9977 21.8853C40.4797 21.4023 40.7504 20.7478 40.7504 20.0655C40.7504 19.3831 40.4797 18.7287 39.9977 18.2457Z" fill="#F03C2E"/>
</g>
</g>
<defs>
<clipPath id="clip0_2150_10719">
<rect width="40" height="40" fill="white" transform="translate(0.799805)"/>
</clipPath>
</defs>
</svg>
