<svg width="24" height="24" viewBox="0 0 24 24" fill="none" xmlns="http://www.w3.org/2000/svg">
<g clip-path="url(#clip0_3093_6725)">
<mask id="mask0_3093_6725" style="mask-type:luminance" maskUnits="userSpaceOnUse" x="0" y="0" width="24" height="24">
<path d="M0.000976562 0.0292969H23.9715V23.9998H0.000976562V0.0292969Z" fill="white"/>
</mask>
<g mask="url(#mask0_3093_6725)">
<path d="M23.5193 10.9471L13.0532 0.481823C12.9098 0.338361 12.7396 0.224555 12.5522 0.146908C12.3649 0.0692619 12.164 0.0292969 11.9612 0.0292969C11.7584 0.0292969 11.5576 0.0692619 11.3702 0.146908C11.1828 0.224555 11.0126 0.338361 10.8692 0.481823L8.69668 2.65539L11.453 5.41174C11.7771 5.30168 12.1255 5.2845 12.4588 5.36213C12.7921 5.43977 13.097 5.60912 13.3391 5.85104C13.5825 6.09471 13.7525 6.40197 13.8295 6.73768C13.9065 7.07339 13.8874 7.42399 13.7745 7.74939L16.432 10.4061C16.7575 10.293 17.1082 10.274 17.444 10.3511C17.7798 10.4283 18.0871 10.5985 18.3306 10.8423C18.5012 11.0128 18.6365 11.2153 18.7288 11.4381C18.8211 11.661 18.8686 11.8998 18.8686 12.141C18.8686 12.3822 18.8211 12.621 18.7288 12.8439C18.6365 13.0667 18.5012 13.2692 18.3306 13.4397C17.9858 13.7842 17.5183 13.9777 17.0308 13.9777C16.5434 13.9777 16.0759 13.7842 15.731 13.4397C15.4749 13.1831 15.3003 12.8565 15.2294 12.5009C15.1585 12.1453 15.1943 11.7767 15.3324 11.4415L12.8542 8.964V15.485C13.1157 15.6142 13.3428 15.8038 13.5164 16.0383C13.6901 16.2727 13.8055 16.5451 13.8529 16.833C13.9003 17.1209 13.8785 17.4159 13.7892 17.6936C13.6999 17.9714 13.5457 18.2239 13.3394 18.4302C13.1688 18.6007 12.9664 18.7361 12.7435 18.8284C12.5207 18.9207 12.2818 18.9682 12.0406 18.9682C11.7994 18.9682 11.5606 18.9207 11.3378 18.8284C11.1149 18.7361 10.9124 18.6007 10.7419 18.4302C10.5713 18.2596 10.4359 18.0571 10.3436 17.8343C10.2513 17.6114 10.2037 17.3725 10.2037 17.1313C10.2037 16.8901 10.2513 16.6512 10.3436 16.4283C10.4359 16.2055 10.5713 16.003 10.7419 15.8324C10.9138 15.6602 11.118 15.5238 11.3429 15.431V8.85C11.119 8.75774 10.9154 8.62214 10.744 8.45099C10.5726 8.27983 10.4367 8.0765 10.3441 7.85266C10.2515 7.62882 10.204 7.38889 10.2044 7.14666C10.2048 6.90442 10.2531 6.66466 10.3464 6.44113L7.62868 3.72287L0.451641 10.8981C0.162429 11.1879 0 11.5805 0 11.99C0 12.3994 0.162429 12.792 0.451641 13.0818L10.9183 23.5484C11.208 23.8376 11.6006 23.9999 12.01 23.9999C12.4193 23.9999 12.812 23.8376 13.1017 23.5484L23.5193 13.1309C23.8085 12.8411 23.9709 12.4484 23.9709 12.039C23.9709 11.6296 23.8085 11.2369 23.5193 10.9471Z" fill="#EF8E35"/>
</g>
</g>
<defs>
<clipPath id="clip0_3093_6725">
<rect width="24" height="24" fill="white" transform="translate(0.000976562)"/>
</clipPath>
</defs>
</svg>
