<svg width="25" height="25" viewBox="0 0 25 25" fill="none" xmlns="http://www.w3.org/2000/svg">
<g clip-path="url(#clip0_2346_4177)">
<mask id="mask0_2346_4177" style="mask-type:luminance" maskUnits="userSpaceOnUse" x="0" y="0" width="24" height="25">
<path d="M0.0234375 0.520508H23.994V24.491H0.0234375V0.520508Z" fill="white"/>
</mask>
<g mask="url(#mask0_2346_4177)">
<path d="M23.5418 11.4383L13.0757 0.973034C12.9323 0.829572 12.7621 0.715766 12.5747 0.638119C12.3873 0.560473 12.1865 0.520508 11.9837 0.520508C11.7808 0.520508 11.58 0.560473 11.3926 0.638119C11.2053 0.715766 11.035 0.829572 10.8917 0.973034L8.71915 3.1466L11.4755 5.90295C11.7996 5.79289 12.1479 5.77571 12.4813 5.85335C12.8146 5.93098 13.1195 6.10033 13.3616 6.34225C13.605 6.58592 13.7749 6.89318 13.8519 7.22889C13.9289 7.5646 13.9099 7.9152 13.797 8.2406L16.4545 10.8973C16.7799 10.7842 17.1307 10.7652 17.4665 10.8424C17.8023 10.9195 18.1096 11.0897 18.3531 11.3335C18.5236 11.504 18.6589 11.7065 18.7513 11.9293C18.8436 12.1522 18.8911 12.391 18.8911 12.6322C18.8911 12.8734 18.8436 13.1123 18.7513 13.3351C18.6589 13.5579 18.5236 13.7604 18.3531 13.9309C18.0082 14.2754 17.5407 14.4689 17.0533 14.4689C16.5658 14.4689 16.0983 14.2754 15.7535 13.9309C15.4973 13.6744 15.3228 13.3477 15.2519 12.9921C15.1809 12.6365 15.2168 12.2679 15.3549 11.9327L12.8766 9.45521V15.9762C13.1382 16.1054 13.3652 16.2951 13.5389 16.5295C13.7126 16.7639 13.8279 17.0363 13.8753 17.3242C13.9228 17.6121 13.9009 17.9071 13.8116 18.1849C13.7223 18.4626 13.5681 18.7151 13.3618 18.9214C13.1913 19.092 12.9888 19.2273 12.766 19.3196C12.5431 19.4119 12.3043 19.4594 12.0631 19.4594C11.8219 19.4594 11.5831 19.4119 11.3602 19.3196C11.1374 19.2273 10.9349 19.092 10.7644 18.9214C10.5938 18.7508 10.4584 18.5483 10.3661 18.3255C10.2737 18.1026 10.2262 17.8637 10.2262 17.6225C10.2262 17.3813 10.2737 17.1424 10.3661 16.9195C10.4584 16.6967 10.5938 16.4942 10.7644 16.3236C10.9362 16.1514 11.1405 16.015 11.3654 15.9222V9.34121C11.1414 9.24895 10.9379 9.11335 10.7665 8.9422C10.595 8.77104 10.4591 8.56771 10.3665 8.34387C10.2739 8.12003 10.2265 7.8801 10.2269 7.63787C10.2273 7.39564 10.2755 7.15587 10.3689 6.93234L7.65115 4.21408L0.474102 11.3893C0.18489 11.6791 0.0224609 12.0718 0.0224609 12.4812C0.0224609 12.8906 0.18489 13.2833 0.474102 13.573L10.9407 24.0396C11.2305 24.3288 11.6231 24.4912 12.0325 24.4912C12.4418 24.4912 12.8344 24.3288 13.1242 24.0396L23.5418 13.6221C23.831 13.3323 23.9934 12.9396 23.9934 12.5302C23.9934 12.1208 23.831 11.7281 23.5418 11.4383Z" fill="white"/>
</g>
</g>
<defs>
<clipPath id="clip0_2346_4177">
<rect width="24" height="24" fill="white" transform="translate(0.0234375 0.491211)"/>
</clipPath>
</defs>
</svg>
