<svg width="183" height="57" viewBox="0 0 183 57" fill="none" xmlns="http://www.w3.org/2000/svg">
<path d="M116.546 37.7042C116.489 37.6469 116.46 37.561 116.403 37.5038C116.346 37.4179 116.288 37.332 116.231 37.2175C116.174 37.1316 116.116 37.0171 116.059 36.9312C116.03 36.8739 116.002 36.8167 115.973 36.7594C115.944 36.7308 115.944 36.6735 115.916 36.6449C115.858 36.559 115.83 36.4445 115.772 36.3586C115.715 36.2441 115.686 36.1582 115.629 36.0437C115.629 36.0437 115.629 36.0151 115.601 36.0151L108.035 18.1221H106.516L96.458 40.3667H98.206L101.072 34.1256H110.098L110.872 36.0151C111.417 37.3034 112.047 38.2481 112.821 38.878C113.566 39.5078 114.368 39.9086 115.171 40.109C116.002 40.3094 116.775 40.3953 117.52 40.3953C117.778 40.3953 118.065 40.3667 118.38 40.338C118.695 40.3094 118.953 40.2521 119.154 40.2235L119.269 40.1949C118.208 39.5937 117.234 38.6776 116.546 37.7042ZM101.817 32.6083L105.743 23.7906L109.468 32.6083H101.817Z" fill="#777777"/>
<path d="M93.9935 40.2522C93.8788 40.3094 93.7356 40.3094 93.6209 40.338C93.535 40.338 93.449 40.3667 93.363 40.3667C93.2197 40.3667 93.0765 40.3953 92.9332 40.3953H90.3254C89.5231 40.3953 88.9213 40.2808 88.4914 39.9945C88.0616 39.7368 87.7464 39.2788 87.5744 38.6489C87.4025 38.0191 87.3165 37.1316 87.3165 36.0151V29.6022H78.2038V40.3953H73.8193V18.1221H78.2038V28.0849H87.3165V18.1221H91.7009V35.9865C91.7009 36.8453 91.7583 37.7615 92.1881 38.5344C92.5893 39.2788 93.2771 39.8227 93.9935 40.2522Z" fill="#777777"/>
<path d="M137.58 17.8359C137.58 17.8932 137.551 17.9218 137.522 17.9791C137.522 18.0077 137.494 18.0363 137.494 18.065C137.465 18.0936 137.465 18.1509 137.436 18.1795C137.35 18.3513 137.236 18.5517 137.093 18.6948C136.978 18.8379 136.835 18.9811 136.663 19.0956C136.29 19.3819 135.803 19.5823 135.287 19.6109H135.001H133.883H129.585H127.177V28.2282H134.599V29.7455H127.177V40.3668H122.793V26.7681V18.0936H135.001C135.316 18.0936 135.631 18.0936 135.975 18.0936C136.29 18.0936 136.605 18.0936 136.892 18.065C137.15 18.065 137.379 17.9791 137.58 17.8359Z" fill="#777777"/>
<path d="M158.212 37.7902C158.212 38.0765 158.155 38.3342 158.069 38.5919V38.6205C157.926 38.9926 157.725 39.3076 157.438 39.5939C156.951 40.0805 156.264 40.3955 155.518 40.3955H154.802H153.312H149.845H142.451V18.1222H154.63H155.49C155.576 18.1222 155.633 18.1222 155.719 18.1222H155.891C156.149 18.1222 156.35 18.0936 156.521 18.0936C156.607 18.0936 156.722 18.065 156.808 18.0363C156.951 18.0077 157.066 17.9218 157.181 17.8359C157.181 17.8932 157.152 17.9218 157.123 17.9791C157.123 18.0077 157.123 18.0077 157.095 18.0363C157.095 18.065 157.066 18.065 157.066 18.0936C157.037 18.1222 157.037 18.1795 157.009 18.2367C156.923 18.4085 156.808 18.6089 156.665 18.7521C156.235 19.2674 155.604 19.6109 154.859 19.6682H146.778V28.1137H155.547V29.631H146.778V38.9068C147.151 38.9068 147.81 38.9068 148.584 38.9068H155.776H156.235H156.407C156.464 38.9068 156.493 38.9068 156.55 38.9068C157.037 38.8781 157.496 38.6491 157.811 38.3342C158.012 38.1338 158.126 37.9906 158.212 37.7902Z" fill="#777777"/>
<path d="M181.797 37.7615C181.797 38.0478 181.739 38.3055 181.653 38.5345V38.5632C181.51 38.9353 181.31 39.2789 181.023 39.5365C180.564 39.9946 179.934 40.2809 179.246 40.3095H176.409C176.381 40.3095 176.352 40.3095 176.323 40.3095C176.037 40.3095 167.984 40.3381 163.772 40.3381C162.282 40.3381 161.25 40.3381 161.25 40.3381L162.11 38.9926L162.597 38.2196L165.663 33.41L166.58 31.9499L167.898 29.86L168.901 28.314L170.048 26.5104L172.827 22.1016L173.773 20.6129L174.317 19.754L174.375 19.6681H173.572C173.343 19.6681 173.085 19.6681 172.827 19.6681C172.34 19.6681 171.824 19.6681 171.222 19.6681C171.022 19.6681 170.821 19.6681 170.621 19.6681C170.133 19.6681 169.675 19.6681 169.188 19.6395H166.895H165.52H164.517C163.858 19.6109 163.285 19.3246 162.855 18.8952C162.797 18.8379 162.74 18.7806 162.683 18.6947C162.54 18.523 162.425 18.3512 162.339 18.1508C162.31 18.0935 162.31 18.0649 162.282 18.0077C162.282 17.979 162.282 17.979 162.253 17.9504C162.253 17.9218 162.253 17.9218 162.224 17.8931C162.196 17.8359 162.196 17.8073 162.167 17.75C162.282 17.8359 162.425 17.8931 162.568 17.9504C162.654 17.979 162.769 17.979 162.855 18.0077C163.027 18.0363 163.256 18.0363 163.514 18.0363H163.686C163.772 18.0363 163.829 18.0363 163.915 18.0363H164.46C164.488 18.0363 164.488 18.0363 164.517 18.0363H164.775H169.245H180.478L179.619 19.4391L178.644 20.9564L177.355 23.0177L174.203 27.9991L173.228 29.5165L172.827 30.1176L170.048 34.4692L169.016 36.1011L167.297 38.7922H179.418H179.877H180.049C180.135 38.7922 180.192 38.7922 180.278 38.7922C180.736 38.7349 181.166 38.5345 181.481 38.2196C181.596 38.1051 181.711 37.962 181.797 37.7615Z" fill="#777777"/>
<g opacity="0.4">
<path d="M76.3692 49.0413H73.4463V48.0679H80.4671V49.0413H77.5442V56.8283H76.3692V49.0413Z" fill="#101A29"/>
<path d="M95.999 50.4726H96.9733V51.8182H97.002C97.2599 51.3029 97.5751 50.9307 97.9477 50.673C98.3202 50.4154 98.7787 50.3009 99.3518 50.3295V51.446C98.922 51.446 98.5781 51.5033 98.2915 51.6178C98.005 51.7323 97.7471 51.9041 97.5751 52.1331C97.4032 52.3621 97.2599 52.6198 97.1739 52.9347C97.088 53.2496 97.0593 53.6218 97.0593 54.0226V56.8569H96.0277V50.4726H95.999Z" fill="#101A29"/>
<path d="M120.529 56.8285C120.443 56.8571 120.329 56.9144 120.214 56.943C120.099 56.9717 119.956 57.0003 119.784 57.0003C119.526 57.0003 119.297 56.9144 119.125 56.7713C118.953 56.6281 118.896 56.3704 118.896 56.0269C118.609 56.3704 118.265 56.6281 117.893 56.7713C117.52 56.9144 117.09 57.0003 116.661 57.0003C116.374 57.0003 116.087 56.9717 115.83 56.9144C115.572 56.8571 115.342 56.7426 115.17 56.5995C114.97 56.4563 114.827 56.2846 114.712 56.0555C114.597 55.8265 114.54 55.5688 114.54 55.2253C114.54 54.8531 114.597 54.5668 114.712 54.3378C114.827 54.1088 114.999 53.937 115.199 53.7939C115.4 53.6507 115.629 53.5362 115.887 53.4789C116.145 53.3931 116.403 53.3358 116.689 53.2785C116.976 53.2213 117.262 53.1927 117.52 53.1354C117.778 53.0781 118.007 53.0781 118.208 53.0209C118.409 52.9636 118.552 52.8777 118.667 52.7918C118.781 52.6773 118.839 52.5342 118.839 52.3338C118.839 52.1048 118.81 51.933 118.724 51.7898C118.638 51.6467 118.523 51.5322 118.409 51.4749C118.265 51.389 118.122 51.3604 117.95 51.3318C117.778 51.3032 117.606 51.3031 117.463 51.3031C117.033 51.3031 116.661 51.389 116.345 51.5608C116.03 51.7326 115.887 52.0475 115.858 52.5056H114.827C114.855 52.1048 114.913 51.7898 115.085 51.5036C115.228 51.2459 115.428 51.0169 115.686 50.8451C115.944 50.6733 116.202 50.5588 116.546 50.4729C116.89 50.387 117.205 50.3584 117.549 50.3584C117.836 50.3584 118.122 50.387 118.409 50.4157C118.695 50.4443 118.953 50.5302 119.182 50.6733C119.412 50.7878 119.584 50.9882 119.727 51.2173C119.87 51.4463 119.927 51.7326 119.927 52.1048V55.3684C119.927 55.6261 119.927 55.7979 119.985 55.9124C120.013 56.0269 120.099 56.0842 120.271 56.0842C120.357 56.0842 120.472 56.0555 120.587 56.0269V56.8285H120.529ZM118.839 53.5648C118.753 53.6221 118.609 53.6793 118.466 53.7366C118.323 53.7652 118.151 53.8225 118.007 53.8511C117.836 53.8797 117.664 53.9084 117.492 53.937C117.32 53.9656 117.119 53.9943 116.947 54.0229C116.775 54.0515 116.603 54.1088 116.46 54.1374C116.317 54.1947 116.173 54.2519 116.059 54.3378C115.944 54.4237 115.858 54.5382 115.772 54.6527C115.715 54.7959 115.658 54.939 115.658 55.1394C115.658 55.3112 115.686 55.4543 115.772 55.5688C115.83 55.6834 115.944 55.7979 116.03 55.8551C116.116 55.9124 116.259 55.9696 116.431 56.0269C116.575 56.0555 116.747 56.0842 116.89 56.0842C117.234 56.0842 117.52 56.0269 117.778 55.941C118.036 55.8551 118.237 55.7406 118.38 55.5975C118.523 55.4543 118.638 55.3112 118.724 55.1394C118.81 54.9676 118.839 54.8245 118.839 54.6527V53.5648Z" fill="#101A29"/>
<path d="M141.935 56.8283H140.903V55.9694H140.875C140.703 56.313 140.445 56.5706 140.072 56.7424C139.7 56.9142 139.298 56.9714 138.84 56.9714C138.353 56.9714 137.923 56.8856 137.55 56.7138C137.178 56.542 136.891 56.2843 136.633 55.9694C136.375 55.6545 136.204 55.311 136.089 54.9102C135.974 54.5094 135.917 54.0799 135.917 53.6219C135.917 53.1638 135.974 52.7344 136.089 52.3622C136.204 51.9614 136.375 51.6178 136.633 51.3029C136.863 50.988 137.178 50.759 137.55 50.5872C137.923 50.4154 138.353 50.3296 138.811 50.3296C138.983 50.3296 139.155 50.3582 139.327 50.3868C139.528 50.4154 139.7 50.4727 139.9 50.5586C140.101 50.6445 140.273 50.7303 140.445 50.8735C140.617 50.988 140.76 51.1598 140.875 51.3602H140.903V48.0679H141.935V56.8283ZM137.149 54.5952C137.235 54.8815 137.35 55.1392 137.493 55.3396C137.665 55.5686 137.866 55.7404 138.095 55.8549C138.353 55.9981 138.639 56.0553 138.983 56.0553C139.327 56.0553 139.642 55.9981 139.872 55.8549C140.13 55.7118 140.33 55.54 140.473 55.311C140.617 55.0819 140.731 54.8243 140.817 54.538C140.875 54.2517 140.932 53.9654 140.932 53.6791C140.932 53.3642 140.903 53.0779 140.817 52.763C140.731 52.4481 140.617 52.2191 140.473 51.99C140.301 51.761 140.101 51.5892 139.843 51.4461C139.585 51.3029 139.27 51.2457 138.926 51.2457C138.553 51.2457 138.267 51.3029 138.009 51.4461C137.78 51.5892 137.579 51.761 137.436 51.99C137.293 52.2191 137.178 52.4767 137.121 52.763C137.063 53.0493 137.035 53.3642 137.035 53.6791C137.035 54.0227 137.063 54.309 137.149 54.5952Z" fill="#101A29"/>
<path d="M163.743 54.8241C163.599 55.5399 163.284 56.0552 162.826 56.4274C162.367 56.7995 161.765 56.9713 161.02 56.9713C160.505 56.9713 160.075 56.8854 159.702 56.7136C159.33 56.5419 159.014 56.3128 158.756 56.0265C158.499 55.7403 158.298 55.3681 158.183 54.9673C158.069 54.5665 157.983 54.1084 157.954 53.6217C157.954 53.135 158.04 52.7056 158.183 52.3048C158.327 51.904 158.527 51.5604 158.814 51.2455C159.072 50.9592 159.387 50.7302 159.759 50.5584C160.132 50.3867 160.533 50.3008 160.963 50.3008C161.536 50.3008 161.995 50.4153 162.367 50.6443C162.74 50.8734 163.026 51.1883 163.256 51.5318C163.485 51.8754 163.628 52.2762 163.714 52.7056C163.8 53.135 163.829 53.5358 163.829 53.908H159.072C159.072 54.1943 159.1 54.452 159.158 54.7096C159.215 54.9673 159.358 55.1677 159.502 55.3681C159.673 55.5685 159.874 55.7116 160.132 55.8261C160.39 55.9407 160.676 55.9979 161.02 55.9979C161.45 55.9979 161.823 55.8834 162.109 55.683C162.396 55.4826 162.596 55.1677 162.682 54.7382H163.743V54.8241ZM162.74 53.0492C162.711 52.7915 162.654 52.5625 162.568 52.3621C162.482 52.1617 162.339 51.9613 162.195 51.7895C162.023 51.6177 161.851 51.5032 161.622 51.4173C161.393 51.3314 161.164 51.2742 160.906 51.2742C160.648 51.2742 160.39 51.3314 160.161 51.4173C159.931 51.5032 159.759 51.6463 159.588 51.8181C159.416 51.9899 159.301 52.1617 159.215 52.3907C159.129 52.6197 159.072 52.8488 159.043 53.0778H162.74V53.0492Z" fill="#101A29"/>
<path d="M179.647 50.4726H180.622V51.8182H180.65C180.908 51.3029 181.224 50.9307 181.596 50.673C181.969 50.4154 182.427 50.3009 183 50.3295V51.446C182.57 51.446 182.227 51.5033 181.94 51.6178C181.653 51.7323 181.396 51.9041 181.224 52.1331C181.052 52.3621 180.908 52.6198 180.822 52.9347C180.736 53.2496 180.708 53.6218 180.708 54.0226V56.8569H179.676V50.4726H179.647Z" fill="#101A29"/>
</g>
<path d="M38.6857 31.2627V56.3702H22.3516V45.1763C28.3121 41.1683 33.7855 36.5018 38.6857 31.2627Z" fill="#B27E11"/>
<path d="M18.9421 47.3521V56.3415H0.31543H0.344088C0.458714 56.3129 0.573338 56.2842 0.687964 56.2556C6.36194 54.1371 13.8413 50.4726 18.9421 47.3521Z" fill="#B27E11"/>
<path d="M58.4022 0V54.6238C58.4022 55.5686 57.6285 56.3415 56.6828 56.3415H42.0967V27.3978C48.7736 19.4103 54.1324 9.93421 57.8291 0.0286306H58.4022V0Z" fill="#B27E11"/>
<path d="M55.3069 0C46.1942 25.7087 25.7621 46.0924 0 55.1105V1.8895C0 0.830238 0.859691 0 1.89132 0H55.3069Z" fill="url(#paint0_linear_2265_5589)"/>
<defs>
<linearGradient id="paint0_linear_2265_5589" x1="33.5735" y1="34.3593" x2="2.63031" y2="-1.27108" gradientUnits="userSpaceOnUse">
<stop stop-color="#C6982E"/>
<stop offset="0.0764325" stop-color="#CFA43C"/>
<stop offset="0.3527" stop-color="#EDCD69"/>
<stop offset="0.4916" stop-color="#F8DD7B"/>
<stop offset="0.5984" stop-color="#F8DF7F"/>
<stop offset="0.7133" stop-color="#FAE48C"/>
<stop offset="0.8321" stop-color="#FBEDA2"/>
<stop offset="0.9527" stop-color="#FEFAC0"/>
<stop offset="0.9916" stop-color="#FFFFCB"/>
</linearGradient>
</defs>
</svg>
