<svg width="131" height="41" viewBox="0 0 131 41" fill="none" xmlns="http://www.w3.org/2000/svg">
<path d="M83.1257 26.9586C83.085 26.9185 83.0647 26.8582 83.024 26.818C82.9832 26.7577 82.9425 26.6975 82.9018 26.6171C82.8611 26.5568 82.8204 26.4765 82.7797 26.4162C82.7593 26.376 82.739 26.3358 82.7186 26.2957C82.6982 26.2756 82.6982 26.2354 82.6779 26.2153C82.6372 26.155 82.6168 26.0747 82.5761 26.0144C82.5354 25.934 82.515 25.8738 82.4743 25.7934C82.4743 25.7934 82.4743 25.7733 82.454 25.7733L77.0797 13.2168H76.0008L68.8555 28.827H70.0972L72.1329 24.4473H78.5454L79.0951 25.7733C79.4818 26.6774 79.9297 27.3404 80.4793 27.7823C81.0086 28.2243 81.5786 28.5056 82.1486 28.6462C82.739 28.7869 83.2886 28.8471 83.8179 28.8471C84.0011 28.8471 84.2047 28.827 84.4286 28.807C84.6525 28.7869 84.8357 28.7467 84.9782 28.7266L85.0597 28.7065C84.3064 28.2846 83.6143 27.6417 83.1257 26.9586ZM72.6622 23.3825L75.4511 17.1947L78.0976 23.3825H72.6622Z" fill="#545454"/>
<path d="M67.1048 28.7467C67.0234 28.7869 66.9216 28.7869 66.8401 28.807C66.7791 28.807 66.718 28.827 66.6569 28.827C66.5551 28.827 66.4534 28.8471 66.3516 28.8471H64.4991C63.9291 28.8471 63.5016 28.7668 63.1962 28.5659C62.8909 28.3851 62.667 28.0636 62.5448 27.6216C62.4227 27.1796 62.3616 26.5568 62.3616 25.7733V21.2731H55.8881V28.8471H52.7734V13.2168H55.8881V20.2083H62.3616V13.2168H65.4762V25.7532C65.4762 26.3559 65.5169 26.9988 65.8223 27.5413C66.1073 28.0636 66.5959 28.4453 67.1048 28.7467Z" fill="#545454"/>
<path d="M98.0677 13.0166C98.0677 13.0568 98.0474 13.0769 98.027 13.1171C98.027 13.1371 98.0066 13.1572 98.0066 13.1773C97.9863 13.1974 97.9863 13.2376 97.9659 13.2577C97.9049 13.3782 97.8234 13.5189 97.7216 13.6193C97.6402 13.7198 97.5384 13.8202 97.4163 13.9006C97.1516 14.1015 96.8056 14.2421 96.4391 14.2622H96.2356H95.4416H92.3881H90.6781V20.3094H95.9506V21.3742H90.6781V28.8277H87.5635V19.2848V13.1974H96.2356C96.4595 13.1974 96.6834 13.1974 96.9277 13.1974C97.1516 13.1974 97.3756 13.1974 97.5791 13.1773C97.7624 13.1773 97.9252 13.1171 98.0677 13.0166Z" fill="#545454"/>
<path d="M112.725 27.0196C112.725 27.2205 112.684 27.4013 112.623 27.5822V27.6022C112.521 27.8634 112.379 28.0844 112.175 28.2853C111.829 28.6269 111.34 28.8478 110.811 28.8478H110.302H109.244H106.78H101.528V13.2175H110.18H110.791C110.852 13.2175 110.893 13.2175 110.954 13.2175H111.076C111.259 13.2175 111.401 13.1974 111.524 13.1974C111.585 13.1974 111.666 13.1773 111.727 13.1572C111.829 13.1371 111.91 13.0769 111.992 13.0166C111.992 13.0568 111.971 13.0769 111.951 13.1171C111.951 13.1371 111.951 13.1371 111.931 13.1572C111.931 13.1773 111.91 13.1773 111.91 13.1974C111.89 13.2175 111.89 13.2577 111.87 13.2979C111.809 13.4184 111.727 13.559 111.625 13.6595C111.32 14.0211 110.872 14.2622 110.343 14.3024H104.602V20.2291H110.831V21.2938H104.602V27.8031C104.867 27.8031 105.335 27.8031 105.885 27.8031H110.994H111.32H111.442C111.483 27.8031 111.503 27.8031 111.544 27.8031C111.89 27.7831 112.216 27.6223 112.44 27.4013C112.582 27.2607 112.664 27.1602 112.725 27.0196Z" fill="#545454"/>
<path d="M129.479 26.9992C129.479 27.2002 129.438 27.381 129.377 27.5417V27.5618C129.275 27.823 129.133 28.064 128.929 28.2449C128.603 28.5663 128.156 28.7672 127.667 28.7873H125.652C125.631 28.7873 125.611 28.7873 125.591 28.7873C125.387 28.7873 119.667 28.8074 116.674 28.8074C115.616 28.8074 114.883 28.8074 114.883 28.8074L115.494 27.8631L115.84 27.3207L118.018 23.9455L118.669 22.9209L119.606 21.4543L120.318 20.3694L121.132 19.1037L123.107 16.0098L123.779 14.9651L124.166 14.3624L124.206 14.3021H123.636C123.473 14.3021 123.29 14.3021 123.107 14.3021C122.761 14.3021 122.395 14.3021 121.967 14.3021C121.825 14.3021 121.682 14.3021 121.54 14.3021C121.193 14.3021 120.868 14.3021 120.522 14.282H118.893H117.916H117.204C116.735 14.2619 116.328 14.061 116.023 13.7597C115.982 13.7195 115.941 13.6793 115.901 13.619C115.799 13.4985 115.717 13.378 115.656 13.2373C115.636 13.1971 115.636 13.177 115.616 13.1369C115.616 13.1168 115.616 13.1168 115.595 13.0967C115.595 13.0766 115.595 13.0766 115.575 13.0565C115.555 13.0163 115.555 12.9962 115.534 12.9561C115.616 13.0163 115.717 13.0565 115.819 13.0967C115.88 13.1168 115.962 13.1168 116.023 13.1369C116.145 13.157 116.308 13.157 116.491 13.157H116.613C116.674 13.157 116.715 13.157 116.776 13.157H117.163C117.183 13.157 117.183 13.157 117.204 13.157H117.387H120.562H128.542L127.932 14.1414L127.24 15.2062L126.323 16.6527L124.084 20.1484L123.392 21.2132L123.107 21.6351L121.132 24.6889L120.4 25.834L119.178 27.7225H127.789H128.115H128.237C128.298 27.7225 128.339 27.7225 128.4 27.7225C128.726 27.6823 129.031 27.5417 129.255 27.3207C129.336 27.2403 129.418 27.1399 129.479 26.9992Z" fill="#545454"/>
<g opacity="0.4">
<path d="M54.5852 34.9145H52.5088V34.2314H57.4963V34.9145H55.4198V40.3791H54.5852V34.9145Z" fill="#101A29"/>
<path d="M68.5298 35.9189H69.2219V36.8631H69.2423C69.4255 36.5015 69.6494 36.2403 69.9141 36.0595C70.1787 35.8787 70.5044 35.7984 70.9116 35.8184V36.602C70.6062 36.602 70.3619 36.6422 70.1583 36.7225C69.9548 36.8029 69.7716 36.9234 69.6494 37.0841C69.5273 37.2449 69.4255 37.4257 69.3644 37.6467C69.3034 37.8677 69.283 38.1288 69.283 38.4101V40.3991H68.5501V35.9189H68.5298Z" fill="#101A29"/>
<path d="M85.9553 40.3793C85.8942 40.3994 85.8128 40.4396 85.7314 40.4597C85.6499 40.4798 85.5482 40.4998 85.426 40.4998C85.2428 40.4998 85.08 40.4396 84.9578 40.3391C84.8357 40.2387 84.795 40.0579 84.795 39.8168C84.5914 40.0579 84.3471 40.2387 84.0825 40.3391C83.8178 40.4396 83.5125 40.4998 83.2071 40.4998C83.0035 40.4998 82.8 40.4798 82.6167 40.4396C82.4335 40.3994 82.2707 40.319 82.1485 40.2186C82.006 40.1181 81.9042 39.9976 81.8228 39.8369C81.7414 39.6761 81.7007 39.4953 81.7007 39.2542C81.7007 38.9931 81.7414 38.7922 81.8228 38.6314C81.9042 38.4707 82.0264 38.3502 82.1689 38.2497C82.3114 38.1493 82.4743 38.0689 82.6575 38.0287C82.8407 37.9685 83.0239 37.9283 83.2275 37.8881C83.431 37.8479 83.6346 37.8278 83.8178 37.7876C84.001 37.7475 84.1639 37.7475 84.3064 37.7073C84.4489 37.6671 84.5507 37.6068 84.6321 37.5466C84.7135 37.4662 84.7542 37.3657 84.7542 37.2251C84.7542 37.0644 84.7339 36.9438 84.6728 36.8434C84.6117 36.7429 84.5303 36.6626 84.4489 36.6224C84.3471 36.5621 84.2453 36.542 84.1232 36.5219C84.001 36.5019 83.8789 36.5018 83.7771 36.5018C83.4717 36.5018 83.2071 36.5621 82.9832 36.6827C82.7592 36.8032 82.6575 37.0242 82.6371 37.3456H81.9043C81.9246 37.0644 81.9653 36.8434 82.0875 36.6425C82.1893 36.4617 82.3318 36.3009 82.515 36.1804C82.6982 36.0599 82.8814 35.9795 83.1257 35.9192C83.37 35.859 83.5939 35.8389 83.8382 35.8389C84.0417 35.8389 84.2453 35.859 84.4489 35.8791C84.6525 35.8991 84.8357 35.9594 84.9985 36.0599C85.1614 36.1402 85.2835 36.2809 85.3853 36.4416C85.4871 36.6023 85.5278 36.8032 85.5278 37.0644V39.3547C85.5278 39.5355 85.5278 39.656 85.5685 39.7364C85.5889 39.8168 85.6499 39.8569 85.7721 39.8569C85.8332 39.8569 85.9146 39.8369 85.996 39.8168V40.3793H85.9553ZM84.7542 38.089C84.6932 38.1292 84.5914 38.1694 84.4896 38.2095C84.3878 38.2296 84.2657 38.2698 84.1639 38.2899C84.0417 38.31 83.9196 38.3301 83.7975 38.3502C83.6753 38.3703 83.5328 38.3903 83.4107 38.4104C83.2885 38.4305 83.1664 38.4707 83.0646 38.4908C82.9628 38.531 82.861 38.5712 82.7796 38.6314C82.6982 38.6917 82.6371 38.7721 82.576 38.8524C82.5353 38.9529 82.4946 39.0533 82.4946 39.194C82.4946 39.3145 82.515 39.415 82.576 39.4953C82.6167 39.5757 82.6982 39.656 82.7593 39.6962C82.8203 39.7364 82.9221 39.7766 83.0442 39.8168C83.146 39.8369 83.2682 39.8569 83.37 39.8569C83.6142 39.8569 83.8178 39.8168 84.001 39.7565C84.1842 39.6962 84.3267 39.6159 84.4285 39.5154C84.5303 39.415 84.6117 39.3145 84.6728 39.194C84.7339 39.0734 84.7542 38.973 84.7542 38.8524V38.089Z" fill="#101A29"/>
<path d="M101.162 40.3791H100.429V39.7764H100.409C100.287 40.0175 100.104 40.1983 99.839 40.3188C99.5743 40.4394 99.2893 40.4796 98.9636 40.4796C98.6176 40.4796 98.3122 40.4193 98.0476 40.2987C97.7829 40.1782 97.5793 39.9974 97.3961 39.7764C97.2129 39.5554 97.0908 39.3143 97.0094 39.0331C96.9279 38.7518 96.8872 38.4504 96.8872 38.129C96.8872 37.8075 96.9279 37.5062 97.0094 37.245C97.0908 36.9637 97.2129 36.7227 97.3961 36.5017C97.559 36.2807 97.7829 36.1199 98.0476 35.9994C98.3122 35.8789 98.6176 35.8186 98.9433 35.8186C99.0654 35.8186 99.1876 35.8387 99.3097 35.8588C99.4522 35.8789 99.5743 35.919 99.7168 35.9793C99.8593 36.0396 99.9815 36.0999 100.104 36.2003C100.226 36.2807 100.328 36.4012 100.409 36.5418H100.429V34.2314H101.162V40.3791ZM97.7626 38.8121C97.8236 39.013 97.9051 39.1938 98.0068 39.3344C98.129 39.4951 98.2715 39.6157 98.4343 39.696C98.6176 39.7965 98.8211 39.8367 99.0654 39.8367C99.3097 39.8367 99.5336 39.7965 99.6965 39.696C99.8797 39.5956 100.022 39.475 100.124 39.3143C100.226 39.1536 100.307 38.9728 100.368 38.7719C100.409 38.571 100.45 38.3701 100.45 38.1692C100.45 37.9482 100.429 37.7473 100.368 37.5263C100.307 37.3053 100.226 37.1446 100.124 36.9838C100.002 36.8231 99.8593 36.7026 99.6761 36.6021C99.4929 36.5017 99.269 36.4615 99.0247 36.4615C98.7601 36.4615 98.5565 36.5017 98.3733 36.6021C98.2104 36.7026 98.0679 36.8231 97.9661 36.9838C97.8644 37.1446 97.7829 37.3254 97.7422 37.5263C97.7015 37.7272 97.6811 37.9482 97.6811 38.1692C97.6811 38.4102 97.7015 38.6112 97.7626 38.8121Z" fill="#101A29"/>
<path d="M116.654 38.9731C116.552 39.4754 116.328 39.837 116.002 40.0982C115.676 40.3594 115.249 40.4799 114.72 40.4799C114.353 40.4799 114.048 40.4196 113.783 40.2991C113.519 40.1785 113.295 40.0178 113.111 39.8169C112.928 39.616 112.786 39.3548 112.704 39.0736C112.623 38.7923 112.562 38.4709 112.542 38.1293C112.542 37.7878 112.603 37.4864 112.704 37.2052C112.806 36.9239 112.949 36.6828 113.152 36.4618C113.335 36.2609 113.559 36.1002 113.824 35.9796C114.089 35.8591 114.374 35.7988 114.679 35.7988C115.086 35.7988 115.412 35.8792 115.676 36.0399C115.941 36.2006 116.145 36.4216 116.308 36.6627C116.47 36.9038 116.572 37.1851 116.633 37.4864C116.694 37.7878 116.715 38.0691 116.715 38.3302H113.335C113.335 38.5311 113.356 38.7119 113.397 38.8928C113.437 39.0736 113.539 39.2142 113.641 39.3548C113.763 39.4955 113.905 39.5959 114.089 39.6763C114.272 39.7566 114.475 39.7968 114.72 39.7968C115.025 39.7968 115.29 39.7165 115.493 39.5758C115.697 39.4352 115.839 39.2142 115.9 38.9128H116.654V38.9731ZM115.941 37.7275C115.921 37.5467 115.88 37.386 115.819 37.2453C115.758 37.1047 115.656 36.9641 115.554 36.8435C115.432 36.723 115.31 36.6426 115.147 36.5824C114.984 36.5221 114.821 36.4819 114.638 36.4819C114.455 36.4819 114.272 36.5221 114.109 36.5824C113.946 36.6426 113.824 36.7431 113.702 36.8636C113.58 36.9842 113.498 37.1047 113.437 37.2654C113.376 37.4261 113.335 37.5869 113.315 37.7476H115.941V37.7275Z" fill="#101A29"/>
<path d="M127.952 35.9189H128.644V36.8631H128.665C128.848 36.5015 129.072 36.2403 129.336 36.0595C129.601 35.8787 129.927 35.7984 130.334 35.8184V36.602C130.029 36.602 129.784 36.6422 129.581 36.7225C129.377 36.8029 129.194 36.9234 129.072 37.0841C128.95 37.2449 128.848 37.4257 128.787 37.6467C128.726 37.8677 128.705 38.1288 128.705 38.4101V40.3991H127.973V35.9189H127.952Z" fill="#101A29"/>
</g>
<path d="M27.8154 22.4385V40.0578H16.2119V32.2024C20.4462 29.3898 24.3344 26.115 27.8154 22.4385Z" fill="#545454"/>
<path d="M13.7897 33.7295V40.0379H0.557617H0.577975C0.659404 40.0178 0.740831 39.9977 0.822259 39.9776C4.85295 38.4909 10.1661 35.9193 13.7897 33.7295Z" fill="#545454"/>
<path d="M41.8209 0.5V38.8325C41.8209 39.4955 41.2713 40.0379 40.5995 40.0379H30.2378V19.7265C34.981 14.1213 38.7877 7.47137 41.4138 0.520092H41.8209V0.5Z" fill="#545454"/>
<path d="M39.6226 0.5C33.149 18.5412 18.6345 32.8456 0.333496 39.174V1.82597C0.333496 1.08262 0.944205 0.5 1.67706 0.5H39.6226Z" fill="#545454"/>
</svg>
