<svg width="25" height="25" viewBox="0 0 25 25" fill="none" xmlns="http://www.w3.org/2000/svg">
<path d="M16.7482 6.79102C16.1482 6.79102 15.6982 7.24102 15.6982 7.84102C15.6982 8.44102 16.1482 8.89102 16.7482 8.89102C17.3482 8.89102 17.7982 8.44102 17.7982 7.84102C17.7982 7.24102 17.3482 6.79102 16.7482 6.79102Z" fill="white"/>
<path d="M12.0236 8.1416C9.54863 8.1416 7.59863 10.1666 7.59863 12.5666C7.59863 14.9666 9.62363 16.9916 12.0236 16.9916C14.4236 16.9916 16.4486 14.9666 16.4486 12.5666C16.4486 10.1666 14.4986 8.1416 12.0236 8.1416ZM12.0236 15.4166C10.4486 15.4166 9.17363 14.1416 9.17363 12.5666C9.17363 10.9916 10.4486 9.7166 12.0236 9.7166C13.5986 9.7166 14.8736 10.9916 14.8736 12.5666C14.8736 14.1416 13.5986 15.4166 12.0236 15.4166Z" fill="white"/>
<path d="M15.6234 3.49121H8.49844C5.42344 3.49121 3.02344 5.89121 3.02344 8.89121V16.0162C3.02344 19.0162 5.42344 21.4162 8.42344 21.4162H15.5484C18.5484 21.4162 20.9484 19.0162 20.9484 16.0162V8.89121C21.0234 5.89121 18.6234 3.49121 15.6234 3.49121ZM19.2984 16.0912C19.2984 18.1162 17.6484 19.8412 15.5484 19.8412H8.42344C6.39844 19.8412 4.67344 18.1912 4.67344 16.0912V8.96621C4.67344 6.94121 6.32344 5.21621 8.42344 5.21621H15.5484C17.5734 5.21621 19.2984 6.86621 19.2984 8.96621V16.0912Z" fill="white"/>
</svg>
