<svg width="24" height="24" viewBox="0 0 24 24" fill="none" xmlns="http://www.w3.org/2000/svg">
<path d="M16.7258 6.2998C16.1258 6.2998 15.6758 6.74981 15.6758 7.34981C15.6758 7.94981 16.1258 8.3998 16.7258 8.3998C17.3258 8.3998 17.7758 7.94981 17.7758 7.34981C17.7758 6.74981 17.3258 6.2998 16.7258 6.2998Z" fill="#EF8E35"/>
<path d="M12.0012 7.65039C9.52617 7.65039 7.57617 9.67539 7.57617 12.0754C7.57617 14.4754 9.60117 16.5004 12.0012 16.5004C14.4012 16.5004 16.4262 14.4754 16.4262 12.0754C16.4262 9.67539 14.4762 7.65039 12.0012 7.65039ZM12.0012 14.9254C10.4262 14.9254 9.15117 13.6504 9.15117 12.0754C9.15117 10.5004 10.4262 9.22539 12.0012 9.22539C13.5762 9.22539 14.8512 10.5004 14.8512 12.0754C14.8512 13.6504 13.5762 14.9254 12.0012 14.9254Z" fill="#EF8E35"/>
<path d="M15.601 3H8.47598C5.40098 3 3.00098 5.4 3.00098 8.4V15.525C3.00098 18.525 5.40098 20.925 8.40098 20.925H15.526C18.526 20.925 20.926 18.525 20.926 15.525V8.4C21.001 5.4 18.601 3 15.601 3ZM19.276 15.6C19.276 17.625 17.626 19.35 15.526 19.35H8.40098C6.37598 19.35 4.65098 17.7 4.65098 15.6V8.475C4.65098 6.45 6.30098 4.725 8.40098 4.725H15.526C17.551 4.725 19.276 6.375 19.276 8.475V15.6Z" fill="#EF8E35"/>
</svg>
