<svg width="24" height="24" viewBox="0 0 24 24" fill="none" xmlns="http://www.w3.org/2000/svg">
<g clip-path="url(#clip0_3290_5220)">
<path d="M11.9191 0.680712C11.7128 0.691103 11.5107 0.742249 11.3246 0.83115L3.21184 4.70749C3.00187 4.80778 2.81738 4.95369 2.67207 5.1344C2.52676 5.31511 2.42437 5.52596 2.37249 5.7513L0.371006 14.4586C0.32479 14.6592 0.319619 14.8669 0.355798 15.0696C0.391978 15.2722 0.468773 15.4656 0.58164 15.6383C0.609003 15.6805 0.638434 15.7213 0.669824 15.7607L6.28513 22.7424C6.43047 22.9231 6.61499 23.069 6.82497 23.1692C7.03495 23.2694 7.265 23.3215 7.49803 23.3214L16.5031 23.3194C16.736 23.3195 16.966 23.2677 17.176 23.1676C17.386 23.0676 17.5705 22.9219 17.716 22.7414L23.3292 15.7586C23.4746 15.5779 23.5771 15.3669 23.629 15.1415C23.6809 14.916 23.6809 14.6819 23.629 14.4565L21.6245 5.74921C21.5726 5.52387 21.4702 5.31302 21.3249 5.13232C21.1796 4.95162 20.9951 4.80571 20.7851 4.70544L12.6714 0.831117C12.4373 0.719292 12.1786 0.667575 11.9191 0.680712Z" fill="#326CE5"/>
<path d="M11.9997 3.64355C11.7315 3.64359 11.514 3.88513 11.5141 4.18309C11.5141 4.18767 11.515 4.19205 11.5151 4.19657C11.5147 4.23708 11.5128 4.28585 11.5141 4.32108C11.5205 4.49293 11.5579 4.62448 11.5805 4.78282C11.6213 5.12168 11.6555 5.4026 11.6344 5.6637C11.6139 5.76215 11.5414 5.85219 11.4767 5.91478L11.4653 6.12023C11.1699 6.14455 10.8766 6.18961 10.5875 6.2551C9.32669 6.5414 8.24112 7.19087 7.41465 8.06773C7.35566 8.027 7.29721 7.9855 7.23931 7.94323C7.15259 7.95495 7.065 7.98171 6.95085 7.9152C6.73354 7.76895 6.53563 7.56705 6.29614 7.32381C6.18641 7.20747 6.10696 7.09667 5.97657 6.98452C5.94699 6.95905 5.9018 6.92462 5.86866 6.89839C5.76673 6.81714 5.64654 6.77474 5.53043 6.77079C5.38116 6.76568 5.23746 6.82405 5.14343 6.94198C4.97622 7.15165 5.02975 7.47215 5.26273 7.65789C5.26508 7.65978 5.26761 7.66124 5.27 7.6631C5.302 7.68903 5.34122 7.7223 5.37063 7.74401C5.50899 7.84618 5.63535 7.89847 5.77321 7.97955C6.06363 8.15891 6.30441 8.30759 6.49535 8.48691C6.56993 8.5664 6.58297 8.70648 6.5929 8.76707L6.74852 8.90609C5.91538 10.1599 5.52977 11.7087 5.75767 13.2867L5.55431 13.3458C5.50068 13.4151 5.42495 13.524 5.34573 13.5565C5.09589 13.6352 4.8147 13.664 4.47524 13.6996C4.31587 13.7129 4.17831 13.705 4.00935 13.737C3.97216 13.744 3.92036 13.7575 3.87966 13.7671L3.87551 13.7681C3.87328 13.7686 3.87036 13.7697 3.86824 13.7702C3.58204 13.8394 3.3982 14.1024 3.45736 14.3616C3.51656 14.6209 3.79612 14.7785 4.08405 14.7165C4.08614 14.716 4.08916 14.7159 4.09132 14.7154C4.09458 14.7147 4.09743 14.7131 4.10065 14.7123C4.14083 14.7035 4.19109 14.6937 4.22622 14.6843C4.39233 14.6398 4.51262 14.5745 4.662 14.5172C4.98326 14.402 5.24938 14.3057 5.50865 14.2682C5.61689 14.2598 5.73101 14.335 5.78775 14.3668L5.99941 14.3305C6.48649 15.8406 7.50725 17.0612 8.79981 17.8271L8.71159 18.0388C8.7434 18.1209 8.77846 18.2321 8.75476 18.3133C8.66053 18.5577 8.4991 18.8157 8.31526 19.1033C8.22624 19.2362 8.13514 19.3393 8.05482 19.4913C8.0356 19.5277 8.01113 19.5836 7.99257 19.6221C7.86776 19.8891 7.9593 20.1966 8.19905 20.3121C8.4403 20.4282 8.73972 20.3057 8.8693 20.0382C8.8695 20.0378 8.87017 20.0375 8.87033 20.0371C8.87047 20.0368 8.8702 20.0364 8.87033 20.0361C8.88879 19.9981 8.91496 19.9483 8.93053 19.9126C8.99932 19.755 9.02223 19.6199 9.07061 19.4675C9.1991 19.1447 9.26965 18.8061 9.44652 18.5951C9.49496 18.5373 9.57392 18.5151 9.65579 18.4932L9.76576 18.294C10.8926 18.7265 12.1539 18.8426 13.4138 18.5565C13.697 18.4921 13.9754 18.4082 14.247 18.3054C14.2779 18.3602 14.3354 18.4656 14.3508 18.4922C14.434 18.5192 14.5247 18.5332 14.5988 18.6426C14.7311 18.8687 14.8215 19.1361 14.9318 19.4592C14.9802 19.6116 15.0041 19.7467 15.0729 19.9043C15.0886 19.9402 15.1146 19.9908 15.1331 20.0288C15.2624 20.2972 15.5628 20.4201 15.8044 20.3038C16.0441 20.1883 16.1357 19.8808 16.0109 19.6138C15.9923 19.5753 15.9668 19.5194 15.9476 19.483C15.8672 19.331 15.7762 19.2289 15.6872 19.096C15.5033 18.8084 15.3508 18.5695 15.2566 18.3251C15.2171 18.1991 15.2632 18.1207 15.2939 18.0388C15.2755 18.0177 15.2362 17.8986 15.213 17.8427C16.5563 17.0495 17.547 15.7834 18.0123 14.3211C18.0752 14.331 18.1844 14.3504 18.2198 14.3575C18.2929 14.3093 18.36 14.2464 18.4917 14.2568C18.7509 14.2943 19.0171 14.3906 19.3384 14.5059C19.4877 14.5631 19.608 14.6295 19.7741 14.6739C19.8092 14.6833 19.8595 14.6921 19.8997 14.7009C19.9029 14.7017 19.9057 14.7033 19.909 14.704C19.9112 14.7045 19.9142 14.7046 19.9163 14.7051C20.2042 14.767 20.4838 14.6094 20.543 14.3502C20.6021 14.091 20.4183 13.8279 20.1321 13.7588C20.0904 13.7493 20.0314 13.7332 19.991 13.7256C19.822 13.6936 19.6845 13.7015 19.5251 13.6882C19.1856 13.6527 18.9044 13.6237 18.6546 13.545C18.5527 13.5055 18.4802 13.3843 18.445 13.3344L18.2489 13.2774C18.3506 12.5418 18.3232 11.7762 18.1472 11.0103C17.9696 10.2372 17.6558 9.53012 17.2373 8.90715C17.2876 8.8614 17.3826 8.7773 17.4095 8.75253C17.4174 8.6654 17.4106 8.57407 17.5008 8.47758C17.6918 8.29829 17.9325 8.14958 18.223 7.97022C18.3608 7.88911 18.4882 7.83685 18.6266 7.73468C18.6578 7.71158 18.7006 7.67499 18.7334 7.64856C18.9664 7.46276 19.02 7.14229 18.8528 6.93265C18.6855 6.72302 18.3615 6.70323 18.1285 6.88906C18.0954 6.91532 18.0504 6.94959 18.0206 6.97519C17.8903 7.08734 17.8098 7.1981 17.7 7.31448C17.4605 7.55772 17.2626 7.76065 17.0453 7.90694C16.9512 7.96172 16.8132 7.94279 16.7506 7.93908L16.566 8.07085C15.5128 6.96655 14.079 6.26051 12.535 6.12335C12.5307 6.05864 12.5251 5.9417 12.5236 5.90648C12.4604 5.84602 12.384 5.79439 12.3649 5.6637C12.3437 5.4026 12.379 5.12168 12.4199 4.78282C12.4424 4.62448 12.4799 4.49296 12.4863 4.32108C12.4877 4.28203 12.4854 4.22532 12.4852 4.18309C12.4852 3.88513 12.2678 3.64355 11.9997 3.64355ZM11.3916 7.40993L11.2474 9.95713L11.237 9.96234C11.2273 10.1902 11.0398 10.3722 10.8096 10.3722C10.7152 10.3722 10.6282 10.3419 10.5574 10.2902L10.5533 10.2923L8.46467 8.81166C9.10656 8.18049 9.92765 7.714 10.8739 7.49918C11.0448 7.46059 11.2176 7.4308 11.3916 7.40993ZM12.6087 7.40993C13.7135 7.5458 14.7351 8.04605 15.518 8.81272L13.4429 10.284L13.4357 10.2809C13.2514 10.4154 12.9919 10.382 12.8484 10.202C12.7916 10.1314 12.7589 10.0445 12.755 9.95401L12.7529 9.95301L12.6087 7.40993ZM7.70723 9.76313L9.61429 11.4689L9.6122 11.4792C9.78435 11.6289 9.80975 11.8886 9.66615 12.0686C9.60955 12.1397 9.53179 12.1909 9.44413 12.2149L9.44204 12.2232L6.99753 12.9287C6.87313 11.791 7.14127 10.6852 7.70723 9.76313ZM16.2786 9.76413C16.5619 10.2234 16.7765 10.7364 16.9042 11.2925C17.0304 11.8419 17.0621 12.3904 17.0101 12.9204L14.5531 12.2128L14.551 12.2024C14.331 12.1423 14.1958 11.9185 14.247 11.694C14.2669 11.6057 14.3146 11.5261 14.3829 11.4668L14.3819 11.4616L16.2786 9.76416V9.76413ZM11.6085 11.6006H12.3898L12.8754 12.2076L12.7011 12.965L11.9997 13.3022L11.2962 12.964L11.1219 12.2066L11.6085 11.6006ZM14.1132 13.6779C14.1464 13.6762 14.1794 13.6792 14.2118 13.6851L14.2159 13.6799L16.7444 14.1074C16.3744 15.1471 15.6663 16.0477 14.7201 16.6505L13.7386 14.2796L13.7417 14.2755C13.6516 14.066 13.7418 13.8203 13.9492 13.7204C14.0023 13.6948 14.0578 13.6806 14.1132 13.6779ZM9.86643 13.6882C10.0594 13.6909 10.2324 13.8249 10.2773 14.0213C10.2983 14.1133 10.2881 14.2043 10.2534 14.2848L10.2607 14.2942L9.28954 16.6411C8.38153 16.0585 7.65832 15.1861 7.27145 14.1157L9.77821 13.6903L9.78236 13.6955C9.81042 13.6903 9.83884 13.6879 9.86643 13.6882ZM11.9841 14.7165C12.0533 14.7141 12.1221 14.7287 12.1843 14.759C12.2693 14.7999 12.335 14.8644 12.3763 14.9416H12.3856L13.6214 17.1744C13.4591 17.2287 13.2943 17.2747 13.1275 17.3125C12.1824 17.527 11.2403 17.462 10.3873 17.1713L11.6199 14.9427H11.622C11.6573 14.8766 11.7093 14.821 11.7729 14.7813C11.8364 14.7416 11.9092 14.7192 11.9841 14.7165L11.9841 14.7165Z" fill="white" stroke="white" stroke-width="0.276684"/>
</g>
<defs>
<clipPath id="clip0_3290_5220">
<rect width="24" height="24" fill="white"/>
</clipPath>
</defs>
</svg>
