<svg width="25" height="25" viewBox="0 0 25 25" fill="none" xmlns="http://www.w3.org/2000/svg">
<g clip-path="url(#clip0_2346_4220)">
<path d="M3.02309 22.0916H6.62309V8.7716H3.02309V22.0916ZM4.82309 2.8916C3.62309 2.8916 2.66309 3.8516 2.66309 5.0516C2.66309 6.2516 3.62309 7.2116 4.82309 7.2116C6.02309 7.2116 6.98309 6.2516 6.98309 5.0516C6.98309 3.8516 6.02309 2.8916 4.82309 2.8916ZM12.7431 10.8116V8.7716H9.14309V22.0916H12.7431V15.2516C12.7431 11.4116 17.6631 11.1716 17.6631 15.2516V22.0916H21.2631V13.9316C21.2631 7.4516 14.4231 7.6916 12.7431 10.8116Z" fill="white"/>
</g>
<defs>
<clipPath id="clip0_2346_4220">
<rect width="24" height="24" fill="white" transform="translate(0.0234375 0.491211)"/>
</clipPath>
</defs>
</svg>
