<svg width="24" height="24" viewBox="0 0 24 24" fill="none" xmlns="http://www.w3.org/2000/svg">
<g clip-path="url(#clip0_3290_5239)">
<path d="M12 24C18.6274 24 24 18.6274 24 12C24 5.37258 18.6274 0 12 0C5.37258 0 0 5.37258 0 12C0 18.6274 5.37258 24 12 24Z" fill="#13AA52"/>
<path d="M15.208 10.5338C14.4501 7.18852 12.6587 6.08859 12.4658 5.66836C12.2549 5.37188 12.0412 4.84453 12.0412 4.84453C12.0376 4.83562 12.032 4.81992 12.0255 4.80469C12.0037 5.10117 11.9924 5.21555 11.7121 5.51461C11.278 5.85398 9.051 7.72266 8.86983 11.5233C8.70084 15.068 11.4304 17.1802 11.7995 17.4495L11.8415 17.4792V17.4766C11.8438 17.4945 11.9587 18.3204 12.0393 19.1955H12.3285C12.3964 18.5769 12.4981 17.9625 12.6332 17.355L12.6566 17.3398C12.8217 17.2214 12.9792 17.0926 13.128 16.9542L13.1448 16.939C13.9295 16.2141 15.3402 14.5373 15.3264 11.8641C15.3235 11.4181 15.2839 10.9732 15.208 10.5338ZM12.0086 15.4481C12.0086 15.4481 12.0086 10.4766 12.1726 10.4775C12.3006 10.4775 12.4663 16.8902 12.4663 16.8902C12.2385 16.8628 12.0086 15.8348 12.0086 15.4481Z" fill="white"/>
</g>
<defs>
<clipPath id="clip0_3290_5239">
<rect width="24" height="24" fill="white"/>
</clipPath>
</defs>
</svg>
