<svg width="40" height="40" viewBox="0 0 40 40" fill="none" xmlns="http://www.w3.org/2000/svg">
<g clip-path="url(#clip0_2150_10646)">
<path fill-rule="evenodd" clip-rule="evenodd" d="M37.2432 19.0201C37.2073 19.0273 37.1712 19.1066 37.1712 19.1498C37.164 19.4382 37.1568 20.2024 37.1568 20.7215C37.1568 20.736 37.1783 20.7648 37.2 20.7648C37.3081 20.772 37.5676 20.7792 37.7912 20.7792C38.1012 20.7792 38.2814 20.736 38.3824 20.6928C38.6419 20.5629 38.7644 20.2817 38.7644 19.9717C38.7644 19.2724 38.2742 19.0056 37.546 19.0056C37.4955 18.9985 37.3515 18.9985 37.2432 19.0201ZM39.1033 22.2428C39.1033 21.529 38.577 21.1324 37.6254 21.1324C37.5821 21.1324 37.2793 21.1253 37.2072 21.1396C37.1855 21.1469 37.1568 21.1613 37.1568 21.183C37.1568 21.6948 37.1495 22.5096 37.1712 22.8267C37.1855 22.9637 37.2865 23.1584 37.4091 23.216C37.5388 23.2881 37.8344 23.3025 38.0363 23.3025C38.6058 23.3025 39.1033 22.9853 39.1033 22.2428ZM35.7726 18.6236C35.8446 18.6236 36.0608 18.6452 36.616 18.6452C37.1423 18.6452 37.5605 18.6308 38.0723 18.6308C38.6995 18.6308 39.5647 18.8542 39.5647 19.7915C39.5647 20.2529 39.2402 20.6206 38.8149 20.8009C38.7933 20.8081 38.7933 20.8224 38.8149 20.8296C39.4205 20.9811 39.954 21.356 39.954 22.0624C39.954 22.7546 39.5215 23.1944 38.8942 23.4684C38.5121 23.6342 38.0363 23.6918 37.5533 23.6918C37.1855 23.6918 36.1979 23.6486 35.65 23.6631C35.5923 23.6413 35.7005 23.3818 35.7508 23.3386C35.8807 23.3313 35.9815 23.3242 36.1186 23.2809C36.3133 23.2305 36.3348 23.1728 36.3637 22.8772C36.3781 22.6249 36.3781 21.7308 36.3781 21.0964C36.3781 20.2241 36.3854 19.6329 36.3781 19.3446C36.3709 19.1211 36.2916 19.0489 36.133 19.0056C36.0104 18.9841 35.8086 18.9552 35.6427 18.9336C35.6066 18.8975 35.7292 18.6524 35.7726 18.6236ZM31.6126 23.1079C31.7857 23.2448 32.1245 23.3024 32.4273 23.3024C32.8166 23.3024 33.2059 23.2305 33.5808 22.8915C33.963 22.5456 34.2297 22.0121 34.2297 21.1613C34.2297 20.3466 33.9197 19.6833 33.2852 19.2941C32.9247 19.0705 32.4633 18.9769 31.9298 18.9769C31.7712 18.9769 31.6198 18.9841 31.5262 19.0273C31.5044 19.0417 31.454 19.1066 31.454 19.1426C31.4396 19.2868 31.4396 20.3971 31.4396 21.046C31.4396 21.7164 31.4396 22.6537 31.454 22.7618C31.454 22.87 31.5044 23.0358 31.6126 23.1079H31.6126ZM29.976 18.6235C30.113 18.6235 30.6393 18.6452 30.8916 18.6452C31.3459 18.6452 31.6703 18.6236 32.5282 18.6236C33.2491 18.6236 33.8547 18.8182 34.2873 19.1859C34.8136 19.6401 35.0876 20.2674 35.0876 21.0315C35.0876 22.1202 34.5901 22.7474 34.0926 23.1079C33.5953 23.4756 32.9464 23.6918 32.0236 23.6918C31.5333 23.6918 30.6898 23.6774 29.9905 23.6702H29.9833C29.9473 23.6053 30.0409 23.353 30.0986 23.3458C30.2861 23.3242 30.3365 23.3169 30.4303 23.281C30.5816 23.2232 30.6105 23.1439 30.6322 22.8772C30.6537 22.3797 30.6465 21.7813 30.6465 21.1036C30.6465 20.6206 30.6537 19.6761 30.6393 19.3733C30.6177 19.121 30.5096 19.0561 30.2933 19.0128C30.1851 18.9913 30.0409 18.9624 29.8391 18.9408C29.8102 18.8903 29.94 18.6667 29.976 18.6235Z" fill="#8E714E"/>
<path fill-rule="evenodd" clip-rule="evenodd" d="M21.2527 23.3892C21.0725 23.3676 20.9427 23.3388 20.7841 23.2667C20.7625 23.2522 20.7264 23.1802 20.7264 23.1513C20.712 22.899 20.712 22.178 20.712 21.6951C20.712 21.3057 20.6471 20.9669 20.4813 20.729C20.2866 20.4549 20.0055 20.2964 19.645 20.2964C19.3278 20.2964 18.9024 20.5126 18.5491 20.8154C18.5419 20.8226 18.4843 20.8732 18.4914 20.7938C18.4914 20.7145 18.5059 20.5559 18.5131 20.4477C18.5203 20.3468 18.4626 20.2964 18.4626 20.2964C18.2319 20.4117 17.5831 20.5631 17.3451 20.5847C17.1721 20.6208 17.1289 20.7866 17.3092 20.8443H17.3164C17.5109 20.9019 17.6407 20.9669 17.7416 21.0318C17.8137 21.0894 17.8065 21.1687 17.8065 21.2337C17.8137 21.7743 17.8137 22.6034 17.7921 23.0576C17.785 23.2379 17.7345 23.3027 17.6046 23.3315L17.6191 23.3244C17.5182 23.346 17.4389 23.3676 17.3163 23.382C17.273 23.4253 17.273 23.656 17.3163 23.7065C17.3956 23.7065 17.8137 23.6848 18.1599 23.6848C18.6357 23.6848 18.8808 23.7065 19.0033 23.7065C19.0538 23.6488 19.0682 23.4325 19.0394 23.382C18.9024 23.3748 18.8014 23.3604 18.7078 23.3315C18.578 23.3026 18.5419 23.2379 18.5346 23.0865C18.5203 22.7043 18.5203 21.8969 18.5203 21.349C18.5203 21.1976 18.5636 21.1254 18.6068 21.0822C18.7726 20.938 19.0394 20.8371 19.2773 20.8371C19.508 20.8371 19.6593 20.9092 19.7747 21.0029C19.9333 21.1326 19.9838 21.3201 20.0054 21.4571C20.0414 21.7671 20.0271 22.3799 20.0271 22.9134C20.0271 23.2018 20.0054 23.2739 19.8974 23.3099C19.8468 23.3315 19.7171 23.3604 19.5657 23.3747C19.5152 23.4253 19.5296 23.6488 19.5657 23.6993C19.7747 23.6993 20.0199 23.6776 20.3804 23.6776C20.8273 23.6776 21.1157 23.6993 21.2311 23.6993C21.2671 23.656 21.2815 23.4469 21.2527 23.3892ZM23.2497 20.6353C22.8677 20.6353 22.6297 20.9308 22.6297 21.3922C22.6297 21.8608 22.8388 22.4015 23.43 22.4015C23.5309 22.4015 23.7184 22.3583 23.8048 22.2573C23.9418 22.1276 24.0356 21.868 24.0356 21.594C24.0356 20.9957 23.74 20.6353 23.2497 20.6353ZM23.1993 23.8218C23.0551 23.8218 22.9541 23.8651 22.8893 23.9012C22.5864 24.0957 22.4495 24.2832 22.4495 24.5068C22.4495 24.7158 22.5288 24.8815 22.7018 25.0258C22.9109 25.206 23.1993 25.2926 23.5669 25.2926C24.3023 25.2926 24.6268 24.896 24.6268 24.5068C24.6268 24.2327 24.4897 24.0525 24.2086 23.9516C24.0068 23.8651 23.6391 23.8218 23.1993 23.8218ZM23.2497 25.6963C22.81 25.6963 22.4927 25.6026 22.2188 25.3935C21.952 25.1916 21.8367 24.8888 21.8367 24.6797C21.8367 24.6221 21.8511 24.4634 21.9809 24.3193C22.0601 24.2327 22.2332 24.0669 22.6442 23.7858C22.6586 23.7786 22.6657 23.7714 22.6657 23.7569C22.6657 23.7425 22.6513 23.728 22.6369 23.7209C22.2981 23.5912 22.1971 23.382 22.1682 23.2667V23.2522C22.1611 23.209 22.1467 23.1658 22.2116 23.1225C22.2621 23.0865 22.3342 23.0432 22.4134 22.9928C22.536 22.9206 22.6657 22.8413 22.745 22.7764C22.7595 22.762 22.7595 22.7476 22.7595 22.7332C22.7595 22.7187 22.745 22.7043 22.7306 22.6972C22.2261 22.5313 21.9737 22.1564 21.9737 21.594C21.9737 21.2264 22.1395 20.8947 22.435 20.6857C22.6369 20.5271 23.1416 20.3324 23.4732 20.3324H23.4949C23.8337 20.3396 24.0211 20.4117 24.2878 20.5054C24.4321 20.5559 24.5691 20.5775 24.7566 20.5775C25.0377 20.5775 25.1603 20.491 25.2611 20.3901C25.2684 20.4045 25.2829 20.4406 25.29 20.5343C25.2972 20.628 25.2684 20.765 25.1963 20.8659C25.1386 20.9452 25.0089 21.0029 24.8791 21.0029H24.843C24.7132 20.9885 24.6555 20.974 24.6555 20.974L24.6268 20.9885C24.6196 21.0029 24.6268 21.0173 24.6339 21.039L24.6412 21.0534C24.6556 21.1183 24.6844 21.3129 24.6844 21.3634C24.6844 21.9546 24.4465 22.214 24.1942 22.4087C23.949 22.589 23.6679 22.7043 23.3507 22.7332C23.3435 22.7332 23.3147 22.7332 23.2497 22.7404C23.2137 22.7404 23.1632 22.7476 23.156 22.7476H23.1488C23.0911 22.762 22.947 22.8341 22.947 22.9566C22.947 23.0647 23.0118 23.1946 23.3218 23.2162C23.3867 23.2234 23.4515 23.2234 23.5237 23.2307C23.9346 23.2594 24.4465 23.2955 24.6844 23.3748C25.0161 23.4973 25.2251 23.7929 25.2251 24.1462C25.2251 24.6798 24.8431 25.1772 24.2086 25.4872C23.8986 25.6242 23.5886 25.6963 23.2497 25.6963ZM27.3591 20.6713C27.2078 20.6713 27.0707 20.7072 26.9698 20.7794C26.6887 20.9524 26.5445 21.2985 26.5445 21.8031C26.5445 22.7476 27.0203 23.4109 27.698 23.4109C27.8999 23.4109 28.0585 23.3532 28.1954 23.2379C28.4045 23.0647 28.5127 22.7187 28.5127 22.2357C28.5127 21.2985 28.044 20.6712 27.3592 20.6712L27.3591 20.6713ZM27.4889 23.7569C26.2633 23.7569 25.8236 22.8558 25.8236 22.0122C25.8236 21.4211 26.0614 20.9669 26.5372 20.6424C26.8761 20.4333 27.2799 20.318 27.6404 20.318C28.5775 20.318 29.2336 20.9885 29.2336 21.9546C29.2336 22.6106 28.9741 23.1297 28.4766 23.4469C28.2387 23.6055 27.8278 23.7569 27.4889 23.7569H27.4889ZM14.6416 20.6712C14.4902 20.6712 14.3532 20.7072 14.2522 20.7794C13.9711 20.9524 13.8269 21.2985 13.8269 21.8031C13.8269 22.7476 14.3027 23.4109 14.9804 23.4109C15.1823 23.4109 15.3409 23.3532 15.4779 23.2379C15.6869 23.0647 15.7951 22.7187 15.7951 22.2357C15.7951 21.2985 15.3337 20.6712 14.6416 20.6712ZM14.7714 23.7569C13.5457 23.7569 13.106 22.8558 13.106 22.0122C13.106 21.4211 13.3439 20.9669 13.8196 20.6424C14.1586 20.4333 14.5623 20.318 14.9228 20.318C15.86 20.318 16.5161 20.9885 16.5161 21.9546C16.5161 22.6106 16.2565 23.1297 15.759 23.4469C15.5283 23.6055 15.1174 23.7569 14.7714 23.7569ZM6.5309 23.6848C6.51644 23.6633 6.50199 23.5983 6.50926 23.519C6.50926 23.4613 6.52371 23.4253 6.5309 23.4109C6.6823 23.3892 6.7616 23.3676 6.84808 23.346C6.9923 23.3099 7.04996 23.2307 7.05715 23.0504C7.07886 22.6179 7.07886 21.7959 7.0716 21.2264V21.2119C7.0716 21.1471 7.0716 21.0677 6.9923 21.0101C6.87691 20.938 6.73996 20.8732 6.55972 20.8226C6.49488 20.8011 6.4516 20.765 6.45879 20.7218C6.45879 20.6785 6.50207 20.628 6.59582 20.6136C6.83371 20.5919 7.45363 20.4406 7.69879 20.3324C7.71324 20.3468 7.73488 20.3901 7.73488 20.4478L7.72769 20.527C7.72043 20.6064 7.71324 20.7001 7.71324 20.7938C7.71324 20.8226 7.74215 20.8443 7.7709 20.8443C7.78535 20.8443 7.7998 20.8371 7.81418 20.8298C8.27558 20.4694 8.69371 20.3396 8.90996 20.3396C9.26332 20.3396 9.5373 20.5054 9.74636 20.8515C9.76074 20.8732 9.77519 20.8804 9.79683 20.8804C9.81121 20.8804 9.83277 20.8732 9.84004 20.8587C10.2654 20.5343 10.6908 20.3396 10.9719 20.3396C11.6424 20.3396 12.0389 20.8371 12.0389 21.6806C12.0389 21.9185 12.0389 22.2285 12.0318 22.5097C12.0318 22.762 12.0246 22.9927 12.0246 23.1586C12.0246 23.1945 12.075 23.3099 12.1543 23.3315C12.2552 23.382 12.3922 23.4037 12.5725 23.4325H12.5796C12.5941 23.4829 12.5653 23.6704 12.5364 23.7065C12.4932 23.7065 12.4282 23.7065 12.3562 23.6993C12.1737 23.6898 11.991 23.6849 11.8082 23.6848C11.3613 23.6848 11.1306 23.692 10.907 23.7065C10.8927 23.6488 10.8854 23.4758 10.907 23.4325C11.0368 23.4109 11.1017 23.3892 11.1811 23.3676C11.3253 23.3244 11.3613 23.2594 11.3686 23.072C11.3686 22.9351 11.3973 21.7671 11.354 21.4859C11.3108 21.1976 11.0945 20.8587 10.6186 20.8587C10.4384 20.8587 10.1573 20.9308 9.88332 21.1398C9.86894 21.1543 9.85441 21.1903 9.85441 21.2119V21.2192C9.88332 21.3705 9.88332 21.5437 9.88332 21.8104V22.279C9.88332 22.6034 9.87605 22.9062 9.88332 23.1369C9.88332 23.2955 9.97707 23.3315 10.0564 23.3604C10.0996 23.3676 10.1284 23.3748 10.1645 23.382C10.2293 23.3965 10.2943 23.4109 10.3952 23.4325C10.4096 23.4614 10.4096 23.5551 10.388 23.6344C10.3807 23.6776 10.3663 23.6992 10.3591 23.7065C10.114 23.6993 9.86168 23.692 9.49402 23.692C9.3859 23.692 9.1984 23.6993 9.0398 23.6993C8.90996 23.6993 8.78746 23.7065 8.71543 23.7065C8.70816 23.692 8.69371 23.6416 8.69371 23.5622C8.69371 23.4974 8.70816 23.4469 8.72261 23.4325C8.75863 23.4253 8.78746 23.4181 8.82355 23.4181C8.90996 23.4037 8.98215 23.3892 9.05418 23.3748C9.17683 23.3388 9.22004 23.2739 9.22722 23.1153C9.24886 22.7548 9.27051 21.7239 9.22004 21.4643C9.13355 21.0462 8.89566 20.8371 8.51347 20.8371C8.29004 20.8371 8.00879 20.9452 7.77816 21.1183C7.74207 21.1471 7.71324 21.2191 7.71324 21.284V21.7094C7.71324 22.2285 7.71324 22.8774 7.72043 23.1586C7.72769 23.245 7.75644 23.346 7.9223 23.382C7.9584 23.3892 8.01605 23.4037 8.08816 23.4109L8.21785 23.4325C8.23238 23.4758 8.22511 23.6488 8.19629 23.7065C8.12418 23.7065 8.03769 23.6993 7.93668 23.6993C7.78535 23.692 7.59066 23.6848 7.37441 23.6848C7.12207 23.6848 6.94183 23.692 6.79761 23.6993C6.69668 23.6848 6.61738 23.6848 6.5309 23.6848Z" fill="#99908C"/>
<path fill-rule="evenodd" clip-rule="evenodd" d="M2.73858 25.4154L2.44303 25.3144C2.44303 25.3144 2.47912 23.8077 1.93834 23.6995C1.57795 23.2813 1.99615 5.96414 3.29381 23.6418C3.29381 23.6418 2.84678 23.8652 2.76748 24.2474C2.68092 24.6223 2.73858 25.4154 2.73858 25.4154Z" fill="#EFEFEF"/>
<path fill-rule="evenodd" clip-rule="evenodd" d="M2.73858 25.4154L2.44303 25.3144C2.44303 25.3144 2.47912 23.8077 1.93834 23.6995C1.57795 23.2813 1.99615 5.96414 3.29381 23.6418C3.29381 23.6418 2.84678 23.8652 2.76748 24.2474C2.68092 24.6223 2.73858 25.4154 2.73858 25.4154Z" fill="#A6A385"/>
<path fill-rule="evenodd" clip-rule="evenodd" d="M2.89758 23.9587C2.89758 23.9587 5.48586 22.2572 4.88016 18.7173C4.29625 16.1437 2.91922 15.3001 2.76781 14.9757C2.60203 14.745 2.44336 14.3413 2.44336 14.3413L2.55156 21.5002C2.55156 21.5075 2.32805 23.6919 2.89766 23.9588" fill="#EFEFEF"/>
<path fill-rule="evenodd" clip-rule="evenodd" d="M2.89758 23.9587C2.89758 23.9587 5.48586 22.2572 4.88016 18.7173C4.29625 16.1437 2.91922 15.3001 2.76781 14.9757C2.60203 14.745 2.44336 14.3413 2.44336 14.3413L2.55156 21.5002C2.55156 21.5075 2.32805 23.6919 2.89766 23.9588" fill="#499D4A"/>
<path fill-rule="evenodd" clip-rule="evenodd" d="M2.29164 24.0525C2.29164 24.0525 -0.138043 22.3943 0.00617533 19.4745C0.143128 16.5547 1.85899 15.12 2.19063 14.8605C2.40696 14.6298 2.41414 14.5432 2.4286 14.3125C2.58 14.637 2.55118 19.1645 2.57274 19.698C2.63758 21.7527 2.45743 23.6633 2.29164 24.0525Z" fill="#EFEFEF"/>
<path fill-rule="evenodd" clip-rule="evenodd" d="M2.29164 24.0525C2.29164 24.0525 -0.138043 22.3943 0.00617533 19.4745C0.143128 16.5547 1.85899 15.12 2.19063 14.8605C2.40696 14.6298 2.41414 14.5432 2.4286 14.3125C2.58 14.637 2.55118 19.1645 2.57274 19.698C2.63758 21.7527 2.45743 23.6633 2.29164 24.0525Z" fill="#58AA50"/>
</g>
<defs>
<clipPath id="clip0_2150_10646">
<rect width="40" height="40" fill="white"/>
</clipPath>
</defs>
</svg>
