<svg width="24" height="24" viewBox="0 0 24 24" fill="none" xmlns="http://www.w3.org/2000/svg">
<path d="M12 9.97015C15.864 9.97015 18.9967 9.12906 19 8.09118V18.1194C19 19.158 15.866 20 12 20V16.6483H12.8482V11.9677H12V9.97015ZM17.7647 6H19V6.83582C19 7.87445 15.866 8.71642 12 8.71642V6.62687C15.1838 6.62687 17.7647 6.34624 17.7647 6ZM16.9329 13.305H15.9251L15.3126 15.358L15.2076 15.801H15.1953L15.1068 15.3507L14.5004 13.305H13.3753L14.7032 16.6567L14.5344 17.0735C14.4342 17.325 14.2568 17.4507 14.0022 17.4507C13.8478 17.4507 13.7047 17.4062 13.5729 17.317V18.1194C13.7294 18.2085 13.9291 18.2531 14.1721 18.2531C14.8096 18.2531 15.2869 17.8157 15.604 16.9409L16.9329 13.305Z" fill="#F6B432" fill-opacity="0.701961"/>
<path d="M12 20C8.13398 20 5 19.1517 5 18.1053V8C5 9.04644 8.13402 9.89474 12 9.89474V11.9158H11.3453L10.4034 14.7042L10.2201 15.3853H10.2006C10.1663 15.1593 10.1114 14.9347 10.0359 14.7116L9.09397 11.9158H7.58588V16.6316H8.50824V14.0242L8.46706 12.8H8.49588L8.64103 13.4579L9.74147 16.6316H10.5907L11.6716 13.4253L11.8168 12.8H11.8425L11.8024 13.8095V16.6316H12V20ZM19 5.89474H17.7647C17.7647 5.54594 15.1838 5.26316 12 5.26316C8.81624 5.26316 6.23529 5.54594 6.23529 5.89474C6.23529 6.24358 8.81624 6.52632 12 6.52632V8.63158C8.13402 8.63158 5 7.78328 5 6.73684V5.89474C5 4.84829 8.13402 4 12 4C15.864 4 18.9968 4.84745 19 5.89474Z" fill="#F6B432"/>
</svg>
