<svg width="41" height="40" viewBox="0 0 41 40" fill="none" xmlns="http://www.w3.org/2000/svg">
<g clip-path="url(#clip0_2150_10656)">
<path d="M12.844 28.5287H11.7611C11.7228 26.7008 11.6173 24.9824 11.4449 23.3721H11.4353L9.78654 28.5287H8.96206L7.32314 23.3721H7.31373C7.19215 24.9181 7.11556 26.637 7.08375 28.5287H6.09668C6.16029 26.2283 6.32017 24.0717 6.57567 22.0586H7.91786L9.47997 26.8127H9.4896L11.0613 22.0586H12.3456C12.6268 24.4165 12.793 26.5733 12.844 28.5287ZM17.5404 23.7551C17.0995 26.1477 16.5178 27.8862 15.7958 28.9715C15.2333 29.8068 14.6171 30.2249 13.946 30.2249C13.7671 30.2249 13.5463 30.1709 13.2847 30.0638V29.4869C13.4126 29.5053 13.5626 29.5157 13.735 29.5157C14.0485 29.5157 14.3005 29.4295 14.4926 29.2567C14.7223 29.0462 14.8372 28.8095 14.8372 28.5477C14.8372 28.3682 14.7476 28.0011 14.5689 27.4453L13.3806 23.7548H14.4444L15.2974 26.515C15.489 27.1417 15.569 27.5793 15.537 27.8285C16.0034 26.5828 16.3292 25.2245 16.5148 23.7546H17.5404V23.7551Z" fill="#5D87A1"/>
<path d="M31.9548 28.5287H28.8787V22.0587H29.9134V27.7323H31.9548V28.5287ZM28.0734 28.685L26.884 28.0981C26.9895 28.0114 27.0903 27.9177 27.1812 27.8091C27.6867 27.2152 27.9389 26.337 27.9389 25.1737C27.9389 23.0332 27.0989 21.9624 25.4184 21.9624C24.5943 21.9624 23.9515 22.234 23.4917 22.7775C22.9866 23.3718 22.7344 24.2469 22.7344 25.4039C22.7344 26.5412 22.9579 27.3755 23.4051 27.9047C23.8142 28.3841 24.4309 28.6242 25.2556 28.6242C25.5632 28.6242 25.8455 28.5865 26.1026 28.5105L27.6512 29.412L28.0734 28.685ZM24.2204 27.234C23.9584 26.8126 23.8274 26.1359 23.8274 25.2028C23.8274 23.5737 24.3223 22.7582 25.3131 22.7582C25.831 22.7582 26.2106 22.9532 26.4534 23.3425C26.7149 23.7645 26.8466 24.4352 26.8466 25.3553C26.8466 26.9978 26.3512 27.8191 25.361 27.8191C24.8429 27.8193 24.4633 27.6249 24.2204 27.234ZM22.2835 26.7354C22.2835 27.2841 22.0822 27.7342 21.68 28.0868C21.2773 28.4379 20.7375 28.6139 20.0609 28.6139C19.4281 28.6139 18.8146 28.4118 18.2207 28.0096L18.4988 27.454C19.0098 27.7099 19.4725 27.8371 19.8879 27.8371C20.2777 27.8371 20.5824 27.7507 20.8034 27.5793C21.0241 27.4073 21.1558 27.166 21.1558 26.8609C21.1558 26.4765 20.8877 26.148 20.3959 25.8728C19.9425 25.6238 19.0356 25.1032 19.0356 25.1032C18.544 24.7449 18.2979 24.3603 18.2979 23.7267C18.2979 23.2023 18.4814 22.7789 18.8487 22.4569C19.2164 22.1336 19.6907 21.9724 20.2723 21.9724C20.8728 21.9724 21.4188 22.1334 21.9106 22.4519L21.6611 23.0076C21.2405 22.8289 20.8253 22.7396 20.4158 22.7396C20.0842 22.7396 19.828 22.8193 19.6499 22.9794C19.4704 23.1389 19.3597 23.3429 19.3597 23.5932C19.3597 23.9757 19.6334 24.3084 20.1386 24.589C20.5981 24.8385 21.5276 25.3681 21.5276 25.3681C22.0317 25.7257 22.2835 26.1068 22.2835 26.7354Z" fill="#F8981D"/>
<path d="M33.2536 19.8915C32.6279 19.8756 32.1435 19.9386 31.7369 20.1106C31.6195 20.1575 31.4329 20.1575 31.4165 20.3059C31.4799 20.3687 31.4873 20.4699 31.5423 20.5566C31.6361 20.7129 31.7995 20.9232 31.9487 21.0328C32.1125 21.1584 32.277 21.2827 32.4494 21.3921C32.7535 21.5803 33.0981 21.6897 33.3945 21.8772C33.5671 21.9862 33.7387 22.1273 33.9115 22.2447C33.9965 22.3072 34.0509 22.4087 34.1612 22.4479V22.424C34.1059 22.3537 34.0902 22.252 34.036 22.1737L33.8013 21.9473C33.5744 21.6426 33.2925 21.3767 32.9885 21.1582C32.7382 20.9858 32.1908 20.7514 32.0893 20.463L32.0734 20.4471C32.2454 20.431 32.4494 20.3687 32.6129 20.3207C32.8788 20.2506 33.1214 20.2665 33.3942 20.1964C33.5198 20.165 33.6443 20.1257 33.7703 20.087V20.0165C33.6288 19.8756 33.528 19.6886 33.3792 19.5555C32.9812 19.2117 32.5426 18.8754 32.0893 18.5939C31.8466 18.4372 31.5344 18.3363 31.2759 18.203C31.1828 18.156 31.0259 18.1327 30.971 18.0545C30.8308 17.8825 30.7519 17.656 30.6502 17.4524C30.4242 17.0228 30.2047 16.5461 30.0097 16.0918C29.8687 15.7871 29.7829 15.4829 29.6109 15.201C28.8052 13.8722 27.9303 13.0674 26.5856 12.2775C26.2966 12.113 25.9528 12.0429 25.5856 11.9567L24.999 11.9257C24.8739 11.8709 24.7485 11.7221 24.6393 11.6518C24.1931 11.3705 23.0445 10.761 22.7164 11.5658C22.5051 12.0745 23.029 12.5746 23.209 12.8326C23.3419 13.0118 23.5141 13.2156 23.607 13.419C23.662 13.5518 23.6775 13.6929 23.7326 13.8333C23.8577 14.1773 23.9747 14.5601 24.1392 14.8811C24.225 15.0447 24.3185 15.2167 24.4281 15.3649C24.4909 15.4515 24.6002 15.4898 24.624 15.631C24.515 15.7867 24.5064 16.0217 24.4438 16.2172C24.1626 17.1005 24.2725 18.1947 24.6711 18.8438C24.7958 19.0392 25.0934 19.4695 25.4914 19.3046C25.8438 19.164 25.7657 18.7184 25.867 18.3278C25.8902 18.2334 25.875 18.1714 25.9218 18.1095V18.1248C26.0309 18.3435 26.1409 18.5542 26.242 18.7735C26.4845 19.1562 26.9068 19.5551 27.2586 19.8202C27.4459 19.9617 27.5942 20.2036 27.8288 20.29V20.2665H27.8133C27.7658 20.1964 27.6963 20.1651 27.634 20.1106C27.4929 19.9698 27.3368 19.7978 27.2274 19.6417C26.8997 19.2037 26.6097 18.7189 26.3523 18.2185C26.2263 17.9758 26.1177 17.7104 26.0162 17.4681C25.9689 17.3746 25.9689 17.2335 25.8904 17.1865C25.7728 17.3583 25.6015 17.507 25.5157 17.7176C25.3669 18.0543 25.3514 18.4684 25.2961 18.899L25.2654 18.9141C25.0164 18.8515 24.9297 18.5939 24.8352 18.3753C24.601 17.8199 24.5616 16.9284 24.7648 16.2877C24.8192 16.1238 25.0547 15.6078 24.9607 15.4517C24.9136 15.3021 24.7571 15.2169 24.6713 15.0991C24.5704 14.951 24.4599 14.7635 24.3896 14.599C24.2021 14.1614 24.1078 13.6766 23.9058 13.2392C23.8115 13.0354 23.6476 12.8245 23.5149 12.6368C23.3659 12.4258 23.2021 12.2773 23.0843 12.0272C23.0454 11.9412 22.9907 11.8006 23.0533 11.707C23.0686 11.6442 23.1004 11.6208 23.1628 11.6051C23.264 11.5195 23.5534 11.6283 23.6549 11.6754C23.9448 11.7926 24.1871 11.9021 24.429 12.0661C24.5384 12.1446 24.6558 12.2932 24.7962 12.3323H24.9607C25.2104 12.3867 25.4918 12.3474 25.7268 12.4181C26.1409 12.5512 26.5161 12.7464 26.8526 12.9571C27.8765 13.6065 28.7209 14.5291 29.2909 15.631C29.3844 15.8106 29.4242 15.9751 29.5096 16.1624C29.6743 16.5457 29.8779 16.9366 30.0413 17.3118C30.2056 17.6791 30.3621 18.054 30.5967 18.3591C30.7136 18.5232 31.1836 18.6092 31.3944 18.6952C31.5503 18.7653 31.793 18.8277 31.9336 18.9137C32.1996 19.0775 32.4645 19.2657 32.7146 19.4458C32.8391 19.5396 33.2304 19.735 33.2536 19.8915ZM25.2796 13.0982C25.1717 13.0971 25.0641 13.1103 24.9597 13.1375V13.1532H24.9747C25.0377 13.2781 25.1472 13.3648 25.2252 13.4738C25.2882 13.5991 25.3428 13.7234 25.4045 13.8486L25.4196 13.8331C25.5299 13.755 25.5847 13.6299 25.5847 13.4422C25.5372 13.387 25.5299 13.333 25.4903 13.2781C25.4443 13.1999 25.3428 13.161 25.2796 13.0982Z" fill="#5D87A1"/>
<path d="M33.9984 28.5277H34.1604V27.7351H33.9174L33.7193 28.276L33.504 27.7351H33.27V28.5277H33.423V27.9247H33.4315L33.6571 28.5277H33.7737L33.9984 27.9247V28.5277ZM32.6937 28.5277H32.8651V27.8694H33.0894V27.7349H32.46V27.8694H32.6933L32.6937 28.5277Z" fill="#F8981D"/>
</g>
<defs>
<clipPath id="clip0_2150_10656">
<rect width="40" height="40" fill="white" transform="translate(0.599609)"/>
</clipPath>
</defs>
</svg>
