<svg width="24" height="24" viewBox="0 0 24 24" fill="none" xmlns="http://www.w3.org/2000/svg">
<path fill-rule="evenodd" clip-rule="evenodd" d="M13.8652 1.5C13.7211 1.50201 13.5782 1.52734 13.4422 1.575C14.6534 2.3715 13.2247 3.525 13.8922 4.5C13.8462 4.17205 13.8984 3.83783 14.0421 3.53951C14.1859 3.24118 14.4148 2.99212 14.6999 2.82375C14.9137 2.646 15.0509 2.58225 15.0052 2.28825C14.9309 1.80675 14.2889 1.5 13.8652 1.5ZM15.5902 1.8105C15.4229 2.65275 15.2152 2.6835 14.5979 3.22575C14.3572 3.41555 14.1873 3.68083 14.1156 3.97889C14.0439 4.27696 14.0746 4.59048 14.2027 4.869C11.6527 3.879 8.38419 3.2805 5.98794 4.9935C5.12619 5.60925 4.60044 6.4935 3.53769 6.85425C2.85069 7.08975 2.17569 7.02 1.74519 7.701C1.58774 7.89764 1.50549 8.14394 1.51319 8.39573C1.52089 8.64752 1.61803 8.88834 1.78719 9.075C1.91544 9.20625 2.16219 9.29025 2.26419 9.42375C2.32344 9.49875 2.32194 9.57375 2.37819 9.6735C2.4776 9.90596 2.62126 10.1169 2.80119 10.2945C2.91144 10.3853 3.29019 10.4738 3.35469 10.5705C3.43569 10.6912 3.22569 11.1705 3.40194 11.2455C3.52044 11.3003 3.86769 10.6875 3.90144 10.6335C3.83244 11.1158 3.74169 11.9715 4.28394 11.259C4.54119 10.9207 4.55694 10.809 4.98969 10.734C5.26662 10.6859 5.54653 10.6568 5.82744 10.647C7.43221 10.5909 8.99739 11.1524 10.2005 12.2159C11.4035 13.2795 12.1528 14.764 12.2939 16.3635C12.2129 15.9885 11.7232 15.3885 11.2672 15.531C11.0729 15.591 11.0009 15.9262 10.8734 16.1205C10.7122 16.3668 10.5136 16.5864 10.2847 16.7715C10.3234 16.4079 10.3052 16.0405 10.2307 15.6825C10.0942 16.2435 9.82044 17.1742 9.13119 17.0235C8.90158 16.9884 8.68644 16.8896 8.51033 16.7381C8.33423 16.5867 8.20423 16.3888 8.13519 16.167C8.04594 15.597 8.64819 14.9287 7.67994 14.8815C5.73744 14.7862 6.18669 17.643 7.33344 18.3878C7.06989 18.4169 6.8128 18.4886 6.57219 18.6C7.30063 19.023 8.12142 19.2617 8.96313 19.2951C9.80485 19.3286 10.642 19.1559 11.4017 18.792C12.1614 18.4281 12.8207 17.884 13.3222 17.2072C13.8237 16.5304 14.1522 15.7413 14.2792 14.9085C14.4461 15.6711 14.4423 16.4613 14.2679 17.2222C14.1747 17.6266 14.0353 18.019 13.8524 18.3915C13.6045 18.8947 13.2751 19.3534 12.8774 19.749C12.6419 19.9823 12.2099 20.217 12.0614 20.4548C12.9704 20.3342 13.8586 20.09 14.7014 19.7288C13.829 20.9237 12.6671 21.8774 11.3249 22.5C12.764 22.3982 14.1551 21.9398 15.3728 21.1661C16.5905 20.3924 17.5964 19.3278 18.2999 18.0682C18.0757 19.3279 17.5778 20.5231 16.8412 21.5693C17.8319 20.906 18.6747 20.0451 19.3169 19.0406C19.959 18.036 20.3864 16.9096 20.5724 15.732C20.7571 16.594 20.81 17.4791 20.7292 18.357C21.543 17.2262 22.0928 15.9272 22.338 14.5557C22.5832 13.1843 22.5175 11.7752 22.1459 10.4325C21.8617 9.38868 21.4355 8.38884 20.8792 7.461C20.6644 7.09947 20.4293 6.75041 20.1749 6.4155C20.0752 6.28575 19.5419 5.811 19.5419 5.6655C19.5374 5.68 19.5337 5.68 19.5307 5.6655C19.5307 8.1015 16.9057 9.66525 14.7074 9.01275C15.5433 8.94792 16.3333 8.60486 16.9514 8.03836C17.5694 7.47185 17.9798 6.71459 18.1169 5.8875C18.2384 5.01979 18.0522 4.13694 17.5906 3.3922C17.1291 2.64746 16.4213 2.08785 15.5902 1.8105Z" fill="#EA2845"/>
</svg>
