<svg width="57" height="16" viewBox="0 0 57 16" fill="none" xmlns="http://www.w3.org/2000/svg">
<path d="M51.8273 5.70947C51.6912 5.70947 51.5589 5.73758 51.4418 5.80386L47.7353 7.94433C47.4954 8.08258 47.3496 8.34355 47.3496 8.62125V12.8944C47.3496 13.1719 47.4954 13.4326 47.7353 13.5711L48.7032 14.1299C49.1735 14.3617 49.3469 14.3581 49.561 14.3581C50.2572 14.3581 50.6548 13.9356 50.6548 13.2013V8.98318C50.6548 8.92357 50.6032 8.88091 50.5447 8.88091H50.0804C50.0209 8.88091 49.9702 8.92357 49.9702 8.98318V13.2013C49.9702 13.5267 49.6312 13.8541 49.081 13.579L48.0737 12.9888C48.038 12.9695 48.0107 12.9352 48.0107 12.8944V8.62115C48.0107 8.58068 48.0377 8.53944 48.0737 8.51888L51.7723 6.38639C51.789 6.37663 51.808 6.37148 51.8274 6.37148C51.8467 6.37148 51.8657 6.37663 51.8824 6.38639L55.5812 8.51899C55.6164 8.54021 55.6442 8.57947 55.6442 8.62136V12.8945C55.6442 12.9353 55.6236 12.9771 55.589 12.9968L51.8824 15.1294C51.8507 15.1483 51.807 15.1483 51.7723 15.1294L50.8201 14.5628C50.8056 14.555 50.7894 14.5509 50.7729 14.5509C50.7564 14.5509 50.7402 14.555 50.7257 14.5628C50.4629 14.7118 50.4134 14.7291 50.1669 14.8146C50.1062 14.8358 50.014 14.8688 50.1984 14.9721L51.4418 15.7038C51.559 15.7715 51.6921 15.8068 51.8274 15.8062C51.9628 15.8071 52.0958 15.7717 52.213 15.7039L55.9196 13.5712C56.1594 13.4318 56.3051 13.172 56.3051 12.8945V8.62125C56.3051 8.34366 56.1594 8.08313 55.9196 7.94455L52.213 5.80408C52.0968 5.73769 51.9636 5.70958 51.8274 5.70958L51.8273 5.70947Z" fill="#83CD29"/>
<path d="M52.8187 8.7627C51.7633 8.7627 51.1347 9.2119 51.1347 9.95893C51.1347 10.7692 51.7586 10.9919 52.7716 11.0921C53.9835 11.2107 54.0779 11.3887 54.0779 11.6272C54.0779 12.041 53.748 12.2174 52.9684 12.2174C51.9887 12.2174 51.7734 11.9729 51.7014 11.4856C51.6928 11.4333 51.6525 11.3911 51.599 11.3911H51.1189C51.0599 11.3911 51.0088 11.4421 51.0088 11.5013C51.0088 12.1251 51.3481 12.8627 52.9684 12.8627C54.1412 12.8627 54.8177 12.4024 54.8177 11.5957C54.8177 10.7962 54.2712 10.5815 53.1335 10.4311C51.984 10.279 51.8744 10.2045 51.8744 9.9353C51.8744 9.71305 51.9674 9.41577 52.8187 9.41577C53.5793 9.41577 53.8604 9.57984 53.9756 10.0927C53.9856 10.1408 54.0281 10.1792 54.0779 10.1792H54.558C54.5875 10.1792 54.6162 10.1611 54.6366 10.1398C54.6568 10.1172 54.671 10.0917 54.6681 10.0612C54.5938 9.1781 54.0049 8.7627 52.8187 8.7627Z" fill="#83CD29"/>
<path d="M30.0371 0.106496C29.9956 0.106524 29.9549 0.117342 29.919 0.137887C29.8832 0.158807 29.8535 0.188681 29.8328 0.224564C29.8121 0.260448 29.8011 0.301104 29.8009 0.342527V6.36275C29.8009 6.42181 29.7735 6.47475 29.7223 6.50439C29.6972 6.519 29.6687 6.5267 29.6397 6.5267C29.6106 6.5267 29.5821 6.519 29.557 6.50439L28.5733 5.93782C28.5016 5.89631 28.4201 5.87445 28.3372 5.87445C28.2543 5.87445 28.1729 5.89631 28.1011 5.93782L24.1743 8.20418C24.0275 8.28895 23.9382 8.45181 23.9382 8.62134V13.1542C23.9382 13.3235 24.0276 13.4786 24.1743 13.5633L28.1011 15.8298C28.1729 15.8714 28.2543 15.8934 28.3372 15.8934C28.4202 15.8934 28.5016 15.8714 28.5733 15.8298L32.5002 13.5633C32.5721 13.522 32.6318 13.4623 32.6733 13.3905C32.7147 13.3186 32.7365 13.2371 32.7363 13.1542V1.85354C32.7362 1.76865 32.7136 1.6853 32.6708 1.61201C32.6279 1.53872 32.5664 1.47812 32.4924 1.43639L30.1551 0.130012C30.1185 0.109559 30.0778 0.105949 30.0371 0.106496ZM4.77583 5.76468C4.70102 5.76764 4.63058 5.78076 4.56342 5.8197L0.636424 8.08617C0.564489 8.12749 0.504766 8.18711 0.463313 8.25897C0.421859 8.33083 0.400152 8.41238 0.400393 8.49534L0.408268 14.5787C0.408268 14.6632 0.451908 14.7419 0.526283 14.7832C0.56194 14.8046 0.602755 14.8159 0.644354 14.8159C0.685952 14.8159 0.726767 14.8046 0.762424 14.7832L3.09178 13.4454C3.23933 13.3577 3.33569 13.2052 3.33569 13.0361V10.1952C3.33569 10.0257 3.42483 9.87018 3.57183 9.78596L4.56331 9.21153C4.635 9.16984 4.71653 9.14809 4.79946 9.14853C4.88039 9.14853 4.96352 9.16876 5.03549 9.21153L6.02708 9.78596C6.09908 9.82725 6.15886 9.88687 6.20034 9.95876C6.24182 10.0307 6.26351 10.1122 6.26322 10.1952V13.036C6.26322 13.2051 6.36056 13.3587 6.50713 13.4453L8.83649 14.7832C8.87214 14.8046 8.91296 14.8159 8.95456 14.8159C8.99616 14.8159 9.03697 14.8046 9.07263 14.7832C9.10852 14.7624 9.13832 14.7326 9.15905 14.6967C9.17978 14.6608 9.19072 14.62 9.19075 14.5786L9.19841 8.49534C9.19888 8.41233 9.17726 8.3307 9.13579 8.2588C9.09431 8.1869 9.03446 8.12732 8.96238 8.08617L5.03549 5.8197C4.9691 5.78076 4.89844 5.76775 4.82308 5.76468H4.77583ZM40.0628 5.8197C39.9808 5.8197 39.9004 5.84048 39.8268 5.8827L35.8999 8.14917C35.828 8.19053 35.7683 8.25015 35.7268 8.322C35.6854 8.39385 35.6636 8.47538 35.6638 8.55834V13.0912C35.6638 13.2617 35.7598 13.4161 35.9077 13.5004L39.8032 15.7197C39.947 15.8017 40.1227 15.8079 40.2675 15.7273L42.6283 14.4132C42.7033 14.3716 42.7539 14.294 42.7542 14.2087C42.7546 14.1671 42.7439 14.1262 42.7231 14.0902C42.7024 14.0542 42.6724 14.0245 42.6362 14.004L38.6857 11.7375C38.6118 11.6953 38.5598 11.6099 38.5598 11.525V10.1086C38.5598 10.0239 38.6123 9.9462 38.6857 9.90398L39.9133 9.19567C39.9492 9.1749 39.9899 9.16396 40.0314 9.16396C40.0728 9.16396 40.1136 9.1749 40.1495 9.19567L41.377 9.90398C41.4129 9.92464 41.4428 9.95444 41.4635 9.99036C41.4843 10.0263 41.4952 10.067 41.4951 10.1085V11.226C41.495 11.2675 41.5058 11.3082 41.5266 11.3441C41.5473 11.3801 41.5772 11.4099 41.6131 11.4305C41.6867 11.4731 41.7758 11.4732 41.8491 11.4305L44.2022 10.0615C44.274 10.0199 44.3336 9.96027 44.3751 9.88843C44.4165 9.8166 44.4383 9.73513 44.4384 9.6522V8.55845C44.4384 8.38946 44.3487 8.23404 44.2022 8.14917L40.299 5.8827C40.2272 5.84119 40.1457 5.81938 40.0628 5.8197ZM28.3214 9.20365C28.342 9.20365 28.3661 9.20868 28.3844 9.21929L29.7302 9.99837C29.7667 10.0195 29.7932 10.0585 29.7932 10.1006V11.6588C29.7932 11.7011 29.7669 11.7401 29.7302 11.7612L28.3844 12.5402C28.3665 12.5505 28.3461 12.5559 28.3254 12.5559C28.3047 12.5559 28.2844 12.5505 28.2664 12.5402L26.9208 11.7612C26.8841 11.7399 26.8578 11.7011 26.8578 11.6588V10.1006C26.8578 10.0584 26.8842 10.0197 26.9208 9.99837L28.2664 9.2194C28.283 9.20911 28.3021 9.20369 28.3215 9.20376L28.3214 9.20365Z" fill="#909090"/>
<path d="M16.5719 5.7959C16.4901 5.7959 16.4092 5.81668 16.3359 5.8589L12.409 8.11749C12.2621 8.20204 12.1729 8.36523 12.1729 8.53454V13.0674C12.1729 13.2369 12.2622 13.3918 12.409 13.4767L16.3359 15.743C16.4076 15.7847 16.489 15.8066 16.572 15.8066C16.6549 15.8066 16.7363 15.7847 16.8081 15.743L20.7349 13.4767C20.8068 13.4352 20.8665 13.3756 20.908 13.3037C20.9494 13.2319 20.9711 13.1503 20.971 13.0674V8.53454C20.971 8.36501 20.8817 8.20204 20.7349 8.11749L16.8081 5.8589C16.7363 5.81744 16.6548 5.79571 16.5719 5.7959ZM40.0546 9.84092C40.039 9.84092 40.0216 9.84092 40.0075 9.84879L39.252 10.2895C39.2379 10.2973 39.2261 10.3087 39.2179 10.3225C39.2096 10.3363 39.205 10.3521 39.2048 10.3682V11.2338C39.2048 11.2664 39.2236 11.2963 39.252 11.3126L40.0075 11.7454C40.0358 11.7618 40.066 11.7618 40.094 11.7454L40.8494 11.3124C40.8635 11.3046 40.8752 11.2932 40.8835 11.2794C40.8918 11.2656 40.8963 11.2499 40.8967 11.2338V10.3681C40.8963 10.352 40.8918 10.3363 40.8835 10.3225C40.8752 10.3087 40.8635 10.2973 40.8494 10.2895L40.094 9.84868C40.08 9.84048 40.0704 9.84092 40.0546 9.84092Z" fill="#83CD29"/>
</svg>
