<svg width="24" height="24" viewBox="0 0 24 24" fill="none" xmlns="http://www.w3.org/2000/svg">
<path d="M12 22.5C17.799 22.5 22.5 17.799 22.5 12C22.5 6.20101 17.799 1.5 12 1.5C6.20101 1.5 1.5 6.20101 1.5 12C1.5 17.799 6.20101 22.5 12 22.5Z" fill="#8892BF"/>
<path d="M10.8295 7.5H12.0895L11.7334 9.39315H12.8656C13.4865 9.40643 13.949 9.54517 14.2534 9.80947C14.5639 10.0737 14.6552 10.5761 14.5274 11.3161L13.9156 14.6167H12.6373L13.2217 11.4647C13.2825 11.1343 13.2643 10.8997 13.1669 10.761C13.0696 10.6222 12.8596 10.5529 12.5369 10.5529L11.5234 10.543L10.7746 14.6167H9.51465L10.8295 7.5Z" fill="white"/>
<path fill-rule="evenodd" clip-rule="evenodd" d="M5.05569 9.39355H7.5027C8.2209 9.40008 8.7414 9.62486 9.06405 10.0675C9.3867 10.5102 9.4932 11.1148 9.38363 11.8814C9.3411 12.2317 9.24668 12.5752 9.10057 12.9123C8.96055 13.2492 8.76585 13.5531 8.51625 13.8241C8.21182 14.1677 7.88618 14.3857 7.53923 14.4783C7.19227 14.5709 6.83307 14.6171 6.46181 14.6171H5.36613L5.01917 16.5003H3.75L5.05569 9.39355ZM5.57614 13.497L6.12215 10.5334H6.30659C6.37361 10.5334 6.44355 10.53 6.5166 10.5235C7.00363 10.5169 7.4083 10.5665 7.731 10.6722C8.05965 10.7778 8.16922 11.1777 8.05965 11.8715C7.92585 12.6975 7.66395 13.1799 7.27444 13.3186C6.88492 13.4508 6.3979 13.5135 5.81353 13.5069H5.6857C5.64918 13.5069 5.61266 13.5036 5.57614 13.497Z" fill="white"/>
<path fill-rule="evenodd" clip-rule="evenodd" d="M18.3274 9.39355H15.8804L14.5747 16.5003H15.8439L16.1909 14.6171H17.2866C17.6578 14.6171 18.017 14.5709 18.3639 14.4783C18.711 14.3857 19.0365 14.1677 19.341 13.8241C19.5906 13.5531 19.7853 13.2492 19.9253 12.9123C20.0714 12.5752 20.1658 12.2317 20.2083 11.8814C20.3179 11.1148 20.2115 10.5102 19.8888 10.0675C19.5661 9.62486 19.0457 9.40008 18.3274 9.39355ZM16.9469 10.5334L16.4009 13.497C16.4374 13.5036 16.4739 13.5069 16.5105 13.5069H16.6383C17.2227 13.5135 17.7096 13.4508 18.0992 13.3186C18.4887 13.1799 18.7506 12.6975 18.8844 11.8715C18.994 11.1777 18.8844 10.7778 18.5557 10.6722C18.2331 10.5665 17.8284 10.5169 17.3413 10.5235C17.2683 10.53 17.1984 10.5334 17.1313 10.5334H16.9469Z" fill="white"/>
</svg>
