<svg width="24" height="24" viewBox="0 0 24 24" fill="none" xmlns="http://www.w3.org/2000/svg">
<path fill-rule="evenodd" clip-rule="evenodd" d="M9.7623 1.5C8.11447 1.5 6.77869 2.7934 6.77869 4.38889V6.38889H11.9426V6.94445H4.4836C2.8358 6.94445 1.5 8.23785 1.5 9.83333V14.1667C1.5 15.7622 2.8358 17.0555 4.4836 17.0555H6.20491V14.6111C6.20491 13.0157 7.54072 11.7222 9.18855 11.7222H14.6967C16.091 11.7222 17.2213 10.6278 17.2213 9.2778V4.38889C17.2213 2.7934 15.8855 1.5 14.2377 1.5H9.7623ZM9.0738 5.05556C9.64417 5.05556 10.1065 4.60784 10.1065 4.05556C10.1065 3.50327 9.64417 3.05555 9.0738 3.05555C8.50335 3.05555 8.04097 3.50327 8.04097 4.05556C8.04097 4.60784 8.50335 5.05556 9.0738 5.05556Z" fill="url(#paint0_linear_3290_5182)"/>
<path fill-rule="evenodd" clip-rule="evenodd" d="M14.2378 22.4999C15.8856 22.4999 17.2214 21.2065 17.2214 19.611V17.611H12.0575V17.0555H19.5165C21.1643 17.0555 22.5001 15.762 22.5001 14.1666V9.8332C22.5001 8.23773 21.1643 6.94434 19.5165 6.94434H17.7952V9.38875C17.7952 10.9843 16.4594 12.2777 14.8116 12.2777H9.30339C7.90907 12.2777 6.77881 13.3721 6.77881 14.7221V19.611C6.77881 21.2065 8.11464 22.4999 9.76239 22.4999H14.2378ZM14.9264 18.9443C14.3559 18.9443 13.8935 19.392 13.8935 19.9443C13.8935 20.4966 14.3559 20.9443 14.9264 20.9443C15.4967 20.9443 15.9591 20.4966 15.9591 19.9443C15.9591 19.392 15.4967 18.9443 14.9264 18.9443Z" fill="url(#paint1_linear_3290_5182)"/>
<defs>
<linearGradient id="paint0_linear_3290_5182" x1="9.36067" y1="1.5" x2="9.36067" y2="17.0555" gradientUnits="userSpaceOnUse">
<stop stop-color="#327EBD"/>
<stop offset="1" stop-color="#1565A7"/>
</linearGradient>
<linearGradient id="paint1_linear_3290_5182" x1="14.6395" y1="6.94434" x2="14.6395" y2="22.4999" gradientUnits="userSpaceOnUse">
<stop stop-color="#FFDA4B"/>
<stop offset="1" stop-color="#F9C600"/>
</linearGradient>
</defs>
</svg>
