<svg width="24" height="24" viewBox="0 0 24 24" fill="none" xmlns="http://www.w3.org/2000/svg">
<g clip-path="url(#clip0_2755_4415)">
<path fill-rule="evenodd" clip-rule="evenodd" d="M18.3818 7.95847C18.7966 6.32965 19.3181 3.30916 17.4798 2.28512C15.65 1.26554 13.269 3.21924 12.0117 4.39194C10.758 3.23092 8.31008 1.28558 6.47333 2.31287C4.64431 3.33587 5.20833 6.30628 5.63239 7.94532C3.92623 8.41352 1.00146 9.42198 1.00146 11.4824C1.00146 13.5369 3.92318 14.6341 5.61925 15.1019C5.19362 16.75 4.65784 19.678 6.4892 20.6987C8.33282 21.7258 10.7731 19.8267 12.0421 18.6412C13.3075 19.8208 15.6656 21.7323 17.4957 20.7087C19.3316 19.6819 18.8534 16.7019 18.4294 15.0534C20.0735 14.5846 23.0015 13.5113 23.0015 11.4824C23.0015 9.44179 20.061 8.42514 18.3818 7.95847ZM18.1733 14.1797C17.8949 13.3281 17.5191 12.4224 17.0593 11.4869C17.4982 10.5735 17.8594 9.67951 18.1301 8.83335C19.3611 9.1782 22.0617 9.96633 22.0617 11.4824C22.0617 13.0127 19.4702 13.8083 18.1733 14.1797ZM17.0248 19.9228C15.6593 20.6865 13.631 18.8586 12.6965 17.9899C13.3165 17.3348 13.936 16.5731 14.5406 15.7274C15.6043 15.6363 16.609 15.4872 17.5202 15.2837C17.8187 16.4498 18.3963 19.1558 17.0248 19.9228ZM6.95879 19.912C5.59318 19.1512 6.21736 16.5384 6.53048 15.3243C7.43158 15.517 8.42911 15.6555 9.49522 15.739C10.1038 16.5666 10.7413 17.3272 11.3837 17.9934C10.59 18.7352 8.33077 20.6763 6.95879 19.912ZM1.94122 11.4824C1.94122 9.94638 4.62565 9.16395 5.88476 8.81998C6.16011 9.68513 6.52123 10.5898 6.95703 11.5045C6.51558 12.4329 6.1493 13.3518 5.87142 14.2272C4.67084 13.8952 1.94122 13.0193 1.94122 11.4824ZM6.94418 3.09874C8.31536 2.33189 10.4429 4.19949 11.3531 5.04009C10.714 5.7032 10.0824 6.45813 9.47902 7.2809C8.44436 7.37356 7.45388 7.52235 6.54333 7.7217C6.20171 6.39975 5.57447 3.86477 6.94418 3.09874ZM15.213 8.26788C15.9149 8.35345 16.5874 8.46731 17.2189 8.60659C17.0293 9.19369 16.7931 9.80761 16.5148 10.4369C16.1114 9.69741 15.6783 8.97271 15.213 8.26788ZM12.012 5.689C12.4454 6.14271 12.8796 6.64937 13.3067 7.19906C12.4404 7.15945 11.5727 7.1593 10.7064 7.19847C11.1339 6.65389 11.5717 6.14798 12.012 5.689ZM7.49623 10.4363C7.22254 9.80915 6.98838 9.19252 6.79716 8.59702C7.42486 8.46131 8.09426 8.35038 8.79167 8.2662C8.32497 8.96949 7.89267 9.6939 7.49623 10.4363ZM8.81169 14.7634C8.09126 14.6857 7.41172 14.5804 6.78421 14.4484C6.97845 13.8425 7.21777 13.2126 7.4973 12.5719C7.8992 13.322 8.3381 14.0535 8.81169 14.7634ZM12.038 17.3399C11.5926 16.8755 11.1482 16.3619 10.7143 15.8094C11.5855 15.8424 12.4584 15.8425 13.3295 15.805C12.9011 16.3675 12.4685 16.8819 12.038 17.3399ZM16.5237 12.5393C16.8178 13.1869 17.0656 13.8134 17.2625 14.4091C16.6246 14.5498 15.9359 14.6631 15.2103 14.7472C15.6791 14.029 16.1191 13.293 16.5237 12.5393ZM14.0162 14.8572C12.6835 14.9492 11.3426 14.9482 10.0096 14.8648C9.25212 13.7957 8.57782 12.6714 7.99578 11.5042C8.57504 10.3395 9.24442 9.21737 9.99829 8.15001C11.3323 8.0526 12.6745 8.0523 14.0085 8.15059C14.7559 9.21788 15.4243 10.3371 16.017 11.4913C15.4313 12.6555 14.7584 13.7799 14.0162 14.8572ZM17.0104 3.07175C18.3819 3.83609 17.7714 6.55069 17.4718 7.73113C16.5591 7.52761 15.5679 7.37619 14.5302 7.28207C13.9257 6.45041 13.2993 5.69417 12.6706 5.03963C13.5924 4.18091 15.6521 2.31488 17.0104 3.07175Z" fill="#53C1DE"/>
<path d="M14.0015 11.5C14.0015 10.6716 13.1061 10 12.0015 10C10.897 10 10.0015 10.6716 10.0015 11.5C10.0015 12.3284 10.897 13 12.0015 13C13.1061 13 14.0015 12.3284 14.0015 11.5Z" fill="#53C1DE"/>
</g>
<defs>
<clipPath id="clip0_2755_4415">
<rect width="24" height="24" fill="white" transform="translate(0.000976562)"/>
</clipPath>
</defs>
</svg>
