<svg width="40" height="40" viewBox="0 0 40 40" fill="none" xmlns="http://www.w3.org/2000/svg">
<path fill-rule="evenodd" clip-rule="evenodd" d="M31.8105 13.6625C32.5459 10.7478 33.4704 5.3427 30.2115 3.51021C26.9679 1.6857 22.7469 5.18179 20.5181 7.28031C18.2957 5.2027 13.9562 1.72156 10.7001 3.55987C7.45776 5.3905 8.45763 10.706 9.20937 13.639C6.1848 14.4768 1 16.2814 1 19.9685C1 23.6451 6.17941 25.6084 9.18607 26.4455C8.43155 29.3947 7.48175 34.6343 10.7283 36.4608C13.9965 38.2988 18.3225 34.9005 20.572 32.779C22.8152 34.8899 26.9956 38.3104 30.2399 36.4788C33.4943 34.6413 32.6467 29.3087 31.8949 26.3587C34.8095 25.5198 40 23.5992 40 19.9685C40 16.3169 34.7874 14.4976 31.8105 13.6625ZM31.4411 24.7953C30.9475 23.2713 30.2812 21.6507 29.4662 19.9766C30.2442 18.342 30.8845 16.7423 31.3644 15.2281C33.5467 15.8452 38.334 17.2555 38.334 19.9685C38.334 22.7069 33.74 24.1306 31.4411 24.7953ZM29.405 35.0725C26.9844 36.439 23.3887 33.1679 21.7321 31.6135C22.8312 30.4411 23.9294 29.0783 25.0012 27.5649C26.8868 27.4018 28.6679 27.135 30.2833 26.7708C30.8124 28.8575 31.8363 33.6998 29.405 35.0725ZM11.5607 35.053C9.13986 33.6915 10.2464 29.016 10.8014 26.8435C12.3988 27.1882 14.1672 27.4362 16.0571 27.5857C17.136 29.0665 18.2661 30.4277 19.4049 31.6198C17.9979 32.9472 13.9928 36.4207 11.5607 35.053ZM2.66594 19.9685C2.66594 17.2198 7.42469 15.8197 9.65675 15.2042C10.1449 16.7523 10.785 18.3711 11.5576 20.0081C10.775 21.6694 10.1257 23.3138 9.6331 24.8803C7.5048 24.2861 2.66594 22.7188 2.66594 19.9685ZM11.5348 4.96617C13.9655 3.5939 17.7371 6.93593 19.3507 8.44017C18.2177 9.62678 17.098 10.9777 16.0284 12.45C14.1942 12.6159 12.4384 12.8821 10.8242 13.2388C10.2186 10.8732 9.1067 6.33695 11.5348 4.96617ZM26.1931 14.2162C27.4374 14.3693 28.6297 14.5731 29.7491 14.8223C29.4131 15.8729 28.9942 16.9715 28.5008 18.0977C27.7857 16.7743 27.0181 15.4775 26.1931 14.2162ZM20.5186 9.60136C21.287 10.4133 22.0566 11.3199 22.8137 12.3036C21.278 12.2327 19.7399 12.2324 18.2042 12.3025C18.962 11.328 19.7382 10.4227 20.5186 9.60136ZM12.5134 18.0965C12.0283 16.9743 11.6132 15.8708 11.2742 14.8052C12.3869 14.5624 13.5736 14.3638 14.8099 14.2132C13.9826 15.4717 13.2162 16.768 12.5134 18.0965ZM14.8454 25.8398C13.5683 25.7008 12.3636 25.5123 11.2512 25.2761C11.5956 24.1918 12.0198 23.0646 12.5153 21.9181C13.2278 23.2605 14.0058 24.5693 14.8454 25.8398ZM20.5647 30.4504C19.7751 29.6194 18.9874 28.7002 18.2182 27.7116C19.7626 27.7707 21.31 27.7708 22.8543 27.7036C22.0948 28.7103 21.328 29.6308 20.5647 30.4504ZM28.5167 21.8598C29.038 23.0187 29.4774 24.1398 29.8265 25.2058C28.6956 25.4575 27.4748 25.6602 26.1884 25.8107C27.0195 24.5255 27.7994 23.2086 28.5167 21.8598ZM24.0715 26.0077C21.7091 26.1723 19.3321 26.1705 16.9689 26.0211C15.6262 24.1081 14.4308 22.0962 13.399 20.0076C14.4259 17.9233 15.6125 15.9153 16.9489 14.0053C19.3137 13.831 21.6931 13.8304 24.058 14.0063C25.3829 15.9162 26.5677 17.9189 27.6184 19.9844C26.5802 22.0677 25.3873 24.0797 24.0715 26.0077ZM29.3794 4.91786C31.8108 6.28563 30.7285 11.1433 30.1973 13.2557C28.5794 12.8915 26.8223 12.6206 24.9828 12.4521C23.9111 10.9639 22.8007 9.61062 21.6861 8.43933C23.3203 6.90269 26.9715 3.56347 29.3794 4.91786Z" fill="#53C1DE"/>
<path d="M25.1072 19.9657C25.1072 17.7244 23.0459 15.9072 20.5028 15.9072C17.9601 15.9072 15.8984 17.7244 15.8984 19.9657C15.8984 22.2072 17.9601 24.0243 20.5028 24.0243C23.0459 24.0243 25.1072 22.2072 25.1072 19.9657Z" fill="#53C1DE"/>
</svg>
