<svg width="24" height="24" viewBox="0 0 24 24" fill="none" xmlns="http://www.w3.org/2000/svg">
<g clip-path="url(#clip0_3290_5124)">
<path d="M12.0005 13.6622C12.928 13.6622 13.6798 12.9104 13.6798 11.983C13.6798 11.0555 12.928 10.3037 12.0005 10.3037C11.0731 10.3037 10.3213 11.0555 10.3213 11.983C10.3213 12.9104 11.0731 13.6622 12.0005 13.6622Z" fill="#00D8FF"/>
<path fill-rule="evenodd" clip-rule="evenodd" d="M12.1237 8.44345C14.9869 8.46295 18.1106 8.67182 20.2549 10.5839C20.3179 10.6402 20.3786 10.6987 20.4379 10.7591C20.9437 11.2747 21.2081 12.1072 20.7997 12.7923C19.962 14.1989 18.0885 14.8124 16.2746 15.1901C13.5619 15.7548 10.7254 15.7593 8.01373 15.2621C6.45335 14.9756 4.85773 14.4734 3.74885 13.4231C3.31723 13.0143 2.94823 12.4766 3.00598 11.8781C3.09973 10.9098 4.0286 10.2884 4.81048 9.8677C6.9821 8.6992 9.6281 8.43782 12.1237 8.44345ZM11.916 8.88332C9.20698 8.9017 6.27485 9.07457 4.1831 10.8067C4.10998 10.8671 4.03948 10.9304 3.9716 10.9968C3.92773 11.0396 3.88535 11.0842 3.84448 11.1299C3.47735 11.5424 3.35098 12.2051 3.69748 12.7004C4.04623 13.1988 4.57573 13.5584 5.12098 13.8517C7.16023 14.9482 9.56998 15.1428 11.9194 15.1511C14.298 15.1597 16.7509 14.9429 18.852 13.8566C19.689 13.4234 20.631 12.7874 20.5976 11.9684C20.5669 11.2169 19.8341 10.7527 19.2855 10.4212C19.137 10.3316 18.9844 10.2487 18.8295 10.1707C16.7437 9.12557 14.2995 8.87807 11.916 8.88332Z" fill="#00D8FF"/>
<path fill-rule="evenodd" clip-rule="evenodd" d="M15.7933 4.0139C16.8407 4.04052 17.3833 5.29977 17.4549 6.22977C17.4692 6.41465 17.4744 6.60027 17.4722 6.7859C17.4699 6.9869 17.4591 7.1879 17.4414 7.38815C17.2206 9.86765 16.0884 12.229 14.7553 14.4096C13.4514 16.5426 11.8614 18.6696 9.69844 19.6581C8.98332 19.9851 8.13282 20.1869 7.49982 19.822C6.63207 19.3221 6.53719 18.1529 6.55332 17.266C6.55744 17.0481 6.57169 16.8303 6.59419 16.6131C6.92757 13.4031 8.55469 10.3623 10.5909 7.74252C11.7789 6.21402 13.1923 4.6979 14.9529 4.1489C15.2301 4.06227 15.4502 4.00977 15.7933 4.0139ZM15.7431 4.4534C14.5134 4.4729 13.4094 5.38415 12.4318 6.33102C9.86157 8.8199 7.96744 12.13 7.20544 15.6014C7.14657 15.8703 7.09707 16.141 7.06069 16.4136C7.03257 16.6248 7.01194 16.837 7.00107 17.05C6.99244 17.2195 6.98944 17.3894 6.99469 17.5593C6.99844 17.692 7.00707 17.8248 7.02169 17.9568C7.03257 18.0576 7.04719 18.1581 7.06557 18.2579C7.07944 18.3318 7.09557 18.4053 7.11432 18.4784C7.12969 18.5376 7.14694 18.5965 7.16644 18.655C7.31982 19.1174 7.71507 19.5591 8.24569 19.5738C9.48357 19.6075 10.6491 18.7049 11.6567 17.7239C13.4256 16.0023 14.7437 13.8389 15.7734 11.5649C16.6044 9.7289 17.3646 7.73315 16.9401 5.71227C16.9239 5.63577 16.9052 5.56002 16.8838 5.48502C16.8662 5.4239 16.8463 5.36352 16.8246 5.3039C16.6596 4.85427 16.2714 4.45227 15.7431 4.4534Z" fill="#00D8FF"/>
<path fill-rule="evenodd" clip-rule="evenodd" d="M8.29098 4.03031C9.62748 4.05618 10.8279 4.96331 11.8936 5.97918C13.8384 7.83281 15.2727 10.1908 16.361 12.6726C17.204 14.5952 17.9795 16.7533 17.2902 18.7821C17.0731 19.4214 16.5237 20.0064 15.7914 20.0214C14.4485 20.0484 13.2039 19.0719 12.1239 18.0208C9.41448 15.3831 7.40298 11.9008 6.71373 8.20781C6.66423 7.94381 6.62486 7.67756 6.59786 7.41018C6.57573 7.19193 6.56186 6.97256 6.55811 6.75318C6.55511 6.57618 6.55886 6.39918 6.57123 6.22293C6.57948 6.10518 6.59148 5.98818 6.60761 5.87156C6.62298 5.76206 6.64248 5.65293 6.66686 5.54493C6.68298 5.47331 6.70098 5.40243 6.72161 5.33193C6.92373 4.64081 7.44948 4.02506 8.29098 4.03031ZM8.24036 4.47018C7.45773 4.48743 7.09961 5.41031 7.02761 6.05793C7.01298 6.19068 7.00398 6.32456 6.99986 6.45843C6.99461 6.62943 6.99686 6.80081 7.00548 6.97181C7.12848 9.44643 8.23473 11.8389 9.56973 14.0297C10.8267 16.0922 12.3447 18.1464 14.4327 19.2024C15.0357 19.5073 15.7685 19.7469 16.2894 19.4589C16.9426 19.0974 17.0229 18.2361 17.0577 17.5941C17.0671 17.4193 17.0682 17.2438 17.0626 17.0687C17.0559 16.8489 17.0386 16.6296 17.0127 16.4113C16.772 14.3724 15.869 12.4431 14.8317 10.6198C13.541 8.35181 11.9596 6.09131 9.72161 4.91043C9.25811 4.66593 8.75636 4.46606 8.24036 4.47018Z" fill="#00D8FF"/>
</g>
<defs>
<clipPath id="clip0_3290_5124">
<rect width="24" height="24" fill="white"/>
</clipPath>
</defs>
</svg>
