<svg width="41" height="40" viewBox="0 0 41 40" fill="none" xmlns="http://www.w3.org/2000/svg">
<g clip-path="url(#clip0_2150_10700)">
<path d="M34.6869 16.5585C34.571 15.344 34.2747 14.1827 33.8251 13.1009C32.0139 8.74229 27.7168 5.67676 22.7027 5.67676C20.3634 5.67676 18.1804 6.34413 16.3333 7.49843C13.4789 9.28234 11.4263 12.2302 10.8375 15.6768H9.46456C4.71215 15.6773 0.859375 19.5296 0.859375 24.282C0.859375 29.0344 4.71215 32.8872 9.46456 32.8872H30.8921C35.6441 32.8872 39.4969 29.0344 39.4969 24.282C39.4969 20.892 37.5356 17.9613 34.6869 16.5585Z" fill="#69E3FF"/>
<path d="M19.0536 11.2842C19.5062 11.0963 19.5403 10.6796 19.5403 10.5549C19.5403 10.432 19.5062 10.0135 19.0536 9.82563C18.8264 9.73169 18.6488 9.55406 18.5548 9.3269C18.4609 9.09975 18.4609 8.84868 18.5548 8.62152L19.156 7.17147C19.3507 6.70178 19.8904 6.47804 20.3618 6.67274C20.8144 6.86062 21.1338 6.58906 21.2209 6.50195C21.308 6.41484 21.5796 6.09375 21.3917 5.64285C21.2978 5.41569 21.2978 5.16462 21.3917 4.93746C21.4857 4.71031 21.6633 4.53268 21.8905 4.43874L23.3405 3.83754C23.8102 3.64284 24.3499 3.86658 24.5463 4.33627C24.7342 4.78716 25.1509 4.82303 25.2756 4.82303C25.3986 4.82303 25.817 4.78887 26.0049 4.33627C26.0989 4.10911 26.2765 3.93148 26.5036 3.83754C26.7308 3.74361 26.9819 3.74361 27.209 3.83754L28.6591 4.43874C28.8862 4.53268 29.0639 4.71031 29.1578 4.93746C29.2517 5.16462 29.2517 5.41569 29.1578 5.64285C28.9699 6.09546 29.2415 6.41484 29.3286 6.50195C29.4157 6.58906 29.7368 6.86062 30.1877 6.67274C30.4149 6.57881 30.6659 6.57881 30.8931 6.67274C31.1202 6.76668 31.2979 6.94431 31.3918 7.17147L31.993 8.62152C32.0869 8.84868 32.0869 9.09975 31.993 9.3269C31.8991 9.55406 31.7214 9.73169 31.4943 9.82563C31.0434 10.0135 31.0075 10.4302 31.0075 10.5549C31.0075 10.6796 31.0434 11.0963 31.4943 11.2842C31.964 11.4789 32.1877 12.0203 31.993 12.49L31.3918 13.9401C31.2979 14.1672 31.1202 14.3449 30.8931 14.4388C30.6659 14.5327 30.4149 14.5327 30.1877 14.4388C29.7368 14.2526 29.4157 14.5225 29.3286 14.6096C29.2415 14.6967 28.9699 15.0178 29.1578 15.4687C29.3525 15.9384 29.1288 16.4798 28.6591 16.6745L27.209 17.2757C27.0946 17.3235 26.975 17.3457 26.8555 17.3457C26.7359 17.3457 26.6164 17.3218 26.5019 17.2757C26.2748 17.1818 26.0971 17.0042 26.0032 16.777C25.8153 16.3244 25.3986 16.2902 25.2739 16.2902C25.1509 16.2902 24.7325 16.3244 24.5446 16.777C24.3499 17.2467 23.8085 17.4704 23.3388 17.2757L21.8888 16.6745C21.4191 16.4798 21.1953 15.9384 21.39 15.4687C21.5779 15.0161 21.3063 14.6967 21.2192 14.6096C21.1321 14.5225 20.8127 14.2509 20.3601 14.4388C19.8904 14.6318 19.3507 14.4081 19.156 13.9384L18.5548 12.4883C18.3601 12.0186 18.5839 11.4789 19.0536 11.2842ZM25.2756 13.1015C26.6796 13.1015 27.8222 11.9589 27.8222 10.5549C27.8222 9.15099 26.6796 8.00836 25.2756 8.00836C23.8717 8.00836 22.7291 9.15099 22.7291 10.5549C22.7291 11.9589 23.8717 13.1015 25.2756 13.1015Z" fill="#F9F9F9"/>
<path d="M18.8633 27.3164H15.8482C15.6059 27.3164 15.4092 27.1201 15.4092 26.8773V20.9166C15.4092 20.6738 15.6059 20.4775 15.8482 20.4775H18.8633C19.1056 20.4775 19.3023 20.6738 19.3023 20.9166C19.3023 21.1594 19.1056 21.3557 18.8633 21.3557H16.2873V26.4383H18.8633C19.1056 26.4383 19.3023 26.6345 19.3023 26.8773C19.3023 27.1201 19.1061 27.3164 18.8633 27.3164Z" fill="black"/>
<path d="M17.9492 24.3361H15.8482C15.6059 24.3361 15.4092 24.1399 15.4092 23.8971C15.4092 23.6543 15.6059 23.458 15.8482 23.458H17.9492C18.1915 23.458 18.3882 23.6543 18.3882 23.8971C18.3882 24.1399 18.192 24.3361 17.9492 24.3361Z" fill="black"/>
<path d="M11.7022 24.336H9.65C9.40764 24.336 9.21094 24.1398 9.21094 23.897V20.9166C9.21094 20.6738 9.40764 20.4775 9.65 20.4775H11.7022C12.5728 20.4775 13.281 21.1857 13.281 22.0564V22.7576C13.281 23.6274 12.5728 24.336 11.7022 24.336ZM10.0891 23.4579H11.7022C12.0886 23.4579 12.4029 23.1435 12.4029 22.7572V22.056C12.4029 21.6696 12.0886 21.3552 11.7022 21.3552H10.0891V23.4579Z" fill="black"/>
<path d="M12.842 27.3165C12.5996 27.3165 12.4029 27.1202 12.4029 26.8774V25.0369C12.4029 24.6505 12.0886 24.3361 11.7022 24.3361H10.0891V26.8774C10.0891 27.1202 9.89236 27.3165 9.65 27.3165C9.40764 27.3165 9.21094 27.1202 9.21094 26.8774V23.8971C9.21094 23.6543 9.40764 23.458 9.65 23.458H11.7022C12.5728 23.458 13.281 24.1662 13.281 25.0369V26.8774C13.281 27.1202 13.0843 27.3165 12.842 27.3165Z" fill="black"/>
<path d="M30.7051 21.3557H26.9449C26.7021 21.3557 26.5059 21.1594 26.5059 20.9166C26.5059 20.6738 26.7021 20.4775 26.9449 20.4775H30.7051C30.9479 20.4775 31.1441 20.6738 31.1441 20.9166C31.1441 21.1594 30.9474 21.3557 30.7051 21.3557Z" fill="black"/>
<path d="M28.8248 27.3164C28.582 27.3164 28.3857 27.1201 28.3857 26.8773V20.9166C28.3857 20.6738 28.582 20.4775 28.8248 20.4775C29.0676 20.4775 29.2639 20.6738 29.2639 20.9166V26.8773C29.2639 27.1201 29.0676 27.3164 28.8248 27.3164Z" fill="black"/>
<path d="M23.1259 27.3165H22.5731C21.6669 27.3165 20.9297 26.5999 20.9297 25.7192C20.9297 25.4764 21.1259 25.2801 21.3687 25.2801C21.6116 25.2801 21.8078 25.4764 21.8078 25.7192C21.8078 26.1156 22.1512 26.4384 22.5731 26.4384H23.1259C23.5829 26.4384 23.9548 26.0884 23.9548 25.6581V25.1168C23.9548 24.6865 23.5829 24.3366 23.1259 24.3366H22.6372C21.6954 24.3366 20.9297 23.5928 20.9297 22.6782V22.1369C20.9297 21.2223 21.6954 20.4785 22.6372 20.4785H23.19C24.0958 20.4785 24.833 21.1951 24.833 22.0754C24.833 22.3182 24.6367 22.5144 24.3939 22.5144C24.1511 22.5144 23.9548 22.3182 23.9548 22.0754C23.9548 21.6794 23.6119 21.3566 23.19 21.3566H22.6372C22.1801 21.3566 21.8078 21.7066 21.8078 22.1369V22.6782C21.8078 23.1085 22.1801 23.4584 22.6372 23.4584H23.1259C24.0672 23.4584 24.833 24.2022 24.833 25.1168V25.6581C24.833 26.5727 24.0668 27.3165 23.1259 27.3165Z" fill="black"/>
<path d="M16.9902 36.6303C16.7478 36.6303 16.5511 36.434 16.5511 36.1912V31.5157C16.5511 31.0489 16.1713 30.6691 15.705 30.6691H14.5758C14.109 30.6691 13.7297 31.0489 13.7297 31.5157V36.1908C13.7297 36.4336 13.533 36.6299 13.2906 36.6299C13.0483 36.6299 12.8516 36.4336 12.8516 36.1908V31.5157C12.8516 30.5646 13.6252 29.791 14.5758 29.791H15.705C16.656 29.791 17.4292 30.5646 17.4292 31.5157V36.1908C17.4292 36.4336 17.2325 36.6303 16.9902 36.6303Z" fill="black"/>
<path d="M16.9896 33.6501H13.2896C13.0473 33.6501 12.8506 33.4538 12.8506 33.211C12.8506 32.9682 13.0473 32.772 13.2896 32.772H16.9896C17.232 32.772 17.4287 32.9682 17.4287 33.211C17.4287 33.4538 17.232 33.6501 16.9896 33.6501Z" fill="black"/>
<path d="M26.3209 36.6303C26.0781 36.6303 25.8818 36.4341 25.8818 36.1913V30.2306C25.8818 29.9878 26.0781 29.7915 26.3209 29.7915C26.5637 29.7915 26.76 29.9878 26.76 30.2306V36.1913C26.76 36.4336 26.5637 36.6303 26.3209 36.6303Z" fill="black"/>
<path d="M22.3273 34.0131H20.1451C19.9028 34.0131 19.7061 33.8168 19.7061 33.574V30.2306C19.7061 29.9878 19.9028 29.7915 20.1451 29.7915H22.3273C23.2098 29.7915 23.9276 30.5098 23.9276 31.3923V32.4127C23.9272 33.2948 23.2093 34.0131 22.3273 34.0131ZM20.5837 33.135H22.3268C22.725 33.135 23.0491 32.8109 23.0491 32.4123V31.3919C23.0491 30.9937 22.7255 30.6692 22.3268 30.6692H20.5837V33.135Z" fill="black"/>
<path d="M20.1451 36.6306C19.9028 36.6306 19.7061 36.4344 19.7061 36.1916V33.5743C19.7061 33.3315 19.9028 33.1353 20.1451 33.1353C20.3875 33.1353 20.5842 33.3315 20.5842 33.5743V36.1916C20.5842 36.4339 20.3879 36.6306 20.1451 36.6306Z" fill="black"/>
<path d="M30.8912 33.3256C30.6484 33.3256 30.4521 33.1293 30.4521 32.8865C30.4521 32.6437 30.6484 32.4474 30.8912 32.4474C35.3938 32.4474 39.0573 28.7848 39.0573 24.2822C39.0573 21.1473 37.3085 18.3386 34.4928 16.9525C34.3559 16.8853 34.2641 16.7518 34.2496 16.6004C34.1394 15.4518 33.8601 14.3313 33.4189 13.2692C33.3258 13.0453 33.4321 12.7884 33.656 12.6953C33.8812 12.6023 34.1372 12.7085 34.2303 12.9324C34.6737 14.0007 34.9653 15.1238 35.0983 16.2755C38.0883 17.846 39.9355 20.8913 39.9355 24.2818C39.9355 29.2686 35.8785 33.3256 30.8912 33.3256Z" fill="black"/>
<path d="M9.46417 33.3254C4.4773 33.3254 0.419922 29.2684 0.419922 24.282C0.419922 19.2951 4.4773 15.2378 9.46417 15.2378H10.4723C11.148 11.8899 13.183 8.94908 16.1002 7.12609C16.3056 6.99788 16.5765 7.06067 16.7052 7.26571C16.8334 7.47119 16.771 7.74209 16.5656 7.87074C13.7556 9.62699 11.8254 12.4993 11.27 15.7506C11.234 15.9613 11.0509 16.1159 10.8371 16.1159H9.46417C4.96115 16.1159 1.29805 19.779 1.29805 24.2816C1.29805 28.7842 4.96115 32.4477 9.46417 32.4477C9.70653 32.4477 9.90323 32.644 9.90323 32.8868C9.90323 33.1296 9.70653 33.3254 9.46417 33.3254Z" fill="black"/>
<path d="M26.8557 17.7847C26.6763 17.7847 26.5004 17.7488 26.3347 17.6805C25.9983 17.5422 25.7369 17.2791 25.5986 16.9444C25.5252 16.765 25.3817 16.7275 25.2758 16.7275C25.1682 16.7275 25.0264 16.765 24.953 16.9444C24.6661 17.6361 23.8684 17.9674 23.175 17.6805L21.7233 17.0793C21.0298 16.7924 20.7002 15.9931 20.9871 15.3013C21.0657 15.1135 20.9735 14.9819 20.912 14.9205C20.8351 14.8436 20.707 14.7702 20.5294 14.8436C19.836 15.1288 19.0384 14.7992 18.7497 14.1075L18.1485 12.6574C17.8616 11.964 18.1912 11.1664 18.8846 10.8794C19.064 10.806 19.1015 10.6625 19.1015 10.5566C19.1015 10.449 19.064 10.3073 18.8863 10.2338C18.5499 10.0955 18.2886 9.83247 18.1502 9.49771C18.0102 9.16124 18.0102 8.79232 18.1502 8.45586L18.7514 7.00581C19.0401 6.31238 19.8377 5.98274 20.5311 6.26968C20.7104 6.34312 20.8368 6.26968 20.912 6.19453C20.9888 6.11767 21.0623 5.99128 20.9888 5.81195C20.8505 5.47548 20.8505 5.10656 20.9888 4.77009C21.1289 4.43363 21.3902 4.17231 21.725 4.03397L23.175 3.43277C23.8684 3.14583 24.6661 3.47717 24.9547 4.1689C25.0281 4.34652 25.1716 4.3841 25.2775 4.3841C25.3851 4.3841 25.5269 4.34652 25.6003 4.1689C25.7404 3.83243 26.0017 3.57111 26.3381 3.43106C26.6746 3.29101 27.0435 3.29272 27.38 3.43106L28.83 4.03226C29.1665 4.17231 29.4278 4.43363 29.5679 4.76839C29.7079 5.10485 29.7079 5.47548 29.5679 5.81024C29.4944 5.98787 29.5679 6.11596 29.643 6.19111C29.7199 6.26797 29.8463 6.34141 30.0239 6.26797C30.3604 6.12963 30.731 6.12963 31.0658 6.26797C31.4022 6.40802 31.6635 6.66934 31.8036 7.00581L32.4031 8.45586C32.5431 8.79232 32.5431 9.16124 32.4031 9.49771C32.263 9.83418 32.0017 10.0955 31.6652 10.2355C31.4876 10.309 31.45 10.4525 31.45 10.5583C31.45 10.6642 31.4876 10.8077 31.667 10.8812C32.0034 11.0195 32.2647 11.2825 32.4031 11.619C32.5431 11.9555 32.5431 12.3244 32.4031 12.6608L31.8019 14.1109C31.6635 14.4474 31.4022 14.7087 31.0658 14.847C30.7293 14.9854 30.3587 14.9854 30.0239 14.847C29.8446 14.7719 29.7182 14.847 29.643 14.9222C29.5679 14.9973 29.4927 15.1254 29.5679 15.303C29.8548 15.9965 29.5252 16.7941 28.8318 17.081L27.3817 17.6822C27.2109 17.7505 27.035 17.7847 26.8557 17.7847ZM25.2758 15.8496C25.672 15.8496 26.1793 16.0494 26.4099 16.6079C26.4594 16.7275 26.5516 16.8197 26.6712 16.8692C26.7908 16.9188 26.9223 16.9188 27.0418 16.8692L28.4919 16.268C28.7378 16.1656 28.8557 15.882 28.7532 15.6361C28.5209 15.0759 28.7395 14.5772 29.0196 14.2971C29.2997 14.017 29.7985 13.8 30.357 14.0306C30.4782 14.0801 30.6063 14.0801 30.7276 14.0306C30.8471 13.9811 30.9394 13.8889 30.9889 13.7693L31.5901 12.3192C31.6396 12.1997 31.6396 12.0699 31.5901 11.9503C31.5406 11.8308 31.4483 11.7385 31.3288 11.689C30.7703 11.4567 30.5705 10.9512 30.5705 10.5549C30.5705 10.1587 30.7686 9.65142 31.3288 9.42085C31.4483 9.37132 31.5406 9.27909 31.5901 9.15953C31.6396 9.03998 31.6396 8.90847 31.5901 8.78891L30.9889 7.33886C30.9394 7.2193 30.8471 7.12707 30.7276 7.07754C30.608 7.02801 30.4765 7.02801 30.357 7.07754C29.8002 7.30982 29.2997 7.09291 29.0179 6.8111C28.7378 6.5327 28.5209 6.03227 28.7532 5.47377C28.8027 5.35421 28.8027 5.2227 28.7532 5.10315C28.7037 4.98359 28.6114 4.89136 28.4919 4.84183L27.0418 4.24063C26.9206 4.1911 26.7925 4.1911 26.6712 4.24063C26.5516 4.29016 26.4577 4.38239 26.4099 4.50195C26.1793 5.06045 25.672 5.26028 25.2758 5.26028C24.8796 5.26028 24.3723 5.06215 24.1417 4.50365C24.0392 4.25771 23.7557 4.13986 23.5098 4.24234L22.0597 4.84183C21.9402 4.89136 21.8479 4.98359 21.7984 5.10315C21.7489 5.2227 21.7489 5.35421 21.7984 5.47377C22.0307 6.03398 21.8121 6.5327 21.5303 6.81281C21.2519 7.09291 20.7531 7.30982 20.1929 7.07754C19.947 6.97506 19.6635 7.09291 19.561 7.33886L18.9598 8.78891C18.9103 8.90847 18.9103 9.03998 18.9598 9.15783C19.0093 9.27738 19.1015 9.37132 19.2211 9.41914C19.7813 9.65142 19.9794 10.157 19.9794 10.5549C19.9794 10.9512 19.7796 11.4567 19.2211 11.689C18.9752 11.7915 18.8573 12.075 18.9598 12.321L19.561 13.771C19.6635 14.017 19.9487 14.1348 20.1929 14.0323C20.7514 13.8018 21.2502 14.0187 21.5303 14.2988C21.8104 14.5772 22.029 15.0759 21.7967 15.6361C21.6942 15.882 21.8121 16.1656 22.058 16.268L23.5081 16.8692C23.754 16.9717 24.0375 16.8539 24.14 16.6079C24.3723 16.0494 24.8778 15.8496 25.2758 15.8496ZM25.2758 13.5404C23.6293 13.5404 22.2903 12.2014 22.2903 10.5549C22.2903 8.90847 23.6293 7.56943 25.2758 7.56943C26.9223 7.56943 28.2613 8.90847 28.2613 10.5549C28.2613 12.2014 26.9223 13.5404 25.2758 13.5404ZM25.2758 8.44732C24.1127 8.44732 23.1682 9.39352 23.1682 10.5549C23.1682 11.7163 24.1144 12.6625 25.2758 12.6625C26.4372 12.6625 27.3834 11.7163 27.3834 10.5549C27.3834 9.39352 26.4372 8.44732 25.2758 8.44732Z" fill="black"/>
</g>
<defs>
<clipPath id="clip0_2150_10700">
<rect width="40" height="40" fill="white" transform="translate(0.200195)"/>
</clipPath>
</defs>
</svg>
