<svg width="40" height="40" viewBox="0 0 40 40" fill="none" xmlns="http://www.w3.org/2000/svg">
<g clip-path="url(#clip0_2150_10668)">
<path d="M20 40C31.0457 40 40 31.0457 40 20C40 8.9543 31.0457 0 20 0C8.9543 0 0 8.9543 0 20C0 31.0457 8.9543 40 20 40Z" fill="#006775"/>
<path d="M39.8516 22.5762L32.5188 15.2434C30.7517 13.2451 26.4577 10.7513 21.9655 15.1443L19.8185 13.0799H14.4841V15.7884L12.75 13.9718L9.31484 13.4103L7.6468 15.8711L11.66 20.099L12.1555 23.9966L9.23227 21.0073L6.77148 24.3929L22.2793 39.9008C31.4123 38.8603 38.679 31.6926 39.8515 22.5928V22.5762H39.8516Z" fill="#055661"/>
<path d="M27.2005 12.5845V12.601C23.6333 12.601 20.5449 15.4746 20.5449 19.2566C20.5449 22.0642 22.3121 24.5746 24.9545 25.5159C25.6812 25.7636 26.4245 25.8957 27.2006 25.8957C30.7679 25.8957 33.8562 23.0221 33.8562 19.2401C33.8562 15.4912 30.8009 12.5845 27.2005 12.5845ZM32.1716 15.9702C32.7001 16.796 33.047 17.7703 33.113 18.8108H31.9239C31.8744 17.9024 31.6266 17.0602 31.2633 16.2839H31.2468C31.5606 16.1848 31.8744 16.0858 32.1716 15.9702ZM31.6927 15.326C31.412 15.4252 31.1312 15.5077 30.8504 15.5738C30.2558 14.6654 29.4466 13.9222 28.5052 13.3938C29.7604 13.691 30.8834 14.3681 31.6927 15.326ZM29.0833 19.62H31.2303C31.1808 20.3467 30.9991 21.0403 30.7184 21.6844C30.1403 21.5358 29.5458 21.4367 28.9347 21.3541C29.0173 20.7927 29.0668 20.2146 29.0833 19.62ZM28.8851 16.7628C29.4631 16.6967 30.0246 16.5977 30.5696 16.4656C30.933 17.1757 31.1642 17.9685 31.2302 18.8107H29.0832C29.0668 18.1006 29.0007 17.4235 28.8851 16.7628ZM30.1402 15.7389C29.6778 15.8381 29.2154 15.9041 28.7364 15.9536C28.5712 15.2435 28.373 14.5663 28.1088 13.9388C28.9182 14.3681 29.6118 14.9957 30.1402 15.7389ZM28.0923 16.8124C28.1915 17.4565 28.2575 18.1171 28.274 18.7943H26.2096C26.2261 18.1172 26.2922 17.4565 26.3912 16.829C26.639 16.8455 26.8867 16.8455 27.1345 16.8455C27.4482 16.8455 27.762 16.8289 28.0758 16.8124H28.0923ZM24.327 16.5978C24.7564 16.6803 25.1858 16.7463 25.6316 16.796C25.5325 17.44 25.4665 18.1171 25.4334 18.8274H23.7324C23.782 18.0346 23.9966 17.2914 24.327 16.6143L24.327 16.5978ZM25.4334 19.6366C25.4499 20.2146 25.4995 20.7927 25.582 21.3542C25.103 21.4038 24.6407 21.4699 24.1948 21.5689C23.947 20.9743 23.7819 20.3138 23.7323 19.6367L25.4334 19.6366ZM25.6977 22.1468C25.8298 22.8404 26.028 23.5011 26.2591 24.1121C25.582 23.6331 24.9875 23.0056 24.5581 22.2954C24.938 22.2294 25.3178 22.1799 25.6977 22.1468ZM25.7802 16.0031C25.4334 15.9701 25.0866 15.9206 24.7563 15.871C25.1692 15.2765 25.6812 14.748 26.2757 14.3351C26.0775 14.8635 25.9123 15.4251 25.7802 16.0031ZM26.5401 16.0196C26.5413 16.0196 26.5425 16.0197 26.5437 16.0197C26.7089 15.2331 26.9548 14.4956 27.2337 13.8231C27.5144 14.5003 27.7621 15.2435 27.9273 16.0196C27.663 16.0361 27.3987 16.0361 27.1345 16.0361C26.9376 16.0361 26.7407 16.0199 26.5437 16.0197C26.5426 16.0253 26.5412 16.0306 26.54 16.0362L26.5401 16.0196C26.5402 16.0196 26.54 16.0196 26.5401 16.0196ZM26.2592 13.3278C26.3418 13.3442 26.4409 13.3608 26.5234 13.3773C25.4995 13.9387 24.6407 14.748 24.0296 15.7224C23.5506 15.6233 23.0883 15.4912 22.6588 15.3426C23.5673 14.2856 24.8223 13.5424 26.2592 13.3278ZM22.1799 15.9867C22.6423 16.1683 23.1377 16.317 23.6498 16.4491C23.3195 17.1758 23.1048 17.9685 23.0552 18.8108H21.2386C21.3046 17.7703 21.6514 16.8124 22.1799 15.9867ZM21.2386 19.62H23.0552C23.1048 20.3467 23.2699 21.0568 23.5342 21.7009L23.5177 21.7174C22.9892 21.8495 22.4937 22.0146 22.0148 22.1963C21.5689 21.4367 21.2881 20.5614 21.2386 19.62ZM26.2427 25.1196C24.7068 24.8719 23.3525 24.0461 22.4442 22.857C22.8902 22.6918 23.3691 22.5597 23.8645 22.4441C24.4756 23.5506 25.4005 24.4589 26.507 25.07C26.4244 25.0865 26.3252 25.1031 26.2427 25.1196ZM27.2171 24.5746C26.8888 23.8031 26.6423 22.9662 26.4609 22.0642C26.4598 22.0642 26.4585 22.0642 26.4574 22.0644V22.0478C26.4585 22.0533 26.4598 22.0587 26.4609 22.0642C26.6745 22.0479 26.9044 22.0479 27.118 22.0479C27.3987 22.0479 27.696 22.0644 27.9768 22.0644C27.7952 22.9561 27.5474 23.7984 27.2171 24.5746ZM27.118 21.2385C26.8537 21.2385 26.5895 21.2385 26.3253 21.255C26.2593 20.7265 26.2097 20.165 26.1932 19.6035H28.2411C28.2246 20.1815 28.1916 20.7266 28.109 21.2716C27.7787 21.255 27.4483 21.2385 27.118 21.2385ZM28.8191 22.1634C29.3475 22.2129 29.8595 22.312 30.3384 22.4111C29.7935 23.2699 29.0173 23.9966 28.1255 24.4755C28.4227 23.7488 28.6539 22.9726 28.8191 22.1634ZM28.5219 25.037C29.5623 24.4589 30.4376 23.6002 31.0322 22.5763C31.3295 22.6588 31.6268 22.7579 31.9075 22.857C31.0817 23.9304 29.8926 24.7232 28.5219 25.037ZM31.3955 21.8661C31.6927 21.1725 31.8909 20.4128 31.9405 19.62H33.1295C33.0634 20.5613 32.7827 21.4367 32.3368 22.1963C32.023 22.0808 31.7093 21.9652 31.3955 21.8661Z" fill="#00CC96"/>
<path d="M27.5313 16.3994C29.1855 16.3994 30.5373 17.7512 30.5373 19.4054C30.5373 21.0595 29.1855 22.4113 27.5313 22.4113C25.8772 22.4113 24.5254 21.0595 24.5254 19.4054C24.5254 17.7512 25.8771 16.3994 27.5313 16.3994Z" fill="#00CC96"/>
<path d="M34.3018 28.9351L31.0979 23.3694C30.9988 23.2208 30.8006 23.1712 30.652 23.2538L30.5198 23.3364L30.0244 22.494V22.4941H30.0077C30.7509 21.8996 31.2794 21.0573 31.4445 20.0499C31.8079 17.903 30.3545 15.8551 28.191 15.4917C26.0441 15.1283 23.9962 16.5817 23.6328 18.7452C23.2695 20.8922 24.7228 22.9401 26.8863 23.3034C27.613 23.419 28.3563 23.3364 29.0003 23.0722L29.4958 23.9145L29.3637 23.9971C29.215 24.0962 29.1655 24.2944 29.248 24.443L32.452 30.0087C32.5511 30.1573 32.7493 30.2069 32.898 30.1243L34.1862 29.3811C34.3348 29.2819 34.3844 29.0837 34.3018 28.9351ZM27.5973 22.2072C26.017 22.2072 24.7359 20.9262 24.7359 19.3459C24.7359 17.7657 26.017 16.4846 27.5973 16.4846C29.1775 16.4846 30.4586 17.7657 30.4586 19.3459C30.4586 20.9262 29.1775 22.2072 27.5973 22.2072Z" fill="#F7F7F8"/>
<path d="M25.7139 18.8936C25.6974 19.0092 25.5982 19.0752 25.4992 19.0587C25.4166 19.0422 25.3506 18.9596 25.3506 18.8771C25.3506 18.844 25.3671 18.811 25.3671 18.7615C25.5653 17.5559 26.7214 16.73 27.9269 16.9283C27.96 16.9283 27.993 16.9448 28.0261 16.9448H28.0425C28.1582 16.9613 28.2242 17.0604 28.2077 17.1761C28.1912 17.2752 28.0921 17.3577 27.9764 17.3412C27.9434 17.3247 27.8939 17.3247 27.8608 17.3247C26.8699 17.1596 25.9121 17.8367 25.7468 18.8276C25.7468 18.8441 25.7468 18.8607 25.7304 18.8937H25.7138L25.7139 18.8936Z" fill="#F7F7F8"/>
<path d="M30.6691 23.2367L29.4965 23.9138L29.3644 23.9964C29.2158 24.079 29.1662 24.2772 29.2488 24.4423L32.4527 30.008C32.5353 30.1566 32.7335 30.2062 32.8987 30.1236L34.1869 29.3804C34.3355 29.2978 34.3851 29.0996 34.3025 28.9345L31.0986 23.3688C31.016 23.2202 30.8344 23.1706 30.6857 23.2367H30.6691Z" fill="#E84F4F"/>
<path d="M30.5034 23.3362L30.6355 23.2537C30.7841 23.1711 30.9823 23.2206 31.0814 23.3693L34.2854 28.9349C34.368 29.0835 34.3184 29.2818 34.1698 29.3808L33.5257 29.7607L30.041 23.6005L30.5034 23.3362Z" fill="#C94545"/>
<path d="M13.196 16.7796V16.2841C13.196 15.2932 13.0968 14.5831 12.8987 14.1702C12.7005 13.7573 12.3207 13.4105 11.7261 13.1297C11.1315 12.8655 10.4214 12.7168 9.56262 12.7168C8.78645 12.7168 8.1423 12.8324 7.58074 13.0966C7.03574 13.3444 6.63941 13.6912 6.39168 14.1371C6.14395 14.583 6.02832 15.2766 6.02832 16.2346C6.02832 16.8952 6.1109 17.4402 6.29254 17.8696C6.4577 18.299 6.68887 18.6293 6.9366 18.877C7.20082 19.1248 7.72934 19.5046 8.53863 20.0496C9.34785 20.578 9.84332 20.958 10.058 21.1891C10.2562 21.4204 10.3553 21.8993 10.3553 22.6259C10.3553 22.9562 10.3057 23.204 10.1901 23.3856C10.091 23.5508 9.9259 23.6334 9.71113 23.6334C9.49645 23.6334 9.34777 23.5673 9.2652 23.4352C9.18262 23.303 9.13309 23.0058 9.13309 22.5268V21.0075H6.1109V21.8332C6.1109 22.7745 6.21004 23.5013 6.39168 23.9967C6.58988 24.5087 6.98629 24.9216 7.59723 25.2519C8.20816 25.5822 8.95152 25.7473 9.82684 25.7473C10.6196 25.7473 11.3132 25.5987 11.9077 25.318C12.5023 25.0372 12.8986 24.6739 13.1132 24.261C13.3279 23.8316 13.427 23.1876 13.427 22.2957C13.427 21.0735 13.2454 20.1817 12.8655 19.6367C12.4857 19.0917 11.5773 18.3816 10.1405 17.5227C9.64504 17.2255 9.33129 16.9612 9.21566 16.763C9.10004 16.5484 9.05051 16.2346 9.05051 15.8217C9.05051 15.4914 9.10004 15.2602 9.1991 15.095C9.29816 14.9298 9.44684 14.8473 9.64504 14.8473C9.82668 14.8473 9.95879 14.9134 10.0249 15.0289C10.1075 15.1445 10.1405 15.4252 10.1405 15.8547V16.7795H13.1629H13.196V16.7796ZM14.5007 12.9811V25.4831H20.1489V22.9893H17.7542V20.2312H19.7856V17.853H17.7542V15.4583H19.9177V12.9645H14.5007V12.9811Z" fill="#00CC96"/>
</g>
<defs>
<clipPath id="clip0_2150_10668">
<rect width="40" height="40" fill="white"/>
</clipPath>
</defs>
</svg>
