<svg width="16" height="16" viewBox="0 0 16 16" fill="none" xmlns="http://www.w3.org/2000/svg">
<path d="M7.99984 12.3337C10.3931 12.3337 12.3332 10.3936 12.3332 8.00033C12.3332 5.60709 10.3931 3.66699 7.99984 3.66699C5.6066 3.66699 3.6665 5.60709 3.6665 8.00033C3.6665 10.3936 5.6066 12.3337 7.99984 12.3337Z" stroke="currentColor" stroke-width="1.5" stroke-linecap="round" stroke-linejoin="round"/>
<path d="M12.7602 12.7597L12.6735 12.673M12.6735 3.32634L12.7602 3.23967L12.6735 3.32634ZM3.24016 12.7597L3.32683 12.673L3.24016 12.7597ZM8.00016 1.38634V1.33301V1.38634ZM8.00016 14.6663V14.613V14.6663ZM1.38683 7.99967H1.3335H1.38683ZM14.6668 7.99967H14.6135H14.6668ZM3.32683 3.32634L3.24016 3.23967L3.32683 3.32634Z" stroke="currentColor" stroke-width="2" stroke-linecap="round" stroke-linejoin="round"/>
</svg>
