<svg width="24" height="24" viewBox="0 0 24 24" fill="none" xmlns="http://www.w3.org/2000/svg">
<path d="M6.75 10.2752C7.45 7.47519 9.2 6.0752 12 6.0752C16.2 6.0752 16.725 9.22519 18.825 9.7502C20.225 10.1002 21.45 9.57519 22.5 8.17519C21.8 10.9752 20.05 12.3752 17.25 12.3752C13.05 12.3752 12.525 9.2252 10.425 8.7002C9.025 8.3502 7.8 8.87519 6.75 10.2752ZM1.5 16.5752C2.2 13.7752 3.95 12.3752 6.75 12.3752C10.95 12.3752 11.475 15.5252 13.575 16.0502C14.975 16.4002 16.2 15.8752 17.25 14.4752C16.55 17.2752 14.8 18.6752 12 18.6752C7.8 18.6752 7.275 15.5252 5.175 15.0002C3.775 14.6502 2.55 15.1752 1.5 16.5752Z" fill="#44A8B3"/>
</svg>
