<svg width="24" height="24" viewBox="0 0 24 24" fill="none" xmlns="http://www.w3.org/2000/svg">
<path d="M12 22.5C17.799 22.5 22.5 17.799 22.5 12C22.5 6.20101 17.799 1.5 12 1.5C6.20101 1.5 1.5 6.20101 1.5 12C1.5 17.799 6.20101 22.5 12 22.5Z" fill="#028CB0"/>
<path d="M4.84153 12C4.84153 14.8367 6.49153 17.28 8.87768 18.4414L5.46346 9.08715C5.05348 10.0035 4.84156 10.9961 4.84153 12ZM12 19.1584C12.8314 19.1584 13.6309 19.0125 14.3798 18.7523L14.3291 18.6572L12.1269 12.6283L9.9819 18.8665C10.6166 19.0569 11.2956 19.1584 12 19.1584ZM12.9836 8.64285L15.5728 16.3408L16.29 13.9546C16.5946 12.9646 16.8294 12.2539 16.8294 11.6383C16.8294 10.7498 16.5122 10.1406 16.2456 9.67095C15.8775 9.0744 15.5411 8.5731 15.5411 7.98922C15.5411 7.32923 16.0361 6.72 16.7469 6.72H16.8358C15.5168 5.5091 13.7906 4.83856 12 4.84153C10.8144 4.84132 9.6474 5.13583 8.60385 5.69857C7.56037 6.26132 6.67309 7.07464 6.02192 8.06535L6.47885 8.0781C7.22769 8.0781 8.38268 7.98285 8.38268 7.98285C8.77612 7.96387 8.8206 8.52863 8.43345 8.5731C8.43345 8.5731 8.04637 8.62388 7.60845 8.64285L10.2231 16.3979L11.7906 11.7017L10.6736 8.64285C10.4235 8.62905 10.1737 8.6079 9.92482 8.5794C9.53767 8.55405 9.58215 7.96387 9.96922 7.98285C9.96922 7.98285 11.1497 8.0781 11.854 8.0781C12.6028 8.0781 13.7578 7.98285 13.7578 7.98285C14.145 7.96387 14.1958 8.52863 13.8086 8.5731C13.8086 8.5731 13.4216 8.6175 12.9836 8.64285ZM15.5983 18.1875C16.6812 17.5578 17.5799 16.655 18.2047 15.5692C18.8294 14.4834 19.1583 13.2527 19.1584 12C19.1584 10.7561 18.8411 9.58845 18.2827 8.56673C18.3961 9.69083 18.2259 10.8254 17.7877 11.8667L15.5983 18.1875ZM12 20.25C9.81195 20.25 7.71353 19.3808 6.16637 17.8337C4.6192 16.2865 3.75 14.1881 3.75 12C3.75 9.81195 4.6192 7.71353 6.16637 6.16637C7.71353 4.6192 9.81195 3.75 12 3.75C14.1881 3.75 16.2865 4.6192 17.8337 6.16637C19.3808 7.71353 20.25 9.81195 20.25 12C20.25 14.1881 19.3808 16.2865 17.8337 17.8337C16.2865 19.3808 14.1881 20.25 12 20.25Z" fill="white"/>
</svg>
